<svg id="Calque_1" data-name="Calque 1" xmlns="http://www.w3.org/2000/svg" viewBox="0 0 49.16 44.13"><path d="M-28.69,369.5c-.39-4.62-.09-9.29-.09-13.94,0-5,.14-9.95,0-14.92-.27-7.74-.67-7.89-8-8.27-12.38-.62-24.67,2-37,1-3.55-.29-3.93,1.17-3.94,4.24,0,2.87,1.32,5.42,1.15,8.24-.51,8.93,1.76,17.75,1,26.69-.18,2,.45,2.53,2.62,2.94,8.89,1.68,17.81.54,26.71.85a43.65,43.65,0,0,0,12.67-1C-30.47,374.52-28.35,373.51-28.69,369.5Zm-15.16-34.73c2.79-.37,5.46-1.23,8.22,1.37,5.13,4.82-.72,7.51-2.15,10.18a26.81,26.81,0,0,1-11,11c-4.58,2.38-8.27,1.74-13.09-3.25a91,91,0,0,1-12.86-17.74C-64.78,334.52-54.28,336.17-43.85,334.77Zm-29.33,10.08c1,3.08,3.29,5.38,5.25,7.48,2.51,2.69,2.26,4.15-.31,6.16a35.74,35.74,0,0,0-3.47,3.74C-73.19,356.07-74.14,350.59-73.18,344.85Zm29.79,27.38a75.87,75.87,0,0,1-12.25.83c-4.37,0-7.48-.75-11.26-.69-2.52,0-2.89-2.22-3.5-3.58-1.14-2.53,1.61-4.24,2.56-6.27.48-1,2.34-1.85,3.23-3.31,1.12-1.85,2.34-.71,3.54.27,7.37,6,7.4,6,14.82,1.24,1.65-1.07,3-1.83,4.09.65.45,1,1.57,1.68,2.27,2.59C-36,369-36.8,371.21-43.39,372.23Zm10.63-6.85c-2.18-3-4.16-6.19-6.59-9-1.39-1.59-.25-2,.44-3.06,1.94-2.87,4.51-5.31,5.78-8.79C-30.66,351.52-32.25,358.39-32.76,365.38Z" transform="translate(77.81 -332.28)"/></svg>