<svg xmlns="http://www.w3.org/2000/svg" viewBox="0 0 51.08 51.03"><g id="Calque_2" data-name="Calque 2"><g id="Calque_1-2" data-name="Calque 1"><path d="M14.54.26C7.22,1.63-.32,5.9,0,16c.2,5.57,1.24,11.21.75,16.69-.7,7.77,6.62,14.57,12.07,16,8.77,2.31,17.79,2.6,26.81,2.14a6.64,6.64,0,0,0,5.63-4,58.27,58.27,0,0,0,5.59-30.42c-.41-5.64-5-11.25-9.79-13.34A33.67,33.67,0,0,0,24.45.21C20.27.17,17.33-.27,14.54.26ZM47,23.89a48.75,48.75,0,0,1-3,18c-3.26,8.45-9.84,5.51-15.25,6-5.79.55-11.43-.82-16.73-2.77C7.2,43.42,4.16,36.38,4,31.71A86.86,86.86,0,0,1,5.22,14.17C8.43,5.71,11,6.5,15.6,4.93c4.56-1.21,7.87-.36,11.59-1.3,9.21-1.48,15.66,1.57,19.18,9.9C47.8,17,47,20.46,47,23.9Z"/><path d="M13.22,16.84c0,.17.12.17.15.3.25-.18.59.36.84,0-.05.1.08.07,0,.2,2.66.1,5.23-.18,7.58,0,.1.26.61.41,1,.36.08.1,0,.25.05.33a.57.57,0,0,1,.59.23c0,.1-.05.13,0,.28a1.65,1.65,0,0,0,1.1.46c.1.15-.08.36,0,.48-.18,0-.2.13-.28.26.21.1.39.2.59.31.2-.21.31.12.46.3-.1.28-.43.44-.54.72-2.73.12-5.79,0-8.31-.05.07,1.17-.41,1.83-.41,3,1.61,0,3.42,0,4.92.18.08,0,.26-.18.31-.18.61.08,2-.05,2.58.1v.16a3.47,3.47,0,0,0,1,.22c.06.26-.07.36-.05.54-.33,0-.23.26-.41.43-.15,0-.17.06-.35.06-.18.15-.26.35-.54.4a1.17,1.17,0,0,1-.71.57c-.1.25-.23.35-.21.63-.28.21-.63.74-1.25.64-.07,0,0,.13-.07.18a25.17,25.17,0,0,1-5.08.18c-.18.87.41,1.45.18,2.4,2.12-.11,4.77-.06,7-.16a2.89,2.89,0,0,1,1.2.16c.21.17.49.12.72.2-.08.36-.36.41-.51.64,0,0,.1.13-.05.13.07.07.23-.08.35.07a5.78,5.78,0,0,1,0,1.81c-.07.16-.2.28-.17.49.38.43-.29.79-.44,1.15-1.3.17-2.55-.21-4-.16-1.25,0-2.55.18-3.91.23a22.55,22.55,0,0,1-2.83.16c-.15,0-.28-.16-.46-.18s-.1.12-.23,0c-.12.15-.18.35-.3.48s-.1-.23-.23-.25a.58.58,0,0,1-.21.12c-.1,0-.1-.12-.1-.25s0,.13-.13.08c-.25-.29-.76-.16-.84-.57s.16-1-.23-1.35c0-.13.13-.07.13-.18-.08-1,.08-2,.08-3a13.33,13.33,0,0,0-.41-1.55,16.34,16.34,0,0,1,0-2,4.7,4.7,0,0,1-.07-1.2c.07-.77,0-1.66,0-2.37,0-.18.07-.39.07-.57,0-1-.43-1.86-.23-2.9-.3-.23-.68-.26-.84-.51,0-.18.28-.13.41-.08.08-.13-.15-.13-.18-.28s.13-.15.08-.26c.23.08.18-.15.33-.15-.33-.15-.84-.23-1.07-.48a.36.36,0,0,1,.36-.16c-.23-.12.05-.28-.06-.43.54-.23,1.18.25,1.69-.1.43,0,.84.33,1.22.1,0-.31.31-.64.44-.31C13.09,17,13.14,16.86,13.22,16.84ZM10.89,28.6a2.89,2.89,0,0,0,0-1.1Z"/><path d="M29.75,16.5c.13.13.33.11.38.31.23-.13.48.26.77.08.07.48.58.66.46,1.32,0,.13-.11.11-.16.16.59.86,1.58,1.37,2,2.42a1.7,1.7,0,0,1,.21.28c.2.1.3.05.51.1a1,1,0,0,1,0,.41c.07.18.12.38.33.46.12.26.18.56.41.66,0,.05.07.08,0,.13a5.76,5.76,0,0,1,1.05,1.86c-.13-1.4-.54-2.75-.05-4.13.07-.26.33-.51.35-.79s-.18-.72-.2-1.1a2.42,2.42,0,0,0-.64-1.22h.18c0-.1,0-.1,0-.26h.2c.11-.07,0-.2.08-.28a25.09,25.09,0,0,1,3,0,1.7,1.7,0,0,0,.94.36A.88.88,0,0,1,39.9,17a.32.32,0,0,1,0,.16c.1-.08.2-.18.3-.1s-.12,0-.12.1c.17-.05.1,0,.3,0,0,.08,0,.08,0,.21s.12-.16.3,0,.05.07,0,.1c.18-.08.39.05.51-.05.13.28-.07.56-.1.86A21.19,21.19,0,0,0,41,21.35a2.39,2.39,0,0,1-.07.89c0,.08-.1.08-.1.21a3.58,3.58,0,0,1-.16,1c.13.28-.07.66-.07,1a2.32,2.32,0,0,1-.16,1.45,9.28,9.28,0,0,1-.12,1.66c0,.08.07.1.1.18s0,.23,0,.28a3.6,3.6,0,0,1,.1.92c0,.28.21.51.23.74,0,.64,0,1.25,0,1.81a.9.9,0,0,0,0,.25,2.69,2.69,0,0,0-.08.57c.05.68-.2,1.2-.1,1.88-.05.18-.18.11-.2.23s-.08-.1-.18-.1c0,.26-.1.41-.13.64-.41,0-.48-.2-.71-.54-.16.06-.16.26-.16.46a.64.64,0,0,0-.41.54c-.1-.08-.12-.21-.25-.28s-.26,0-.28-.13c-.05,0-.08,0-.1.1-.18-.07-.26-.23-.51-.18,0-.15-.13-.07-.23-.17s-.13-.26-.21-.39c-.33-.41-.89-.86-.66-1.32-.13-.23-.08-.59-.23-.9s-.43-.48-.66-.74a26.83,26.83,0,0,0-2-2.11c0,.79.07,2.09.07,3.08l0,0c-.33.59.33,1.33.48,1.63-.07.18-.41.36-.48.69-.44-.2-2.22-.28-2.45.56a2.15,2.15,0,0,1-1.86-.56c-.11,0-.08.18-.16.23s-.1-.23-.2-.28,0,.1-.15.08-.16-.05-.16-.18c-.3.08-.58-.15-.86-.31,0-1.32.48-2.32.28-3.42-.13-.66-.18-1.42-.28-2a5.34,5.34,0,0,0-.26-.64,7.74,7.74,0,0,1,.23-2.76,4.52,4.52,0,0,0,0-1,7.57,7.57,0,0,1,0-3.22c0-.07,0-.07-.08-.07a3.5,3.5,0,0,0-.2-1.59c.05-.43,0-1.07,0-1.45,0-.13-.1-.13-.1-.23s.08-.31.28-.26c0-.28.13-.38.3-.53.18.13.59.15.59.36.1,0,.1-.11.21-.08s.1-.36.33-.31c0-.18.1-.3.12-.46s.41-.1.26.11C29.77,16.63,29.62,16.53,29.75,16.5Zm2.19,16.33c0,.05,0,.36,0,.28S32,32.73,31.94,32.83Zm3.55-10.74a4.76,4.76,0,0,0,0,.79,1.72,1.72,0,0,0,0-.43C35.51,22.14,35.51,21.61,35.49,22.09Zm.28,2.58s0,.25.1.33C35.87,24.85,35.87,24.57,35.77,24.67Zm2-6.69h-.1a2,2,0,0,0,.07.46C37.81,18.32,37.76,18.16,37.76,18Z"/></g></g></svg>