<svg xmlns="http://www.w3.org/2000/svg" viewBox="0 0 51.08 51.03"><defs><style>.cls-1{fill:#fff;}</style></defs><g id="Calque_2" data-name="Calque 2"><g id="Calque_1-2" data-name="Calque 1"><path d="M14.54.26C7.22,1.63-.32,5.9,0,16c.2,5.57,1.24,11.21.75,16.69-.7,7.77,6.62,14.57,12.07,16,8.77,2.31,17.79,2.6,26.81,2.14a6.64,6.64,0,0,0,5.63-4,58.27,58.27,0,0,0,5.59-30.42c-.41-5.64-5-11.25-9.79-13.34A33.67,33.67,0,0,0,24.45.21C20.27.17,17.33-.27,14.54.26Z"/><path class="cls-1" d="M14.44,35.29c-.09.28-.42.15-.73.12a9.48,9.48,0,0,1-1-.09,5.48,5.48,0,0,1-1.06-.72c.1,0,.24,0,.28-.06s-.21-.06-.07-.16c-.09-.12.12,0,.17-.12s0-.28.12-.37c-.05-.25-.31-.32-.47-.5a11.42,11.42,0,0,1,0-1.94c.3-.87,0-1.34.18-2.83,0-.13.1-.22.1-.28.07-.69,0-1.41,0-2V25a7,7,0,0,1,0-1.12c.09-1.84,0-3.37,0-5.46a.14.14,0,0,1,.1-.18c-.07-1.16-1.08-2-.52-3.15-.07-.47.19-.5.24-.84,0,0,.07.06.11.06s.05-.31.12-.38a7.58,7.58,0,0,0,3.81.07,16.53,16.53,0,0,1,3.29-.07c.73,0,1.48-.12,2.14-.06a19.91,19.91,0,0,1,2,.25c1.11.13-.32.22.57.28,0,.1,0,.22.05.28a6.25,6.25,0,0,0,.92.22c.09.28-.05.44-.05.72-.33.06-.21.56-.61.56.31.65-.21,1.12-.07,1.71-.14.32-.38.47-.47.85-.42.18,0,0-.53-.18-.54.09.22-.29-.37-.14-.12,0,0,0-.07,0-.38.13-.61-.06-1.06-.15a9.72,9.72,0,0,0-2.14.06c-.8.06-1.55.56-2.19.13.07,1.55-.44,3-.37,4.36A9.68,9.68,0,0,0,19,23a6,6,0,0,1,1.43.53c.14,0,0,.18.07.22s.26,0,.26,0-.09.21-.12.37A21,21,0,0,1,20.74,27c-.09.43-.49.65-.59,1-.61,0-2.67-.4-3.47-.46a14.09,14.09,0,0,1-.25,2.06c0,.31-.06,1.23-.11,1.51s-.07.93-.12,1.09c-.09.37.08.64,0,1a2.3,2.3,0,0,0,0,.72c-.14,0,0,.33-.2.4,0,.09.08.3.08.4-.26-.13.05.15-.12.34.17.25.46-.11.34.32-.28,0-.21.41-.4.56-.12-.06-.14-.24-.24-.34,0,.1-.09.13-.16.19-.19-.41-.64-.38-.94-.66-.1,0-.07.1-.17.13S14.44,35.35,14.44,35.29ZM12,28.62c0-.06,0-.06,0-.13a5.89,5.89,0,0,0,0,1.12C12,29.71,12,28.9,12,28.62Zm0-8.89a8.51,8.51,0,0,0,.05,1A5.09,5.09,0,0,0,12,19.73Zm0,4.06c0,.09,0,.43.05.34S12.09,23.69,12,23.79Zm0,.87c0,.12,0,.53.05.47S12.09,24.6,12,24.66Zm0,1.49c.05.41,0,1.16.05,1.41A9.67,9.67,0,0,0,12,26.15Z"/><path class="cls-1" d="M31.42,14.77c.06,0,0,.12,0,.18.84,0,1.88-.09,2.94-.12a24.57,24.57,0,0,1,3.88.28,5.37,5.37,0,0,1,.67.09,1.44,1.44,0,0,1,.59.16c.14.06.25.31.39.5a6.56,6.56,0,0,1,1.26,1.31,5.31,5.31,0,0,1,.4,2.12c0,.31-.09.71-.12,1a1.22,1.22,0,0,0-.39.65c-.06.12-.06,0-.14.06a8.32,8.32,0,0,1-2.38,3.46c-.06.59.3,1,.47,1.44a4,4,0,0,1,.14.74,6.45,6.45,0,0,0,.45,1.25c.17,1,.34,2.09.59,3.12.11.47.28,1,.34,1.37s0,.59,0,.84c.05.78.42,1.28.47,2.18a1.88,1.88,0,0,0-.3.75,2,2,0,0,0-.4.66c-.14,0-.14-.22-.25-.28s-.06.22-.11.09a1.87,1.87,0,0,0-1-.44c-.09.16-.11.41-.31.47s-.14-.09-.2-.19-.16.1-.3,0,0,0,0-.12c-.42-.16-.87-.28-1-.78A1.63,1.63,0,0,0,37,34.28c-.11-.53,0-1.24-.17-1.68a6.59,6.59,0,0,1-.47-1.15,2.32,2.32,0,0,1-.06-.44,4.12,4.12,0,0,1-.22-.47c-.48-1.31-.76-2.62-1.15-4a19.78,19.78,0,0,1-2.7.65,8.65,8.65,0,0,1,0,.94c0,.75.23,1.43.17,2.24s-.17,1.44-.2,2.19c-.08.93,0,1.77-.17,2.77-.19.06-.3.28-.36.56-.11,0-.14-.22-.22-.28s-.12.19-.23,0c-.08.41-.33.53-.53.9,0-.06,0-.21-.11-.25s-.48-.09-.71.13c-.19-.25-.44-.25-.78-.31,0-.1.08-.06.08-.16a1.46,1.46,0,0,1-.81-.43c-.56.06-.93-.38-1.43-.63.08-.9-.11-1.68,0-2.65a1.56,1.56,0,0,0,.11-.4c0-.25,0-.47,0-.66.06-.56.28-1,.37-1.68,0-.13.11-.25.11-.34a30.79,30.79,0,0,0,0-3.31c0-.4.06-1.31,0-2s-.14-1.06-.11-1.5a12.73,12.73,0,0,0,0-2c-.06-.63-.56-1.75-.17-2.5A2.13,2.13,0,0,0,27,16.48a2,2,0,0,0-.06-.84h.17c-.05-.12,0-.16,0-.28h.2c.06,0,0-.31.06-.34,1.17.15,2.38-.38,3.39,0,.08-.1.39-.6.45-.16C31.23,14.67,31.39,14.89,31.42,14.77Zm-4.35,1.15c0,.16,0,.62,0,.59S27.13,15.89,27.07,15.92Zm0,16.3c0,.78,0,1.91,0,2.5C27.07,33.91,27.16,32.82,27.07,32.22ZM27.24,31a1.61,1.61,0,0,0,0,.62C27.27,31.63,27.24,31,27.24,31Zm0-12.69a6.23,6.23,0,0,0,0,.84A3.53,3.53,0,0,0,27.27,18.26Zm.11-.91c0,.1,0,.44,0,.35S27.44,17.26,27.38,17.35Zm.2,3.06a5.71,5.71,0,0,0,0,1C27.58,21.16,27.61,20.57,27.58,20.41Zm0,1.84c0,.09,0,.44,0,.37S27.61,22.12,27.58,22.25Zm0,3.46a7.55,7.55,0,0,0,0,.93A3.41,3.41,0,0,0,27.61,25.71Zm.08,2.43c0,.22-.05.72,0,.75C27.69,28.64,27.75,28.17,27.69,28.14Zm0-1c0,.13,0,.5.06.41s0,0,0-.06S27.72,27,27.69,27.17Zm6.7-4.89a8.49,8.49,0,0,0,1.72-1.12,6.28,6.28,0,0,0,0-1.06,6.2,6.2,0,0,0,.2-1.06c-.06-.25-.2-.41-.2-.66a9.2,9.2,0,0,1-2.83.25c-.11,0,.11.1,0,.16-.53.06-.76-.31-1.18-.41,0,1.16,0,2.9-.11,4.24C32.94,22.62,33.5,22.34,34.39,22.28Zm1.86-1.5V20.1s0-.13,0-.13a3.89,3.89,0,0,0,0,.84C36.22,20.94,36.27,20.88,36.25,20.78ZM37,32.94s-.05-.06,0,0v.69A5.08,5.08,0,0,0,37,32.94Zm.28,1.87c0,.1,0,.44,0,.31S37.37,34.72,37.31,34.81Z"/></g></g></svg>