<?xml version="1.0" encoding="utf-8"?>
<!-- Generator: Adobe Illustrator 25.2.3, SVG Export Plug-In . SVG Version: 6.00 Build 0)  -->
<svg version="1.1" id="Calque_1" xmlns="http://www.w3.org/2000/svg" xmlns:xlink="http://www.w3.org/1999/xlink" x="0px" y="0px"
	 viewBox="0 0 50.3 50" style="enable-background:new 0 0 50.3 50;" xml:space="preserve">
<style type="text/css">
	.st0{fill:#13100D;}
</style>
<path class="st0" d="M48.7,13.8c-1.2-2.4-2.7-4.6-4.6-6.5c-1.7-1.9-3.7-3.6-6-4.8c-2.5-1.2-5.2-1.9-8-2.1c-2.9-0.4-5.8-0.4-8.6-0.2
	C10.3,1.2,1.5,9.9,0.2,21c-0.9,4.8,0.8,9.6,3.3,13.7c1.5,2.4,3.1,4.8,4.8,7c1.5,2.1,3.4,3.9,5.6,5.2c4.5,2.5,9.8,3.6,14.9,2.9
	c5.1-0.6,9.9-2.9,13.4-6.6c3.6-3.8,6-8.4,7.1-13.5C50.6,24.7,51,18.7,48.7,13.8z M46.5,25.8c-0.5,4.5-2.1,8.8-4.6,12.6
	c-2.3,3.3-5.6,5.9-9.5,7.2c-4.4,1.4-9.2,1.3-13.6-0.2c-5.1-1.8-8-6-10.8-10.3c-2.4-3.5-4.5-7.6-4.3-11.8c0-0.1,0.1-0.3,0.1-0.4
	c0-0.3,0-0.6,0.1-0.9C3.8,21.3,4,20.6,4.2,20c0.1-0.4,0.1-0.7,0-1.1c1.7-7.2,7.2-12.9,14.4-14.8c2.3-0.5,4.7-0.7,7-0.6
	c2.5,0,4.9,0.3,7.3,0.8c4.6,1.1,8.1,4.3,10.8,8c1.4,1.9,2.4,4,2.8,6.4C46.9,21,46.8,23.4,46.5,25.8L46.5,25.8z"/>
<path class="st0" d="M29.2,6.3c-4-0.6-8.4,0.1-11.5,3c-3.5,3.4-4.2,8.9-1.5,13c1.7,2.7,6,0.2,4.3-2.5c-1.7-2.5-1-5.8,1.4-7.5
	c0.4-0.3,0.9-0.5,1.5-0.7c1.7-0.5,3.5-0.7,5.2-0.4c1.7,0.3,2.5,1.5,2.9,3.2s0.6,3.4-0.6,4.8c-1.4,1.6-3.4,2.5-4.9,4
	c-3,3-4.6,7.1-4.3,11.3c0,1.4,1.1,2.5,2.5,2.5c1.4,0,2.5-1.1,2.5-2.5c-0.3-3.5,1.2-6.8,4-8.9c1.8-1.2,3.5-2.6,4.8-4.4
	c1.1-1.8,1.5-4,1.1-6.1C36.2,10.8,33.9,7,29.2,6.3z"/>
<path class="st0" d="M27.1,39.8c-0.2-0.4-0.6-0.8-1-1l-0.4-0.2l-0.6-0.3c-0.4-0.1-0.9-0.1-1.3,0c-0.3,0.1-0.5,0.2-0.8,0.3
	c-0.1,0-0.1,0.1-0.2,0.1c-0.2,0.1-0.5,0.3-0.6,0.5c-0.1,0.2-0.3,0.4-0.4,0.6l-0.1,0.1c-0.1,0.2-0.2,0.5-0.3,0.7v0.1
	c0,0.3-0.1,0.5-0.1,0.8v0.1c0,0.3,0.1,0.6,0.1,0.8c0.1,0.2,0.2,0.5,0.3,0.7l0,0c0.1,0.2,0.3,0.4,0.4,0.5c0.2,0.2,0.4,0.4,0.6,0.5
	c0.2,0.1,0.5,0.3,0.8,0.3c0.3,0.1,0.5,0.1,0.8,0.1c0.3,0,0.6,0,0.8-0.1h0.1c0.2-0.1,0.4-0.2,0.7-0.3c0.2-0.1,0.4-0.3,0.6-0.4
	l0.1-0.1c0.2-0.2,0.4-0.4,0.5-0.7c0.1-0.3,0.2-0.5,0.3-0.8c0.1-0.3,0.1-0.6,0.1-0.9C27.5,40.7,27.4,40.2,27.1,39.8z"/>
</svg>
