<?xml version="1.0" encoding="utf-8"?>
<!-- Generator: Adobe Illustrator 25.2.3, SVG Export Plug-In . SVG Version: 6.00 Build 0)  -->
<svg version="1.1" id="Calque_1" xmlns="http://www.w3.org/2000/svg" xmlns:xlink="http://www.w3.org/1999/xlink" x="0px" y="0px"
	 viewBox="0 0 50.3 50" style="enable-background:new 0 0 50.3 50;" xml:space="preserve">
<style type="text/css">
	.st0{fill:#FFFFFF;stroke:#000000;stroke-width:0.5669;stroke-miterlimit:10;}
</style>
<path d="M48.7,13.8c-1.2-2.4-2.7-4.6-4.6-6.5c-1.7-1.9-3.7-3.6-6-4.8c-2.5-1.2-5.2-1.9-8-2.1c-2.9-0.4-5.8-0.4-8.6-0.2
	C10.3,1.2,1.5,9.9,0.2,21c-0.9,4.8,0.8,9.6,3.3,13.8c1.5,2.4,3.1,4.8,4.8,7c1.5,2.1,3.4,3.9,5.6,5.2c4.5,2.5,9.8,3.6,14.9,2.9
	c5.1-0.6,9.9-2.9,13.4-6.6c3.6-3.8,6-8.4,7.1-13.5C50.6,24.6,51,18.7,48.7,13.8z"/>
<g>
	<path class="st0" d="M33.3,35.3c-2,0-4.1-0.1-6.2-0.2c0.2-4.3,0.3-8.6,0.4-12.9c1.6,0.2,3.3,0.3,4.9,0.4c0.1,0,0.1,0,0.1,0
		c1.1,0,2-0.9,2.1-2c0.1-1.2-0.8-2.2-2-2.3c-4.8-0.3-9.7-0.9-14.5-1.5c-1.2-0.2-2.2,0.6-2.4,1.8c-0.2,1.2,0.6,2.2,1.8,2.4
		c1.9,0.3,3.8,0.5,5.6,0.7c0,4.3-0.2,8.7-0.4,13c-1.6-0.1-3.1-0.3-4.7-0.4c-1.2-0.1-2.2,0.7-2.3,1.9c-0.1,1.2,0.7,2.2,1.9,2.3
		c5.1,0.6,10.3,0.9,15.4,1c0,0,0,0,0,0c1.2,0,2.1-0.9,2.1-2.1C35.4,36.3,34.5,35.3,33.3,35.3z"/>
	<path class="st0" d="M24.5,15.8c0.5,0.2,1,0.3,1.5,0.3c0.6,0,1.3-0.2,1.8-0.6c1-0.7,1.4-2,1.2-3.5c-0.2-1.2-0.7-2.1-1.4-2.7
		c-1.3-1.1-3.3-1-4.4,0.3c-0.2,0.3-0.4,0.6-0.5,0.9l-0.3,0.8c-0.2,0.7-0.3,1.7,0.5,3C23.4,15,23.9,15.5,24.5,15.8z"/>
</g>
</svg>
