<svg id="Calque_1" data-name="Calque 1" xmlns="http://www.w3.org/2000/svg" viewBox="0 0 50.34 50.05"><defs><style>.cls-1{fill:#13100d;}</style></defs><path class="cls-1" d="M48.6,13.73A25.73,25.73,0,0,0,44,7.21a21.8,21.8,0,0,0-6-4.78,22.65,22.65,0,0,0-8-2.12,43.7,43.7,0,0,0-8.63-.2A23.65,23.65,0,0,0,.14,21c-.9,4.77.83,9.64,3.3,13.75a75.16,75.16,0,0,0,4.79,7A20.59,20.59,0,0,0,13.83,47a24.16,24.16,0,0,0,14.93,2.9A22.12,22.12,0,0,0,42.2,43.27a28.16,28.16,0,0,0,7.09-13.46C50.46,24.62,50.86,18.67,48.6,13.73Zm-2.18,12A27.18,27.18,0,0,1,41.77,38.3a19.32,19.32,0,0,1-9.49,7.22,21.9,21.9,0,0,1-13.63-.2c-5.09-1.75-8-6-10.84-10.3-2.36-3.53-4.54-7.61-4.35-11.85a1.76,1.76,0,0,0,.06-.4c0-.3,0-.59.08-.89A11.48,11.48,0,0,1,4.06,20a1.52,1.52,0,0,0,0-1.09A20.05,20.05,0,0,1,18.45,4.15a24.93,24.93,0,0,1,7.05-.59,38,38,0,0,1,7.3.77c4.61,1.06,8.08,4.27,10.83,8a14.43,14.43,0,0,1,2.81,6.36A25.79,25.79,0,0,1,46.42,25.71Z" transform="translate(0.1 0.03)"/><path class="cls-1" d="M25.61,1.72a23,23,0,1,0,23,23A23,23,0,0,0,25.61,1.72ZM26.67,41a3.42,3.42,0,0,1-.27.65,2.51,2.51,0,0,1-.4.55l-.06.07a3.19,3.19,0,0,1-.47.35,2.83,2.83,0,0,1-.54.23l-.07,0a2.51,2.51,0,0,1-.67.08,2.83,2.83,0,0,1-.67-.11,2.92,2.92,0,0,1-.6-.28,3.19,3.19,0,0,1-.52-.42,4.87,4.87,0,0,1-.33-.43l0,0a5.66,5.66,0,0,1-.23-.54,2.68,2.68,0,0,1-.11-.66v-.1a4.14,4.14,0,0,1,.09-.6.19.19,0,0,1,0-.08,5.31,5.31,0,0,1,.23-.55.47.47,0,0,1,.06-.09,4.94,4.94,0,0,1,.35-.45,3.3,3.3,0,0,1,.52-.42l.16-.1a2.92,2.92,0,0,1,.65-.24,1.91,1.91,0,0,1,1.06,0l.48.2.29.14a2.28,2.28,0,0,1,.84.85,2.32,2.32,0,0,1,.31,1.21A3.76,3.76,0,0,1,26.67,41ZM34.3,20.6a15.9,15.9,0,0,1-4.22,3.87,8.72,8.72,0,0,0-3.56,7.85,2.21,2.21,0,0,1-2.19,2.19,2.24,2.24,0,0,1-2.19-2.19A12.8,12.8,0,0,1,26,22.24c1.33-1.28,3.1-2.1,4.3-3.52,1-1.18.86-2.75.51-4.18a3.2,3.2,0,0,0-2.57-2.79,9.68,9.68,0,0,0-4.6.31,4.76,4.76,0,0,0-2.55,7.23c1.52,2.39-2.27,4.59-3.78,2.21a9.14,9.14,0,0,1,1.32-11.44C21.28,7.51,25.17,7,28.72,7.44c4.11.56,6.15,4,6.57,7.81A7.91,7.91,0,0,1,34.3,20.6Z" transform="translate(0.1 0.03)"/></svg>