<svg id="Calque_1" data-name="Calque 1" xmlns="http://www.w3.org/2000/svg" xmlns:xlink="http://www.w3.org/1999/xlink" viewBox="0 0 51.03 51.07"><defs><style>.cls-1{fill:url(#Dégradé_sans_nom_35);}.cls-2{fill:#0b0b0b;}</style><linearGradient id="Dégradé_sans_nom_35" x1="1.67" y1="24.35" x2="49.27" y2="24.35" gradientUnits="userSpaceOnUse"><stop offset="0.11" stop-color="#ff7715"/><stop offset="0.12" stop-color="#fe7e19"/><stop offset="0.22" stop-color="#f6ac36"/><stop offset="0.32" stop-color="#f1d04d"/><stop offset="0.41" stop-color="#ecea5d"/><stop offset="0.49" stop-color="#eafa67"/><stop offset="0.55" stop-color="#e9ff6a"/><stop offset="0.59" stop-color="#eaf572"/><stop offset="0.65" stop-color="#edd986"/><stop offset="0.73" stop-color="#f2aca8"/><stop offset="0.83" stop-color="#f96fd6"/><stop offset="0.9" stop-color="#ff3ffa"/><stop offset="1"/></linearGradient></defs><path class="cls-1" d="M8.3,7.69l9.63-5.51L34,1,47.13,8.61l2.14,7.64L48,37.65,37.93,47.74H17.78L3.56,42.39s-2.29-16.82-1.83-18S5.11,10,5.11,10Z" transform="translate(0.01 0)"/><path d="M50.76,14.53C49.39,7.21,45.12-.33,35,0,29.43.2,23.79,1.24,18.31.75c-7.77-.7-14.57,6.62-16,12.07C0,21.59-.29,30.61.17,39.63a6.64,6.64,0,0,0,4,5.63,58.27,58.27,0,0,0,30.42,5.59c5.64-.41,11.25-5,13.34-9.79a33.69,33.69,0,0,0,2.88-16.62C50.85,20.26,51.29,17.32,50.76,14.53Zm-3,9c.07,5.95-2,11.47-4.76,16.82s-8.31,6.27-13.81,6.78c-5.88.54-11.62-.81-17-2.72-4.87-1.72-8-6.21-6.83-10.66s0-8.68.86-12.9C7.46,14.64,9.13,8.74,15.86,4.92c4.09-2.32,8-.35,11.78-1.27C37,2.2,43.55,5.19,47.13,13.36c1.46,3.38.63,6.8.67,10.18Z" transform="translate(0.01 0)"/><path class="cls-2" d="M43.94,15.09a2.09,2.09,0,0,1-2.2,1.81,1.45,1.45,0,0,1-1.63-1.24,1.48,1.48,0,0,1,0-.47,1.87,1.87,0,0,1,2-1.56C43.26,13.74,43.59,14.59,43.94,15.09Z" transform="translate(0.01 0)"/><path d="M22.27,13.62C17.6,13.75,12.1,21,12.08,26.93c-.75,7.84,8.38,11,16,11.89,3.93.47,9.84-5.49,9.85-9.27C38,20.49,31,13.36,22.27,13.62ZM24.59,34.5c-3.54-.14-8.69-4.84-8.52-7.78.18-3.24,3.7-6.93,6.62-6.77,4.22.23,9,4.08,9.22,8.1C32.09,31.36,28.2,34.64,24.59,34.5Z" transform="translate(0.01 0)"/></svg>