<svg xmlns="http://www.w3.org/2000/svg" viewBox="0 0 73.88 77.29"><defs><style>.cls-1{fill:#fff;}</style></defs><g id="Calque_2" data-name="Calque 2"><g id="Calque_1-2" data-name="Calque 1"><path d="M0,11.17V8.23c.21-.35.41-.71.64-1.05a1.67,1.67,0,0,1,2.54-.43C4.48,7.85,5.78,9,7,10.18c1.63,1.68,3.18,3.45,4.72,5.22q1.92,2.22,3.76,4.52c1.54,1.94,3,3.92,4.58,5.85,1,1.24,2.06,2.42,3.09,3.62l.31-.11c0-.37.14-.83,0-1.09-1.39-2.14-2.82-4.27-4.28-6.36-.93-1.33-1.95-2.6-2.92-3.9-1.78-2.4-3.5-4.84-5.36-7.18-2-2.51-4.11-4.9-6.14-7.37A2.28,2.28,0,0,1,5,0H6.83l1,.43a15.3,15.3,0,0,1,1.7.74C12.15,2.76,14.78,4.39,17.43,6a41.78,41.78,0,0,1,7,5.14c1,1,1.85,2.19,2.94,3.08a87.18,87.18,0,0,1,8.49,7.93,1,1,0,0,0,1.5.11c-1.7-2.18-3.31-4.33-5-6.39A38.77,38.77,0,0,0,21,6.05a14.43,14.43,0,0,1-4.56-3.42,1.43,1.43,0,0,1-.32-1A1,1,0,0,1,17.22.78a22.22,22.22,0,0,1,4.19.49,31.74,31.74,0,0,1,5.74,2.31c5,2.65,10.16,5,14.63,8.58,2.56,2.05,5.27,3.9,7.92,5.84.41.31.83.61,1.25.91a1,1,0,0,0-.19-.63,29,29,0,0,0-6.59-6.16c-.31-.24-.65-.44-.37-.84a1.81,1.81,0,0,1,.79-.53c.14-.07.35,0,.53.06a28.43,28.43,0,0,1,8.5,2.81,20.9,20.9,0,0,1,6.62,4.5A54.06,54.06,0,0,0,64.41,22a6.7,6.7,0,0,0,1.38.61,7.44,7.44,0,0,1,1.89,1.08,7,7,0,0,1,1.13,1.92,18.79,18.79,0,0,0,.9,2c.9,1.32,2,2.53,2.87,3.85s1.85,2.9.86,4.73a2,2,0,0,0-.15,1c.36,3.38-1.44,6.29-2,9.47a2.71,2.71,0,0,0,0,1c.24,1.24.58,2.46.8,3.71.37,2.08.74,4.17,1,6.27a21.4,21.4,0,0,1,.09,4.38,17.34,17.34,0,0,1-.94,3.58c-.67,2-1.64,3.82-4,4.3a3.65,3.65,0,0,0-1.09.4,6.13,6.13,0,0,0-1.38,1A3.64,3.64,0,0,1,63,72.83a2.35,2.35,0,0,0-1.81.82,3,3,0,0,1-3.68.68c-.38-.23-.81-.71-1.13-.64s-.63.72-1,.94a29.08,29.08,0,0,1-4.26,2.11,15.41,15.41,0,0,1-5.67.51c-1.81-.06-3.62-.74-5.43,0a1.06,1.06,0,0,1-.47,0,29.9,29.9,0,0,1-3.13-.47A9.57,9.57,0,0,1,34,75.82c-.39-.21-.63-.37-1.08-.18a2.42,2.42,0,0,1-2.64-.33C27.62,73,25,70.55,22.35,68.18a3.81,3.81,0,0,0-1.48-1.06,2.6,2.6,0,0,1-1.69-4,1.49,1.49,0,0,0-.34-2.19,18.12,18.12,0,0,1-1.22-1.41,3.09,3.09,0,0,1-.46-.71,26.55,26.55,0,0,0-1.1-2.43c-1.36-2.32-2.81-4.58-4.18-6.89-1.13-1.91-2.24-3.84-3.28-5.8a51.17,51.17,0,0,1-2.74-5.56,45.54,45.54,0,0,0-2.95-6.48A7.93,7.93,0,0,1,1.8,27c.09-1.38.7-2,2.07-1.93,1.59.08,2.5,1.24,3.43,2.3,1.2,1.34,2.33,2.74,3.49,4.12a1.93,1.93,0,0,0-.34-.94c-1-1.61-2-3.21-2.94-4.83-.72-1.19-1.41-2.41-2.09-3.62C4.61,20.68,3.76,19.26,3,17.79,2,15.61,1,13.38,0,11.17Zm36.33,16,.19-.29a19.56,19.56,0,0,1-1.42-1.6c-.59-.81-1.8-1.26-1.6-2.59,0-.19-.24-.45-.41-.63-.53-.53-1.08-1.05-1.63-1.55l-7.34-6.68c-.91-.84-1.81-1.69-2.76-2.49-1.29-1.08-2.59-2.14-3.93-3.15a27.26,27.26,0,0,0-3-2.06c-1.83-1.07-3.73-2-5.58-3-.8-.45-1.54-1-2.35-1.47-.2-.12-.55,0-.83,0,0,.28,0,.65.15.85,1,1.23,2,2.42,3,3.62,2.5,3,5.15,5.81,7.48,8.9,3,4,5.8,8.23,8.72,12.34.59.83.9,2,2.08,2.29.14.05.22.33.31.51q1.08,2.05,2.14,4.13c.25.47.55.46.91.05-1.05-1.16-.6-2.23.24-3.22-.28-.41-.5-.79-.78-1.13a2.88,2.88,0,0,1-.23-3.54,3.51,3.51,0,0,1,3.35-2,2.34,2.34,0,0,1,2,1.22,12.38,12.38,0,0,0,.82,1.22A1.5,1.5,0,0,0,36.33,27.18ZM25.79,44.45c-.91-2.07-1.84-4-2.61-6a2.47,2.47,0,0,1,.53-3.12.88.88,0,0,0,.1-1.32c-.68-.9-1.36-1.81-2.06-2.71L13.8,21a17.19,17.19,0,0,0-1.53-1.94,58.05,58.05,0,0,1-6.51-7.66A13.21,13.21,0,0,0,3,8.91a1.31,1.31,0,0,0-1.26,0,1.56,1.56,0,0,0-.33,1.22,3.85,3.85,0,0,0,.52,1.44Q5.5,18.13,9.15,24.7c.34.61.75,1.17,1.13,1.76,1.25,2,2.56,3.88,3.74,5.88,1.87,3.14,3.32,6.51,5.67,9.4a3.14,3.14,0,0,0,3.92,1.09.6.6,0,0,1,.84.19C24.86,43.5,25.32,44,25.79,44.45Zm-5.93,7.19c-.27-.15-.65-.34-1-.56a8.63,8.63,0,0,1-3.43-2.8,2.57,2.57,0,0,1,1-3.68A1,1,0,0,0,17,43.42a4.77,4.77,0,0,0-.54-1.27c-.41-.65-.92-1.25-1.36-1.89-1.06-1.53-2-3.12-3.16-4.59s-2.39-2.79-3.6-4.17-2.6-3-3.94-4.46a.69.69,0,0,0-1.28.39,2.91,2.91,0,0,0,.1,1.44c.6,1.48,1.42,2.87,1.92,4.38,1.32,4.06,4,7.41,5.78,11.22a78,78,0,0,0,4.32,7.15c.43.71.85,1.43,1.31,2.11s1,.67,1.57,0S19.26,52.37,19.86,51.64ZM47.38,24.31l.17-.11c0-.07,0-.16,0-.21a20.63,20.63,0,0,1-.93-2,3.16,3.16,0,0,1-.18-1.55,2.68,2.68,0,0,0-.89-2.54c-3.41-2.51-6.76-5.11-10.25-7.49A69.24,69.24,0,0,0,29.2,7.1C27,5.91,24.8,4.71,22.59,3.53a17.71,17.71,0,0,0-2.17-1c-.21-.07-.52.15-.79.24a2,2,0,0,0,.41.56c1.24.83,2.51,1.62,3.76,2.45a26.43,26.43,0,0,1,5.45,4.33c1.23,1.39,2.53,2.72,3.82,4.07,1.64,1.71,3.31,3.4,5,5.11.46.48.88,1,1.36,1.48s1,.54,1.57-.07a2.66,2.66,0,0,1,4.32.47,16.85,16.85,0,0,0,.87,1.56C46.52,23.28,47,23.79,47.38,24.31Zm10.29-2.7a6,6,0,0,0,.61.56,3.75,3.75,0,0,0,1.24.75,1.71,1.71,0,0,0,1.21-.36c.46-.37,0-.68-.25-1a9.17,9.17,0,0,0-.7-.82c-1.87-2.22-3.74-4.43-6.54-5.56a5.89,5.89,0,0,1-1-.62,12.84,12.84,0,0,0-4.14-1.74,27.35,27.35,0,0,0,2.26,2.53,23.93,23.93,0,0,1,2.27,2c1.39,1.71,2.65,3.53,4,5.4Z"/><path class="cls-1" d="M36.33,27.18a1.5,1.5,0,0,1-.47-.25A12.38,12.38,0,0,1,35,25.71a2.34,2.34,0,0,0-2-1.22,3.51,3.51,0,0,0-3.35,2A2.88,2.88,0,0,0,30,30c.28.34.5.72.78,1.13-.84,1-1.29,2.06-.24,3.22-.36.41-.66.42-.91-.05q-1.07-2.07-2.14-4.13c-.09-.18-.17-.46-.31-.51-1.18-.33-1.49-1.46-2.08-2.29C22.14,23.26,19.37,19,16.34,15c-2.33-3.09-5-5.94-7.48-8.9-1-1.2-2-2.39-3-3.62-.16-.2-.11-.57-.15-.85.28,0,.63-.16.83,0,.81.45,1.55,1,2.35,1.47,1.85,1,3.75,2,5.58,3.05a27.26,27.26,0,0,1,3,2.06c1.34,1,2.64,2.07,3.93,3.15.95.8,1.85,1.65,2.76,2.49l7.34,6.68c.55.5,1.1,1,1.63,1.55.17.18.44.44.41.63-.2,1.33,1,1.78,1.6,2.59a19.56,19.56,0,0,0,1.42,1.6Z"/><path class="cls-1" d="M25.79,44.45c-.47-.5-.93-1-1.34-1.43a.6.6,0,0,0-.84-.19,3.14,3.14,0,0,1-3.92-1.09c-2.35-2.89-3.8-6.26-5.67-9.4-1.18-2-2.49-3.92-3.74-5.88-.38-.59-.79-1.15-1.13-1.76Q5.5,18.13,1.88,11.55a3.85,3.85,0,0,1-.52-1.44,1.56,1.56,0,0,1,.33-1.22A1.31,1.31,0,0,1,3,8.91a13.21,13.21,0,0,1,2.81,2.5,58.05,58.05,0,0,0,6.51,7.66A17.19,17.19,0,0,1,13.8,21l8,10.3c.7.9,1.38,1.81,2.06,2.71a.88.88,0,0,1-.1,1.32,2.47,2.47,0,0,0-.53,3.12C24,40.45,24.88,42.38,25.79,44.45Z"/><path class="cls-1" d="M19.86,51.64c-.6.73-1.18,1.41-1.74,2.1s-1.09.68-1.57,0-.88-1.4-1.31-2.11a78,78,0,0,1-4.32-7.15c-1.8-3.81-4.46-7.16-5.78-11.22-.5-1.51-1.32-2.9-1.92-4.38a2.91,2.91,0,0,1-.1-1.44A.69.69,0,0,1,4.4,27C5.74,28.51,7,30,8.34,31.5s2.48,2.72,3.6,4.17,2.1,3.06,3.16,4.59c.44.64,1,1.24,1.36,1.89A4.77,4.77,0,0,1,17,43.42a1,1,0,0,1-.62,1.18,2.57,2.57,0,0,0-1,3.68,8.63,8.63,0,0,0,3.43,2.8C19.21,51.3,19.59,51.49,19.86,51.64Z"/><path class="cls-1" d="M47.38,24.31c-.41-.52-.86-1-1.23-1.58a16.85,16.85,0,0,1-.87-1.56A2.66,2.66,0,0,0,41,20.7c-.53.61-1,.65-1.57.07s-.9-1-1.36-1.48c-1.65-1.71-3.32-3.4-5-5.11-1.29-1.35-2.59-2.68-3.82-4.07A26.43,26.43,0,0,0,23.8,5.78C22.55,5,21.28,4.16,20,3.33a2,2,0,0,1-.41-.56c.27-.09.58-.31.79-.24a17.71,17.71,0,0,1,2.17,1C24.8,4.71,27,5.91,29.2,7.1a69.24,69.24,0,0,1,6.11,3.35c3.49,2.38,6.84,5,10.25,7.49a2.68,2.68,0,0,1,.89,2.54A3.16,3.16,0,0,0,46.63,22a20.63,20.63,0,0,0,.93,2c0,.05,0,.14,0,.21Z"/><path class="cls-1" d="M57.67,21.61l-1,1.15c-1.38-1.87-2.64-3.69-4-5.4a23.93,23.93,0,0,0-2.27-2,27.35,27.35,0,0,1-2.26-2.53,12.84,12.84,0,0,1,4.14,1.74,5.89,5.89,0,0,0,1,.62c2.8,1.13,4.67,3.34,6.54,5.56a9.17,9.17,0,0,1,.7.82c.2.28.71.59.25,1a1.71,1.71,0,0,1-1.21.36,3.75,3.75,0,0,1-1.24-.75A6,6,0,0,1,57.67,21.61Z"/></g></g></svg>