<svg xmlns="http://www.w3.org/2000/svg" viewBox="0 0 163.36 275.84"><defs><style>.cls-1{fill:#95c11f;}</style></defs><g id="Calque_2" data-name="Calque 2"><g id="Calque_2-2" data-name="Calque 2"><path class="cls-1" d="M28.67,90.66c0,.53,0,.78.09,1.29V94c0,.24-.06.36-.11.6l-.25.51c-.19.19-.29.28-.48.48L27,96.1l-1.37.47-.73.35c-1.18.69-1.78,1-3,1.81-2.08,1.42-3.12,2.17-5.16,3.75-.82.53-1.22.81-2,1.38-.39.31-.58.46-1,.78l-.42.47-.13.42c0,.23,0,.34,0,.58.18,1.42.26,2,.48,4.63,0,.31.07.47.12.82,0,.18.05.27.09.47l.26.23.57,0,1.19-.52,1.52-1,.71-.41c1.09-.39,1.62-.58,2.69-.94,1.35-.55,2-.81,3.32-1.31l.64-.35,1.61-.9,1-.35.48,0,.27.47.2.84c.05.55.08.83.13,1.41,0,.39,0,.59.07,1,0,.77.07,1.17.11,2,0,1.69.12,2.66.05,4.59,0,1,0,1.43-.06,2.34,0,1.39,0,2.06-.09,3.36-.06.85-.09,1.27-.16,2.08s-.1,1.29-.18,2.12c-.08.63-.12.94-.2,1.55-.09.41-.13.62-.22,1l-.25.55-.53.51-1,.31-1.51-.11-.68.1-2.63,1.1-.71.24-4.84,1.4-.71.34-.67.45-.52.5-.28.74c-.08.59-.13.87-.22,1.44-.41,2.49-.63,3.63-1.09,5.89-.12.64-.18,1-.31,1.58-.51,2.22-.77,3.3-1.26,5.58l-.3,1.64c-.14.91-.21,1.38-.34,2.33-.13.71-.19,1.06-.31,1.79s-.19,1.17-.31,2c-.09.58-.13.87-.22,1.47-.09.3-.13.46-.22.77l-.31.43-.53.34-.8.38-.73.24-1.63.1-.7.09c-.72.24-1.08.36-1.78.57-.49-.05-.74-.08-1.22-.15l-.42-.22c-.09-.19-.13-.28-.21-.47,0-.34,0-.51,0-.84,0-.52,0-.78.07-1.28.17-2.41.29-3.49.53-5.55.07-.62.11-.93.19-1.53.29-2,.45-2.93.76-4.83l.3-1.46c.4-1.93.6-2.91,1-5,.11-.64.16-1,.27-1.63.21-2.18.3-3.34.41-5.95,0-.79.08-1.2.12-2,.07-2.84,0-4.78,0-7.8v-2.07c.06-2.54.1-3.41.2-4.73a8.4,8.4,0,0,1,.32-2.79c.13-.3.19-.35.31-.61s.23-.49.33-2.19c.09-1.1.12-1.84.16-4.06,0-.51,0-.78,0-1.37,0-.38,0-.58,0-1s.08-.47.14-.78.13-.55.22-.91c.21-.57.32-.86.55-1.41a20.56,20.56,0,0,1,1.08-2c.19-.38.29-.57.49-1,.74-1.56,1.15-2.32,2-3.8l.6-.88A34.44,34.44,0,0,1,13,91.25l.68-.8c1-1.34,1.53-2,2.6-3.25l.73-.88c1.11-.88,1.68-1.31,2.83-2.11l.77-.66c1.14-1.14,1.72-1.69,2.87-2.75l.79-.59c.5-.31.74-.46,1.24-.75l.79-.41.84-.29.53-.22.31.23c.08.29.13.44.21.72,0,.59.06.88.09,1.44s.05.68.09,1.12c0,.74,0,1.1.05,1.79,0,1.4,0,2,0,3.25,0,.63,0,.94.06,1.52C28.57,89.47,28.6,89.88,28.67,90.66Z"/><path class="cls-1" d="M60.2,84.48c0,.85-.05,1.28-.08,2.19,0,1.32-.06,2.08-.09,3.58,0,1,0,1.48-.06,2.45-.09,2-.13,3-.22,4.93,0,1.44,0,2.16-.09,3.58,0,.94-.06,1.4-.09,2.33s-.08,1.51-.13,2.52-.1,1.43-.17,2.38c-.15,1.42-.23,2.13-.39,3.53-.1.93-.16,1.4-.27,2.34-.42,3.08-.63,4.6-1.06,7.62-.14.9-.21,1.34-.36,2.23s-.23,1.36-.39,2.26-.23,1.19-.39,2l-.62,3.07c-.17.74-.25,1.12-.42,1.86l-.5,1.94c-.18.71-.28,1.06-.46,1.76l-.68,2.42-.5,1.65c-.22.69-.34,1-.56,1.72l-.53,1.4-.75,1.91-.55,1.14-1.2,2.6c-.25.53-.38.79-.63,1.31l-.59,1.13c-.26.46-.38.68-.63,1.14l-.63,1c-.25.28-.37.41-.62.67a23,23,0,0,1-2,1.51,11.72,11.72,0,0,1-1.24.52,9.68,9.68,0,0,1-1.19.09l-.5-.18-.53-.33a24.31,24.31,0,0,1-1.9-1.9l-.56-.59-.58-.89c-.44-.72-.66-1.07-1.11-1.74-.2-.39-.31-.58-.51-1l-.52-1.05-.43-1.14-.42-1.23c-.14-.58-.22-.86-.36-1.43s-.19-.85-.31-1.4l-.81-2.82c-.11-.5-.17-.75-.28-1.24s-.15-.81-.26-1.34-.11-.81-.18-1.36c0-.84-.06-1.27-.1-2.13,0-1.94-.06-2.92-.13-5,0-1,0-1.47,0-2.49v-3.92c0-.79,0-1.2,0-2,0-1.22,0-1.85,0-3.15,0-.89,0-1.35,0-2.28s0-1.64,0-2.68,0-1.55,0-2.51v-2.31c0-.94,0-1.39,0-2.25s0-1.22,0-2,.05-1.13.09-1.85.08-1.07.13-1.74.11-1,.18-1.67.11-.87.19-1.43.13-.9.22-1.49c.11-.83.16-1.25.26-2.07.11-.59.17-.89.27-1.48.07-.33.1-.5.16-.83.13-.58.19-.86.31-1.45.23-.87.34-1.31.56-2.23.16-.59.24-.89.39-1.5l.2-.88c.19-.56.28-.85.47-1.44s.4-1.07.66-1.81c.2-.54.3-.81.5-1.37l.48-1.29c.44-1.17.66-1.78,1.08-3,.18-.5.27-.76.44-1.27s.29-.79.47-1.33.27-.73.44-1.22c.26-.65.49-1,.82-1.73.23-.41.34-.62.56-1L42,69.64l.59-1c.59-.83.89-1.25,1.47-2.1l.58-.89c.76-.93,1.14-1.41,1.89-2.38L47.74,62l1.1-.58.87-.57.61-.21.61-.06.6.07.6-.1.55.07.52.08.51.2c.29.16.43.23.71.36s.28.19.47.3A10.06,10.06,0,0,0,56,62.74c.17.23.25.34.42.55s.24.38.4.61c.21.43.32.62.52,1l.34.54L58,66c.1.29.15.43.26.71.16.43.23.64.39,1s.13.44.22.72.11.45.18.73.13.4.22.66c.11.43.17.63.28,1.05.09.25.13.38.21.63s.11.5.17.84.07.52.12.88c0,.64,0,1,.07,1.66,0,.91.06,1.38.09,2.4,0,.6,0,.91,0,1.56s0,1,0,1.65C60.22,82,60.21,82.77,60.2,84.48ZM52,116.9c.15-.94.22-1.42.36-2.38.17-1.42.25-2.15.41-3.61.1-1,.14-1.48.24-2.48.09-1.44.13-2.18.21-3.67,0-.94,0-1.42.08-2.38,0-1.52.05-2.33.1-3.8,0-1,0-1.5,0-2.44s0-1.36,0-2.22V92c0-1.32-.07-1.94-.11-3.11,0-.53-.06-.78-.1-1.28-.12-.69-.18-1-.3-1.67l-.23-.87-.42-1-.31-.56c-.19-.32-.28-.49-.47-.82l-.35-.36a8.38,8.38,0,0,1-.86-.33h-.47l-.55.14-.55.32c-.45.4-.68.59-1.13,1L47,84l-.79.83-.54.78c-.38.6-.57.9-1,1.48-.23.43-.35.64-.59,1.06-.33.73-.5,1.1-.84,1.81-.21.5-.31.75-.52,1.24-.23.71-.35,1.06-.58,1.76s-.24.87-.41,1.44l-.4,1.75c-.11.59-.17.89-.29,1.49l-.1.68c-.13.95-.2,1.44-.33,2.42-.07.7-.1,1.05-.17,1.77,0,.33-.07.5-.11.84l-.1,1.72c0,.7,0,1-.07,1.78s0,1.1,0,1.86,0,1.23,0,2.09V113c0,1,0,1.49,0,2.48s.06,1.47.09,2.41c0,.53,0,.79,0,1.31,0,.86.06,1.28.1,2.11,0,.38,0,.57,0,1,0,.75.07,1.12.12,1.84l.1,1c.08.7.12,1,.2,1.71,0,.39.07.58.12,1,.12.65.18,1,.3,1.59.06.31.09.46.16.76.13.51.2.76.33,1.25.23.68.34,1,.57,1.64.16.32.25.47.42.77s.29.35.49.57l.48.32a6.13,6.13,0,0,0,.68.24l.5-.09a8.73,8.73,0,0,0,.85-.45c.23-.18.35-.27.58-.47.36-.45.53-.68.89-1.17s.34-.51.56-.87c.32-.6.48-.9.8-1.52l.52-1.35c.34-1.08.51-1.63.84-2.75.19-.68.28-1,.46-1.71.26-1.13.38-1.7.63-2.85l.4-2C51.66,118.6,51.76,118,52,116.9Z"/><path class="cls-1" d="M90.65,128.36l-.55.77-3.11,1-2.46.67-.71.24-2,.95-.57.18-.4-.49c-.15-.44-.22-.67-.37-1.11-.61-2.57-.91-3.85-1.51-6.43-.17-.68-.26-1-.42-1.71-.6-2.46-.9-3.7-1.47-6.2l-.4-1.74c-.51-2.71-.76-4.07-1.24-6.83-.15-.71-.23-1.07-.38-1.79-.53-2.59-.79-3.89-1.29-6.53-.1-.5-.16-.74-.27-1.23l-.22-.46-.45-.15-1.18-.29-.47.16-.3.94-.1,2,0,8.6c0,1,0,1.5,0,2.49.07,3.5.11,5.25.18,8.74l0,2.5c0,1.5,0,2.25,0,3.75,0,1,0,1.5,0,2.5s0,1.51,0,2.52c0,.76,0,1.13-.08,1.89-.07.32-.11.49-.19.81l-.42.51-.61,0c-.73-.14-1.07-.28-1.78-.4a9,9,0,0,0-1.69.82c-.23.07-.35.11-.58.2a8.27,8.27,0,0,0-1.68.31l-.44-.06c-.08-.2-.13-.29-.22-.49,0-.6,0-.9-.06-1.5,0-.86,0-1.29,0-2.14s0-1.37,0-2.28l.1-4,0-2.46.2-8.31c0-1,0-1.45,0-2.42l0-8.12c0-1,0-1.45,0-2.42V90.8c0-3.43,0-5.44.11-8.5,0-.89,0-1.32,0-2.14,0-2.74,0-3.89,0-6,0-.63,0-.94,0-1.52.11-2,.17-2.91.29-4.59,0-.49,0-.73.06-1.2.1-1.59.16-2.33.26-3.89,0-.46,0-.69.06-1.17.07-1.59.1-2.4.16-4.27,0-.56,0-.84,0-1.44,0-1.2,0-1.84,0-3.25,0-.67,0-1,.07-1.73,0-.29,0-.44.05-.75,0-.67.07-1,.13-1.73.08-.5.12-.75.2-1.27l.4-.84.25-.42.48-.68,1.43-1.34a15.59,15.59,0,0,0,3.21-3.61,28.27,28.27,0,0,0,1.29-3.64l.28-.82c.47-1.15.69-1.78,1.15-3.12.26-.9.39-1.37.65-2.32l.3-.92.3-.51.46-.45.36-.21.38-.05.41-.12.43.13c.17.16.25.25.42.43s.39.51.66.87l.42.78c.17.41.26.61.43,1s.28.83.48,1.39c.29,1,.43,1.52.74,2.57l.49,1.73c.28,1.06.42,1.6.7,2.69.19.84.28,1.27.48,2.13s.29,1.39.49,2.34.28,1.58.46,2.64l.4,2.73c.13,1.12.2,1.68.33,2.8.19,1.53.29,2.3.48,3.84l.3,2.82c.1,1.13.16,1.7.26,2.82l.25,3c.08,1.19.13,1.79.21,3s.09,1.66.16,2.76,0,1.55.06,2.57,0,1.53,0,2.54,0,1.51-.06,2.51,0,1.29-.09,2.14a12.78,12.78,0,0,1-.27,1.9c-.13.69-.19,1-.32,1.71l-.55,2.45L83.48,88l-.7,1.68c-.17.43-.26.64-.42,1.07s-.28.64-.46,1.07l-.48.47-.29.47c.07.47.11.71.18,1.18.63,3,1,4.48,1.67,7.36.17.67.26,1,.44,1.67.71,2.73,1.09,4.07,1.85,6.7.21.64.31,1,.52,1.59.78,2.67,1.18,4,2,6.6.22.63.33.94.54,1.56.67,1.86,1,2.79,1.67,4.66l.48,1.44.3,1.5C90.72,127.54,90.7,127.81,90.65,128.36ZM76.18,74c.28-.25.43-.37.71-.63s.24-.45.39-.75.2-.62.34-1l.2-1.73c0-.86,0-1.28.07-2.13l0-2.23-.15-2.18c-.09-.9-.13-1.35-.22-2.24s-.14-1.32-.24-2.19-.16-1.12-.27-1.85-.21-1-.35-1.72c-.15-.5-.22-.75-.36-1.23l-.38-.76-.41-.25-.6.17-.41.32c-.51.64-.76.94-1.27,1.52l-.41.48a16.37,16.37,0,0,1-1.33,1.66c-.13.16-.2.23-.33.38s-.11.25-.19.41l-.17.65c0,.38,0,.57,0,.94,0,.77,0,1.16,0,1.94,0,.53,0,.8,0,1.36s0,.88,0,1.49,0,.93,0,1.57c0,2.1,0,3.2-.06,5.72,0,.51,0,.76,0,1.29,0,.29,0,.43.08.73l.24.36.42.24,1.81.44.55,0C74.84,74.48,75.29,74.34,76.18,74Z"/><path class="cls-1" d="M113.69,115.35c.14.7.2,1.05.34,1.77.44,2.42.66,3.67,1.07,6.36.07.49.11.74.18,1.25,0,.35,0,.53,0,.89,0,.2,0,.3-.08.5-1.62,0-2.44,0-4.13.06l-.53-.05c-.71-.27-1.07-.41-1.8-.67l-.52.12c-.68.19-1,.29-1.72.51l-.54.13a24.06,24.06,0,0,0-2.5.09c-.81-.16-1.22-.22-2.07-.32l-.63.1c-1.37.52-2.07.82-3.51,1.47l-1.46.1-.53-.14c-.14-.25-.21-.37-.34-.62s-.12-.58-.19-1c-.08-.61-.11-.92-.19-1.52-.12-1.27-.19-1.89-.33-3.14-.09-.86-.13-1.29-.23-2.15s-.08-1.21-.14-2l-.2-2c-.22-2.81-.35-4.19-.59-7-.09-.83-.14-1.25-.23-2.08-.28-2.76-.43-4.15-.68-7-.1-.85-.15-1.28-.24-2.14-.29-2.86-.43-4.32-.63-7.34-.07-.91-.1-1.37-.15-2.31-.1-3.14.07-4.62-.3-8.35-.63-5.88-1-9.09-1.58-15.7-.34-4.14-.51-6.27-.85-10.59-.13-1.28-.2-1.93-.34-3.22-.45-4.29-.67-6.45-1.12-10.73l-.35-3.21c-.18-1.95-.27-2.92-.45-4.84-.19-2.44-.29-3.65-.48-6.05-.12-1.18-.17-1.77-.29-2.93-.34-4.1-.5-6.11-.84-10-.08-1-.13-1.56-.21-2.58,0-.63,0-.95,0-1.57l.15-1,.35-.58c.23-.4.34-.6.58-1A15.11,15.11,0,0,1,88.93,3,17,17,0,0,1,92.82.83C93.27.66,93.5.58,94,.44A21.75,21.75,0,0,1,98.68.2,10.29,10.29,0,0,1,100,.13a11.07,11.07,0,0,1,4.44.2,10.27,10.27,0,0,1,1.07.48c3.58,2,5,3.73,7.48,8,.32.45.47.68.78,1.15a24.21,24.21,0,0,1,1.45,2.33c.4.88.59,1.33,1,2.26.19.73.28,1.1.46,1.85,0,.58.08.87.13,1.45l-.05,1.42c-.06,1-.09,1.49-.16,2.48-.19,1.91-.28,2.86-.49,4.77-.21,1.7-.32,2.55-.54,4.26-.13,1.21-.2,1.82-.34,3-.18,1.81-.28,2.72-.47,4.53-.11,1.1-.17,1.65-.28,2.75l-.35,2.61c-.12.8-.18,1.21-.31,2-.11.4-.16.6-.27,1-.1.16-.15.25-.24.42-.17-.15-.25-.22-.42-.35s-.16-.28-.26-.46-.32-.44-.55-.72a23,23,0,0,0-3.45-5c-.27-.27-.4-.39-.67-.64a9.2,9.2,0,0,0-2.32-1.22,8.14,8.14,0,0,0-.77-.41A10.9,10.9,0,0,0,102.14,37a9,9,0,0,0-2.63-.89l-1,.06-.49.29-.59.54c-.11.48-.16.73-.27,1.21s0,.85,0,1.42c0,1,0,1.56,0,2.6,0,2.25,0,3.38.07,5.61,0,1.48.07,2.22.11,3.69s.11,2.33.18,3.87c0,1,.07,1.48.12,2.46l.15,1.55c.09.44.13.66.22,1.1l.56.68a10,10,0,0,0,1.57.48,13.19,13.19,0,0,1,1.47-.53,8.34,8.34,0,0,1,3.88.75,7.86,7.86,0,0,1,3.89,1.34c.37.52.55.79.9,1.34l.29.72c0,.45,0,.67.07,1.12s0,.71,0,1.19c-.08.81-.11,1.22-.18,2-.11,1.26-.16,1.88-.26,3.13s-.17,1.85-.27,3.08c-.23,2.36-.35,3.54-.56,5.87a37.15,37.15,0,0,0-.19,4c0,1.85,0,2.73,0,4.43,0,.67,0,1,0,1.64l0,.89c-.06.22-.09.33-.14.54l-.25.09-.55-.34c-.51-.58-.76-.86-1.29-1.41-.18-.16-.27-.23-.46-.38a11.79,11.79,0,0,0-2.34-.3,11.24,11.24,0,0,0-2.08-.77l-.54-.08a12.7,12.7,0,0,0-1.43-.51l-.6.12-.43.13-.15.42c0,.38,0,.58,0,1,.05.82.07,1.23.13,2,.08,1.34.13,2,.23,3.29.08.83.12,1.24.21,2.06.14,1.12.21,1.67.36,2.78.08.5.13.75.21,1.24l.23.87c.09.2.14.29.22.49l.43.12a16.68,16.68,0,0,1,2,.28l.54,0a14.29,14.29,0,0,1,1.66-.22,21.67,21.67,0,0,1,2.24,1l.47.16a15.72,15.72,0,0,1,2,.33l.42.18.44.31,1.07.92.22.41c.1.28.14.42.24.7.1.49.15.73.26,1.21C112.89,111.73,113.16,112.91,113.69,115.35Z"/><path class="cls-1" d="M134.45,104.74c.09.59.14.87.25,1.43s.14.84.24,1.37.12.77.21,1.27c.1.7.16,1,.28,1.73,0,.46.07.69.12,1.15,0,.69.08,1,.14,1.73,0,.47,0,.71.07,1.2,0,.7,0,1,0,1.79,0,.51,0,.77,0,1.3s-.07.84-.11,1.42-.07.8-.12,1.35c-.14.73-.21,1.09-.34,1.82-.08.49-.12.74-.19,1.23l-.3,1.19c-.11.42-.17.63-.28,1s-.34.78-.57,1.27-.45.9-.75,1.45l-.47.4-.72.5-.45.24-.68.24-.45.11-.75.11-1.51.3-.74,0-.5-.16-.83-.31-.56-.3-.65-.43-.64-.68-.91-.94c-.27-.37-.4-.55-.65-.91l-.68-.9-.63-.89-.63-1c-.63-1.07-.95-1.6-1.56-2.65l-.63-1.17c-.36-.66-.53-1-.89-1.64l-.6-1.16-.59-1.26-.45-1-.2-.73c0-.35,0-.53-.08-.87v-.47c0-.4,0-.6,0-1,.06-.91.09-1.36.16-2.25,0-.39,0-.59,0-1,0-1-.06-1.42-.09-2.39,0-.4,0-.6,0-1s0-.6.06-1c.07-.18.11-.28.19-.46l.32.4.45,1c.51,1.12.77,1.66,1.31,2.7.23.4.35.6.59,1l.55.85c.36.53.55.79.92,1.29l.55.62.59.61.55.42c.29.12.43.18.72.28l.51.22c.72,0,1.09.06,1.86,0l.46-.11a1.53,1.53,0,0,0,.21-.14l.34-.46c.1-.25.14-.38.24-.65l.1-.84c0-.24,0-.36,0-.61-.05-.52-.08-.79-.11-1.34s-.23-.94-.36-1.6c-.09-.31-.13-.46-.21-.78-.21-.56-.31-.85-.51-1.45-.1-.25-.15-.38-.26-.64-.24-.44-.35-.67-.58-1.13l-.31-.37c-.24-.3-.35-.45-.58-.76s-.37-.34-.61-.57l-.58-.48a17.17,17.17,0,0,1-3-2.16c-.37-.47-.55-.71-.91-1.21-.2-.31-.29-.46-.48-.78-.28-.56-.41-.85-.67-1.44-.18-.38-.27-.57-.44-1s-.27-.75-.44-1.27c-.4-1.22-.59-1.86-1-3.18-.14-.65-.19-1-.28-1.69s-.16-1.06-.26-1.77l-.2-1.71c-.08-1-.12-1.56-.19-2.6s0-1.34,0-2.23l.05-2.53.15-2.43c.1-1.34.16-2,.27-3.35.09-.93.14-1.39.25-2.32.16-1.33.24-2,.41-3.32.27-1.88.41-2.82.68-4.69l.4-2.22c.25-1.32.37-2,.61-3.27.17-.77.26-1.15.43-1.9l.4-1.53c.19-.69.28-1,.47-1.7.3-.9.45-1.34.74-2.22l.48-1.32.45-.92.46-.57.67-.5.48-.08.45.07c.17.19.26.28.42.47l.58.41.78,1.38.37.81c.2.7.3,1,.5,1.71.14.46.21.68.34,1.12.26.93.38,1.38.64,2.24.19.57.28.84.47,1.37s.2.65.34,1.06.19.66.32,1.08.2.77.34,1.26c.26,1.1.39,1.63.67,2.63.13.53.2.79.34,1.29.07.3.1.45.17.74.15.51.23.76.39,1.24.34,1.12.63,1.83.89,2.57.13.42.19.63.33,1s.2.63.34,1,.23.57.39.91.23.56.39.9.22.55.38.88.24.42.4.67a8.07,8.07,0,0,0,.52,1,5.64,5.64,0,0,0,.4.53c.15.25.22.37.37.59s.15.33.25.53-.05.38-.08.61-.18.4-.3.65a7,7,0,0,1-.58,1,5.37,5.37,0,0,1-.41.51,8.2,8.2,0,0,1-2,1.6l-.58.36a5.62,5.62,0,0,1-.56.25l-.31.07-.21-.05a2.15,2.15,0,0,1-.24-.18,3.72,3.72,0,0,1-.3-.37,2.67,2.67,0,0,1-.33-.34l-.14-.19a5.37,5.37,0,0,1-.36-.51L127,78c-.17-.26-.26-.4-.43-.7s-.35-.62-.57-1.08c-.17-.28-.26-.43-.42-.73-.27-.5-.4-.77-.66-1.33s-.41-.79-.67-1.36c-.18-.34-.27-.52-.45-.88s-.29-.46-.48-.78l-.5-.58-.21-.14a3.85,3.85,0,0,0-.48,0l-.25.18c-.2.28-.29.43-.48.74-.16.48-.25.72-.41,1.21s-.12.74-.21,1.23,0,.87-.08,1.44,0,.78.07,1.28.1.56.18.93c0,.2.07.29.12.48s.2.45.33.73.36.59.61.95a11.18,11.18,0,0,0,.91,1l.44.56a8.9,8.9,0,0,0,.9,1.07,8.15,8.15,0,0,0,.88,1c.27.19.41.28.7.46l.47.32a8.84,8.84,0,0,0,.9.68l.68.58.51.46.51.55.5.6c.45.78.69,1.21,1.19,2.18.2.51.29.78.5,1.35s.28.86.48,1.56c.24,1.06.36,1.57.62,2.52.17.7.26,1,.45,1.66s.26,1.12.44,1.8.19,1.05.33,1.7c.17,1,.26,1.41.45,2.26.12.59.18.87.31,1.41S134.31,104.16,134.45,104.74Z"/><path class="cls-1" d="M163.29,56.09c0,.38,0,.55,0,.87,0,.64,0,.91,0,1.38,0,.26,0,.37,0,.59s0,.17,0,.27-.05.23-.08.38a2.26,2.26,0,0,1-.11.22l-.22.16-.46.1-.61.1a8.6,8.6,0,0,0-1.19.23l-.66.2a17.08,17.08,0,0,0-1.95.93l-.7.37c-.44.21-.66.33-1.1.57l-.68.41-.32.22-.46.37-.19.28c0,.14,0,.21-.07.36a19.81,19.81,0,0,0-.28,2c0,.27,0,.42,0,.74.06,1.17.09,1.91.18,4.18,0,.62,0,1,0,1.69,0,2.73-.05,5.2-.12,8.29,0,.83,0,1.21,0,1.91.06,2.54.1,3.36.21,4.6a8.14,8.14,0,0,0,.42,2.84c.11.46.17.63.31,1.31.06.14.09.22.15.39a7.86,7.86,0,0,1,.55,1.79c.07.36.1.56.17,1s0,.65,0,1.13c0,.29-.08.44-.13.74s-.27.57-.44,1l-.68,1.07-.93,1.29c-.24.4-.37.59-.62,1-.63,1.27-.94,1.92-1.57,3.23l-.58,1.07-1.68,2.69-.46.69-.28.1c-.11-.38-.17-.56-.29-.91-.13-.61-.2-.9-.33-1.43-.27-1.39-.41-2-.65-3l-.24-.92c-.51-1.51-.75-2-1.15-3.37a20.09,20.09,0,0,1-.66-3.24c-.07-.42-.1-.64-.15-1.11-.19-1.76-.26-2.81-.35-5.66,0-.77,0-1.17-.06-2-.15-3.21-.24-5.53-.36-8,0-.67,0-1-.07-1.55a40.11,40.11,0,0,1,.14-4.66,12.17,12.17,0,0,1,.15-1.56l.07-.3-.11-.06c-.18.14-.28.2-.46.33l-.71.56-1.51,1.19-.83.63-1.23.87-.76.53-.77.54-1,.69-.65.41-.34.18-.45.24-.21.06-.11,0c0-.07,0-.1,0-.18s0-.1.06-.17a3.16,3.16,0,0,0,.11-.42,8.53,8.53,0,0,0,.32-1.15c0-.26.06-.4.1-.72,0-.78.06-1.25.06-2.48,0-.54,0-.83.08-1.46s.07-.82.12-1.42c.06-.35.09-.52.14-.89l.23-.49c.15-.19.22-.29.38-.48l.9-.59c.59-.26.89-.4,1.51-.73.26-.2.4-.3.67-.52,1-1,1.48-1.48,2.5-2.57l.71-.61c1.05-.67,1.59-1,2.68-1.76l.73-.66,3.41-3.66c1.08-.88,1.62-1.32,2.68-2.13l.73-.58A38.19,38.19,0,0,1,156.93,51a17,17,0,0,1,3.14-1.68,12.72,12.72,0,0,1,1.32-.74c.27,0,.4,0,.66,0l.31.09a4.54,4.54,0,0,1,.45.21l.26.5c.07.36.11.53.18.86,0,.58.05.85.07,1.37v.73c0,.61,0,.89,0,1.41C163.33,54.83,163.32,55.29,163.29,56.09Z"/><path class="cls-1" d="M33.22,186c0,.77,0,1.19.06,2.1-.06,3.52-.09,5.91-.36,10.27-.28,6.27-.57,9.63-1.18,16.42-.31,3-.47,4.59-.81,7.67-.41,4.31-.63,6.48-1,10.76-.09.81-.13,1.21-.22,2l-.43,2-.55,2.54c-.24,1-.36,1.55-.59,2.58l-1,3.52-.68,2.31c-.14.5-.2.75-.34,1.25l-.7,2c-.14.38-.22.57-.36.95-.28.74-.41,1.11-.69,1.85l-1,2.48c-.3.65-.45,1-.76,1.63l-.7,1.43c-.47.86-.7,1.3-1.16,2.17-.3.54-.46.8-.76,1.34l-.8,1.24-.75,1.19c-.47.63-.7.95-1.16,1.59l-.7,1c-.31.48-.46.73-.76,1.21l-2,2.77-.76.89c-.62.49-.93.73-1.55,1.19l-1.14.78-.79.43-.78.24H8a12.81,12.81,0,0,1-1.65-.19l-.7-.08L5,275.28c-.35-.19-.53-.29-.88-.51s-.33-.48-.54-.82c-.33-.53-.49-.81-.8-1.39s-.27-.79-.44-1.34-.28-.81-.46-1.37-.23-1-.38-1.65-.24-.9-.38-1.51S.9,265.62.78,264.9c-.16-1.18-.24-1.78-.38-3-.08-.93-.12-1.41-.19-2.36-.06-1.21-.09-1.82-.14-3s0-1.74-.07-2.92c0-3.8,0-5.75,0-9.66,0-1.39.06-2.09.09-3.48s0-2,.07-3.27l.15-3.47c.07-1.47.1-2.2.16-3.65s.13-2,.2-3.38.12-2.13.19-3.52.11-1.95.17-3.22c.07-1.74.1-2.6.14-4.27,0-1.21.06-1.8.08-3s.06-1.62.08-2.66,0-1.55.06-2.54c.09-3,.08-4.31.09-6.59,0-.4,0-.6.05-1,0-.82,0-1.2.07-1.93s0-1.07.08-1.72.07-.9.12-1.45.06-.86.1-1.39.06-.73.1-1.18.06-.63.1-1,.1-.62.17-1,.1-.62.16-1,.11-.49.19-.81.23-.63.39-1l.29-.7.36-.78c.15-.29.22-.44.38-.74l.43-.73c.38-.59.58-.9,1-1.56L6,182l.48-.75.49-.7c.55-.7.83-1.07,1.4-1.86.26-.37.39-.56.65-.95s.46-.49.76-.83l.78-.66.74-.56,1.75-1,1.38-.73.72-.5.73-.38,1.12-.47.78-.28h1.07l.74,0,1.13.1.69.18,1.07.18.74.25c.43.18.64.27,1.07.43l.73.28a14,14,0,0,0,1.76,1c.29.19.44.28.73.44s.38.24.63.39l.24.11.53.24.53.26.25.15a5.55,5.55,0,0,0,.52.2l.29.11.29.16c0,.09,0,.13,0,.21l-.1.21-.24.3-.34.4-.41.37c-.46.39-.69.59-1.15,1-.3.28-.46.42-.76.73s-.31.3-.51.51-.29.28-.48.48l-.35.37-.27.28-.37.21-.54,0-.66,0H24l-.71,0-.8.09-.8.13-.83.21-.84.24-2.28.83-.34.13-.76.35-1.24.58c-.29.19-.44.29-.74.47-.54.47-.8.7-1.34,1.19l-.56.67c-.22.29-.33.44-.55.75l-.45.8-.39,1c-.14.39-.21.59-.34,1s-.18.67-.3,1.16-.13.76-.21,1.32-.1.89-.16,1.54-.08.93-.14,1.61c-.07,1.35-.11,2.09-.2,3.76,0,.89-.07,1.36-.12,2.36s0,1.6,0,2.74,0,1.69-.07,2.87c0,1.65,0,2.5-.1,4.25,0,1.15,0,1.74,0,2.92,0,1.71,0,2.58-.09,4.34,0,1.22,0,1.83,0,3.07,0,1.83,0,2.76,0,4.63l.05,2.71c.08,1.36.12,2,.19,3.41.09.88.13,1.32.22,2.2.19,1.2.29,1.8.49,3,.16.67.24,1,.41,1.65s.43.95.72,1.56l.6.68c.53.12.79.17,1.32.26l.79-.27.81-.49c.32-.26.48-.39.79-.66l.83-1c.32-.49.47-.73.79-1.21,1.17-1.91,1.75-2.86,2.9-4.72l.89-1.79c.35-.77.52-1.15.86-1.92l.62-1.71c.1-.51.15-.76.26-1.27l.2-2.11c.09-.71.13-1.06.22-1.76.11-1.15.16-1.72.27-2.86.17-2.26.26-3.38.41-5.59.11-1.27.16-1.9.26-3.15-.05-.39-.07-.59-.11-1l-.49,0c-.46.29-.69.45-1.15.75l-.78.69-1.14,1.3-.79.71-1.1.75-.76.34-1.54,0-.26-.19c-.05-.34-.07-.5-.12-.83,0-.88,0-1.32.06-2.19l.05-1.45c0-1.16.07-1.73.11-2.86.11-1.8.16-2.68.22-4.37,0-2,0-3,0-4.8,0-.89-.06-1.3-.1-2.09,0-1.12,0-1.64,0-2.59.05-.53.07-.79.12-1.27.09-.26.13-.39.22-.64l.57-.52,1.18-.95.81-.55,2.19-1.24c1.24-.81,1.86-1.21,3.08-2,1.52-.65,2.27-1,3.74-1.51l.73-.36c.74-.53,1.11-.78,1.83-1.25l.7-.38.36-.06.65,0,.31.22.1.5c.06.48.09.75.15,1.31C33.19,185.51,33.2,185.69,33.22,186Z"/><path class="cls-1" d="M62.66,184.51c.05,2,.08,3,.13,5V192c0,1.48,0,2.22,0,3.7l0,2.44-.1,3.93c0,1,0,1.58-.08,2.64,0,1.51-.07,2.27-.11,3.79-.05,1-.08,1.5-.13,2.51-.11,1.42-.17,2.13-.29,3.55-.07,1-.11,1.42-.18,2.37l-.35,3.59c-.12,1-.17,1.45-.29,2.41-.21,1.41-.32,2.11-.54,3.52l-.43,2.33c-.21.94-.32,1.42-.53,2.37s-.35,1.24-.59,2.07c-.36,1.22-.54,1.84-.91,3.06l-.6,1.77-.93,2.42-.62,1.46-1,2.14c-.28.48-.43.71-.71,1.19l-1,1.86-.71,1-1.1,1.24-.71.88-1.47,1.12c-.87.48-1.31.71-2.17,1.16l-1.06.24-.69.19c-1,.12-1.51.17-2.49.22l-.7-.18h-.39c-.28-.21-.42-.31-.69-.53l-.33-.35c-.27-.35-.4-.53-.66-.89-.35-.52-.53-.78-.87-1.33s-.34-.77-.56-1.3-.33-.89-.54-1.5c-.35-1.37-.52-2.07-.83-3.49-.13-.71-.19-1.07-.31-1.8-.13-1.13-.18-1.71-.29-2.86-.08-.82-.12-1.23-.18-2.05-.1-1.79-.14-2.69-.22-4.51-.05-1-.07-1.47-.11-2.46l-.05-2.66c0-1.13,0-1.7,0-2.84s0-1.6,0-2.66.06-1.49.09-2.49.07-1.59.1-2.66c.09-1.55.13-2.33.21-3.88.06-1.2.09-1.79.14-3s.1-1.78.17-3c.15-2.36.21-3.53.32-5.83,0-1.08.07-1.62.11-2.69.25-4.08.31-6.2.35-9.84,0-.95,0-1.39,0-2.21,0-3.11-.08-4.14-.17-5.68,0-.4,0-.58,0-.91,0-1.24,0-1.54-.09-2-.14-.74-.22-.67-.35-1.57a7.38,7.38,0,0,1-.19-1c0-.27,0-.42-.05-.77s0-.54,0-1,0-.64.08-1.15c.1-.29.15-.44.25-.75l.48-.27a6.27,6.27,0,0,0,1.2-.26,8.19,8.19,0,0,0,1.4,0l.58-.19A13.45,13.45,0,0,0,42,170l.55-.18c.34-.14.5-.21.84-.37l.48,0c.12.21.19.31.31.49.06.39.08.57.14.9s0,.55.07.87,0,.5,0,.79c0,.77,0,1,.06,1.52,0,.18,0,.26.06.42.13.56.2.7.34,1.21,0,.13,0,.21.05.37.08.62.11,1,.17,2.31,0,.34,0,.53,0,1,0,1.63,0,2.68,0,5.8,0,.82,0,1.26,0,2.2,0,3.61-.1,5.81-.29,9.87,0,1.07-.05,1.6-.1,2.67-.05,1.68-.09,2.52-.16,4.22,0,1.08,0,1.62-.06,2.7,0,1.49,0,2.23,0,3.72l0,2.52.1,3.86.25,1.94c.17,1.08.26,1.62.44,2.69.17.46.26.7.44,1.16s.49.59.82,1l.59.39,1.08-.19.68-.34L50.12,222l.67-1c.35-.78.53-1.17.87-2l.6-1.65c.31-1.09.46-1.63.76-2.72.19-.89.29-1.34.48-2.24.23-1.51.34-2.26.56-3.76l.35-2.65c.11-1.11.16-1.67.26-2.77s.11-1.63.18-2.71c.1-2,.15-3,.25-5,0-1.05,0-1.58.07-2.62,0-3.93,0-6-.09-9.66V181c0-3.37,0-4.58,0-6.55,0-.5,0-.74-.05-1.17,0-1.66-.06-2.22-.12-3.24,0-.26,0-.38-.06-.62-.12-.91-.18-1.26-.3-2.22,0-.24-.06-.37-.1-.64-.1-.7-.15-1.09-.24-2.11,0-.63,0-1-.07-1.77.05-.5.07-.76.12-1.33.12-.41.19-.62.31-1.06l.47-.76.77-.73c.75-.54,1.13-.81,1.88-1.32l.58-.51c.58-.64.88-1,1.46-1.55l.59-.47.55-.31.48,0,.3.49c0,.45,0,.67.07,1.09,0,1.05.06,1.51.11,2.35,0,.43,0,.63,0,1,0,.6,0,.87,0,1.39,0,.35,0,.52.06.85.13,1.25.2,1.75.33,2.95,0,.32,0,.48.06.82.06,1.29.09,2,.13,3.87,0,.5,0,.76,0,1.31,0,2.18,0,3.48,0,6.95C62.56,180.13,62.58,181.69,62.66,184.51Z"/><path class="cls-1" d="M98,215.31l0,2.16c0,1.68,0,2.54,0,4.28,0,.84,0,1.27,0,2.13,0,.47,0,.7-.07,1.17,0,.65,0,1-.07,1.63-.08.49-.12.74-.19,1.23-.09.33-.14.49-.23.81l-.39.42c-.22.12-.32.19-.54.32l-.57.19c-.56,0-.84,0-1.4.09-.24,0-.36,0-.6.1l-.88.39-.63.15L91,230.27l-.24-.18c-.06-.27-.08-.41-.13-.68,0-.59,0-.89,0-1.48,0-.83,0-1.24,0-2.05V223.7c.06-2,.09-3,.16-4.92.11-5.33.18-7.9.32-13.08,0-3.46.07-5.19.1-8.7,0-.9,0-1.34,0-2.25.14-3.5.21-5.27.33-8.92.07-4.58.08-7.33.09-11.76,0-.68,0-1-.07-1.64l-.25-.49-.25,0c-.12.48-.18.73-.3,1.24-.16.78-.25,1.19-.42,2-.7,2.92-1.06,4.59-1.77,7.6-1,4.57-1.55,6.8-2.55,11.3-.65,3.07-1,4.61-1.59,7.71-.14.51-.21.76-.34,1.27-.11.21-.17.31-.27.52l-.32.09-.43-.18-.47-.32c-.17-.43-.26-.65-.44-1.08-.82-3.4-1.24-5.13-2.1-8.68-.63-2.9-1-4.38-1.59-7.38-.17-.73-.26-1.1-.43-1.84-.88-3.55-1.3-5.63-2.15-8.69-.21-.68-.31-1-.52-1.64l-.24.27c0,.55,0,.84-.07,1.43,0,3.41,0,5.72,0,9.7,0,1,0,1.51,0,2.52.14,4,.22,5.94.39,9.87,0,1,0,1.5.07,2.5.15,3.93.23,5.89.38,9.81,0,1,0,1.5.08,2.49.11,3.87.16,5.8.26,9.68,0,.94,0,1.41.06,2.35l.15,4.69c0,1,0,1.51,0,2.53s0,1.61,0,2.69c0,.82,0,1.24,0,2.07-.06.4-.08.59-.13,1l-.25.39c-.37.3-.55.44-.92.72l-.57.28c-.56-.08-.84-.13-1.41-.25l-.57.21c-.7.31-1,.41-1.76.71-.35,0-.52,0-.88.09l-.47-.24-.25-.9-.1-1.09-.1-1.56c0-1.45,0-2.18-.07-3.63,0-2,0-3,0-4.93-.27-9.78-.49-14.73-.82-24.55-.14-3.38-.21-5.07-.33-8.43,0-1,0-1.52-.07-2.54-.07-3.36-.1-5-.13-8.37,0-1,0-1.51-.06-2.51-.08-3.38-.08-5.07-.16-7.61,0-.76,0-1.11,0-1.79,0-2.23,0-3.12,0-4.68,0-.47,0-.69,0-1.12-.13-1.4-.19-2-.33-3.1,0-.34,0-.51,0-.86,0-1.13,0-1.67,0-3,0-.38,0-.58,0-1-.11-.94-.16-1.45-.26-2.64,0-.53,0-.8,0-1.39s0-.73,0-1.26c.06-.29.08-.45.14-.76l.2-.59.29-.29.48-.21.62.14c.33.18.49.29.82.49l.59,0,1.18-.42.66-.29.58-.2c.61,0,.92-.08,1.54-.15l.53-.11.46.44c.17.43.26.64.44,1a25.37,25.37,0,0,0,1.54,3.09c.18.37.27.55.45.89.52,1.09.79,1.56,1.31,2.47.18.29.27.43.46.71.59.83.88,1.22,1.47,2.06l.45.79A25.54,25.54,0,0,1,82.21,164c.18.29.26.44.44.75L83,165l.42-.08.38-.46c.15-.35.23-.51.38-.84.5-1.3.75-1.9,1.26-3.09.18-.42.26-.62.43-1,.55-1.16.83-1.73,1.4-2.95l.44-1c.61-1.27.93-1.93,1.56-3.38.18-.48.27-.72.45-1.23.47-1.24.7-1.91,1.18-3.36l.36-1.28c.14-.39.22-.59.36-1l.45-.72.58-.07c.93-.16,1.4-.24,2.32-.37l2-.45.68-.17L99,143l.7,0,.49.13.28.18.24.52c0,.36,0,.53.06.87,0,.52,0,.77-.07,1.27-.1,1.85-.16,2.67-.28,4.22,0,.55,0,.82-.09,1.34,0,1.73-.05,2.52-.08,4.13l0,1.23c-.09,1.64-.13,2.46-.21,4.3,0,.56,0,.84,0,1.43,0,2-.06,3-.08,5.49,0,.75,0,1.13,0,1.94,0,2.74.07,4.5.1,7.79,0,1,0,1.46,0,2.42-.12,3.16-.19,4.67-.36,7.62,0,.89-.05,1.34-.09,2.21-.07,2.9-.12,4.3-.22,7.09,0,.84-.07,1.26-.12,2.1-.21,2.77-.32,4.14-.54,6.92-.05.83-.07,1.25-.12,2.08C98.24,211,98.15,212.44,98,215.31Z"/><path class="cls-1" d="M130,156.59c0,.52,0,.79,0,1.37s-.06.9-.1,1.55-.08,1.13-.12,2c-.14,1.24-.21,1.91-.36,3.36-.08.93-.19,1.48-.2,2.44-.1,1.23-.15,1.8-.27,2.89-.08.76-.13,1.12-.23,1.82-.16,1-.25,1.42-.43,2.28-.16.61-.24.9-.41,1.47-.25.83-.38,1.23-.65,2-.2.51-.3.76-.51,1.25l-.6,1.25-.6,1.16-.58,1c-.25.42-.38.62-.62,1-.39.55-.58.82-1,1.38l-.64,1c-.29.42-.43.63-.72,1.07s-.38.52-.63.88-.54.73-.9,1.23c-.25.3-.37.46-.61.77l-.6.7-.63.67-1,1.12c-1.3,1.22-1.94,1.83-3.21,3l-.64.46c-.25.27-.38.39-.64.65l-.65.74-.47.58c-.06.33-.1.5-.16.83-.06.57-.08.86-.14,1.42-.25,2.92-.39,4.37-.61,7.51,0,.73,0,1.1-.09,1.86,0,1.4-.06,2.12-.09,3.62,0,.77,0,1.17-.08,2,0,1.17,0,1.78-.07,3,0,.65,0,1-.08,1.66-.05.41-.07.61-.12,1l-.19.54c-.18.33-.26.49-.44.81-.5.71-.75,1.05-1.25,1.69a16.36,16.36,0,0,1-1.52,1.17l-.62.53c-.5.52-.74.76-1.23,1.2a6.32,6.32,0,0,1-.61.22,5.69,5.69,0,0,1-.86.27l-.48-.42c-.08-.34-.13-.5-.21-.83,0-.71,0-1.06,0-1.75,0-.87,0-1.3,0-2.15s0-1.35,0-2.24c.22-6,.41-8.62.78-14,.24-2.69.36-4,.6-6.72,0-.81.08-1.22.13-2,.11-2.72.16-4.09.23-7,0-.87.06-1.3.1-2.19.23-6.74.13-11.57.19-17.78,0-.81,0-1.2,0-2,.1-2.55.17-3.64.3-5.66,0-.59,0-.88,0-1.45,0-1.86,0-2.69.09-4.35,0-.51,0-.76.06-1.26.14-1.66.22-2.46.35-4.23,0-.5,0-.75,0-1.27,0-1,0-1.57,0-2.73,0-.57,0-.87.08-1.49,0-.32,0-.49,0-.83s.06-.71.1-1.2c0-.27.07-.4.12-.68s.11-.35.19-.59L107,142l1.06-.27.84.1.54,0,2.41-.18,2.39-.06c1,.15,1.43.22,2.39.35l2.34-.08,1.35-.25.51.08h.28l.55.26.86.49c.24.17.36.25.61.4s.36.28.61.45.35.31.59.5.36.38.6.61.31.39.53.64.45.58.74.93.3.32.5.52l.21.31c.31.36.46.53.76.85l.43.59a2.65,2.65,0,0,0,.21.26l.3.54.17.26.25.6c.09.28.13.42.21.72s.1.42.16.71,0,.23,0,.38.09.46.15.78,0,.28.07.48.09.51.14.88c.08.75.11,1.15.19,2.05C130,156.17,130,156.3,130,156.59Zm-12.65,17.3.66-.61.61-.9.28-.59c.19-.59.32-.91.55-1.5.1-.29.15-.43.26-.71.17-.67.26-1,.44-1.64.08-.37.11-.55.19-.9.14-.76.21-1.13.35-1.83.06-.38.1-.56.16-.92.1-.81.15-1.19.26-1.92,0-.31,0-.47.08-.77.06-1,.09-1.54.15-2.45,0-.53,0-.78,0-1.27,0-.25-.05-.37-.07-.62s-.1-.56-.17-.93l-.12-.39-.36-.72-.28-.25-.53-.36-1-.17-.59.05-.85.26-1.12.47c-.64.11-1,.16-1.6.25l-.55.15-.29.15-.41.26a2.26,2.26,0,0,0-.16.26l-.15.56c0,.38-.07.57-.13,1,0,.73-.07,1.11-.11,1.91,0,1.27,0,2-.08,3.45,0,.65,0,1,0,1.69-.1,2.58-.15,4-.23,7.52,0,.72,0,1.09,0,1.86.05.44.08.65.13,1.07l.4.47c.74,0,1.11-.07,1.86-.16Z"/></g></g></svg>