<svg xmlns="http://www.w3.org/2000/svg" viewBox="0 0 314.91 220.32"><defs><style>.cls-1{fill:#ffed00;}</style></defs><g id="Calque_2" data-name="Calque 2"><g id="Calque_2-2" data-name="Calque 2"><path class="cls-1" d="M314.2,69.08c4.52-21-13.86-22-13.86-22L236,29,230.25,1.81l-9.66,22.92a57.75,57.75,0,0,0-12.25-.49L198,0l-5.23,28.1C179.83,34,169.58,46.46,164,66.82c-4.58,16.81-11.73,27-17.73,33L160,102.49a9.49,9.49,0,1,1-3.58,18.64l-44-8.44L0,127.53l55.72,90,194.22-58.64L249.66,194l-18.84-2.73.6,29.08L261,210.25s7.51-44.28,10.54-58.63S259,136.39,259,136.39l-52.73,8.78L225,86.29S277.5,76,314.2,69.08Z"/><path class="cls-1" d="M99.2,82.54A21.62,21.62,0,0,0,122,62.17a22.25,22.25,0,0,0-.06-3l14.58.82-22.9-16.19c-.34-.26-.7-.5-1.06-.75l-.5-.35h0A21.61,21.61,0,1,0,99.2,82.54Z"/></g></g></svg>