<svg xmlns="http://www.w3.org/2000/svg" viewBox="0 0 119.77 136.2"><defs><style>.cls-1{fill:#0071bc;}.cls-2{fill:#8cc63f;}.cls-3{fill:#fcee21;}.cls-4{fill:red;}</style></defs><g id="Calque_2" data-name="Calque 2"><g id="Calque_1-2" data-name="Calque 1"><path class="cls-1" d="M6.77,20.2h5.3A12,12,0,0,0,18,18.9a8.37,8.37,0,0,0,3.7-3.5A10.17,10.17,0,0,0,23,10.1a9.8,9.8,0,0,0-1.3-5.2A9.17,9.17,0,0,0,18,1.3,11.57,11.57,0,0,0,12.17,0H.47V29.9h6.3Zm4.3-15a6.68,6.68,0,0,1,3,.6,4.24,4.24,0,0,1,1.8,1.7,5.26,5.26,0,0,1,.6,2.6,5.26,5.26,0,0,1-.6,2.6,5.16,5.16,0,0,1-1.8,1.8,6.68,6.68,0,0,1-3,.6H6.77V5.1h4.3Z"/><path class="cls-2" d="M32.57,28.9a12.66,12.66,0,0,0,6,1.4,14.8,14.8,0,0,0,4.9-.8A9.9,9.9,0,0,0,47,27.1a7.68,7.68,0,0,0,1.8-3.6l-5.9-.4a3.39,3.39,0,0,1-.9,1.4,3.77,3.77,0,0,1-1.5.9,5.82,5.82,0,0,1-1.9.3,5,5,0,0,1-2.7-.7,4.72,4.72,0,0,1-1.8-1.9,6.53,6.53,0,0,1-.6-2.9h15.3V18.5a15,15,0,0,0-.8-5,10.89,10.89,0,0,0-2.2-3.6,9.24,9.24,0,0,0-3.4-2.1,11.41,11.41,0,0,0-4.1-.7,11.14,11.14,0,0,0-5.8,1.5,10,10,0,0,0-3.8,4.1,13.06,13.06,0,0,0-1.3,6.1,12.79,12.79,0,0,0,1.3,6.1A8.89,8.89,0,0,0,32.57,28.9Zm3.3-16.4a5.2,5.2,0,0,1,2.5-.7,4.75,4.75,0,0,1,2.4.6,4.1,4.1,0,0,1,1.6,1.6,4.75,4.75,0,0,1,.6,2.4h-9.4a4.28,4.28,0,0,1,.6-2.2A4,4,0,0,1,35.87,12.5Z"/><path class="cls-3" d="M60.67,16.9a6.18,6.18,0,0,1,.5-2.5,4.63,4.63,0,0,1,1.5-1.6,4,4,0,0,1,2.2-.5,3.7,3.7,0,0,1,2.9,1.2,4.59,4.59,0,0,1,1.1,3.2V29.9h6.2V15.6a9.33,9.33,0,0,0-1-4.5,6.07,6.07,0,0,0-2.6-2.9,7.8,7.8,0,0,0-4.1-1,7,7,0,0,0-4.2,1.2,6.32,6.32,0,0,0-2.5,3.1h-.3v-4h-5.9V29.9h6.2Z"/><path class="cls-4" d="M92.37,25.1c-.3,0-.6.1-.9.1a3.59,3.59,0,0,1-1.1-.2,1,1,0,0,1-.7-.7,2.5,2.5,0,0,1-.3-1.3V12.1h4.2V7.5h-4.2V2.1h-6.2V7.5h-3.1v4.7h3.1V23.9a7,7,0,0,0,.9,3.7,4.91,4.91,0,0,0,2.6,2.1,8,8,0,0,0,3.9.6,12.48,12.48,0,0,0,2.1-.2,8.57,8.57,0,0,0,1.3-.3l-1-4.6C92.87,25,92.67,25.1,92.37,25.1Z"/><path d="M115.47,9a9.78,9.78,0,0,0-3.1-1.4,13.7,13.7,0,0,0-3.6-.4,13.19,13.19,0,0,0-4.7.8,7.29,7.29,0,0,0-3.3,2.3,7.65,7.65,0,0,0-1.7,3.5l5.8.5a3.38,3.38,0,0,1,1.3-1.8,4.53,4.53,0,0,1,2.7-.7,3.74,3.74,0,0,1,2.5.8,2.58,2.58,0,0,1,.9,2.1v.1a1.43,1.43,0,0,1-.5,1.1,8,8,0,0,1-1.7.6c-.8.1-1.8.2-3.2.4a16.47,16.47,0,0,0-3.2.6,11.07,11.07,0,0,0-2.7,1.2,6.06,6.06,0,0,0-1.9,2,5.93,5.93,0,0,0-.7,3.1,6.2,6.2,0,0,0,1,3.7,5.88,5.88,0,0,0,2.7,2.2,9.2,9.2,0,0,0,3.8.7,8.47,8.47,0,0,0,2.9-.4,7.76,7.76,0,0,0,2.2-1.2,5.22,5.22,0,0,0,1.4-1.9h.2v3h5.9V14.8a7.12,7.12,0,0,0-.8-3.4A7.28,7.28,0,0,0,115.47,9Zm-3.3,12.9a3.7,3.7,0,0,1-.6,2.1,4.2,4.2,0,0,1-1.7,1.5,4.71,4.71,0,0,1-2.4.5,3.79,3.79,0,0,1-2.4-.7,2.2,2.2,0,0,1-.9-1.9,2.46,2.46,0,0,1,.5-1.5A2.54,2.54,0,0,1,106,21a10.55,10.55,0,0,1,1.9-.5,5.16,5.16,0,0,0,1.1-.2c.4-.1.8-.1,1.3-.2s.8-.2,1.1-.3a2,2,0,0,0,.8-.4Z"/><path class="cls-3" d="M13.67,64.57a8.57,8.57,0,0,0,1.3-.3l-1-4.6c-.2,0-.4.1-.7.1s-.6.1-.9.1a3.59,3.59,0,0,1-1.1-.2,1,1,0,0,1-.7-.7,2.5,2.5,0,0,1-.3-1.3v-11h4.2v-4.6h-4.2v-5.4H4.07v5.4H1v4.7h3.1v11.7a7,7,0,0,0,.9,3.7,4.91,4.91,0,0,0,2.6,2.1,8,8,0,0,0,3.9.6C12.37,64.77,13.07,64.67,13.67,64.57Z"/><path class="cls-4" d="M45.12,64.47V50.17a8.82,8.82,0,0,0-1-4.5,6.33,6.33,0,0,0-2.7-2.9,7.8,7.8,0,0,0-4.1-1,7.7,7.7,0,0,0-4.2,1.1,7,7,0,0,0-2.5,3.1h-.3V34.57h-6v29.9h6.2v-13a4.87,4.87,0,0,1,.6-2.5,4.63,4.63,0,0,1,1.5-1.6,4.19,4.19,0,0,1,2.2-.5,3.56,3.56,0,0,1,2.9,1.2,4.59,4.59,0,0,1,1.1,3.2v13.2Z"/><rect class="cls-1" x="54.47" y="34.57" width="6.2" height="29.9"/><path d="M89.77,59.42a13.06,13.06,0,0,0,1.3-6.1,13.34,13.34,0,0,0-1.3-6.1,10.72,10.72,0,0,0-3.8-4.1,11,11,0,0,0-5.9-1.5,11.25,11.25,0,0,0-5.9,1.5,10,10,0,0,0-3.8,4.1,13.06,13.06,0,0,0-1.3,6.1,13.34,13.34,0,0,0,1.3,6.1,10.72,10.72,0,0,0,3.8,4.1,11.22,11.22,0,0,0,5.9,1.4,12.25,12.25,0,0,0,5.9-1.4A10,10,0,0,0,89.77,59.42Zm-5.5-2.6a6,6,0,0,1-1.6,2.4,4.21,4.21,0,0,1-5.2,0,6,6,0,0,1-1.6-2.4,9.56,9.56,0,0,1-.5-3.5,12.3,12.3,0,0,1,.5-3.5,6,6,0,0,1,1.6-2.4,4.21,4.21,0,0,1,5.2,0,6,6,0,0,1,1.6,2.4,9.56,9.56,0,0,1,.5,3.5A12.3,12.3,0,0,1,84.27,56.82Z"/><path class="cls-2" d="M111.47,47a4.59,4.59,0,0,1,1.1,3.2v13.2h6.2V49.05a9.33,9.33,0,0,0-1-4.5,6.33,6.33,0,0,0-2.7-2.9,7.8,7.8,0,0,0-4.1-1,7,7,0,0,0-4.2,1.2,6.32,6.32,0,0,0-2.5,3.1H104V41h-5.9v22.4h6.2v-13a6.18,6.18,0,0,1,.5-2.5,4.63,4.63,0,0,1,1.5-1.6,4,4,0,0,1,2.2-.5A3.77,3.77,0,0,1,111.47,47Z"/><path class="cls-2" d="M25.87,70.75a7.72,7.72,0,0,0-4.3,1.2,6.32,6.32,0,0,0-2.5,3.1h-.2a5.76,5.76,0,0,0-2.2-3.1,6.45,6.45,0,0,0-3.9-1.2,7.13,7.13,0,0,0-3.9,1.1A5.94,5.94,0,0,0,6.57,75h-.3V71H.37v22.5h6.2V80a5.45,5.45,0,0,1,.5-2.2,3.53,3.53,0,0,1,1.3-1.4,3.2,3.2,0,0,1,1.9-.5,3.32,3.32,0,0,1,2.5,1,3.74,3.74,0,0,1,.9,2.6v14h6V79.75a4.1,4.1,0,0,1,.9-2.8,3.31,3.31,0,0,1,2.6-1.1,3.66,3.66,0,0,1,2.5.9,3.56,3.56,0,0,1,1,2.8v13.9h6.2V78.35a7.65,7.65,0,0,0-2-5.6A6.21,6.21,0,0,0,25.87,70.75Z"/><path class="cls-1" d="M53.87,72.15a11,11,0,0,0-5.9-1.5,11.25,11.25,0,0,0-5.9,1.5,10,10,0,0,0-3.8,4.1,13.06,13.06,0,0,0-1.3,6.1,13.34,13.34,0,0,0,1.3,6.1,10.72,10.72,0,0,0,3.8,4.1A11.22,11.22,0,0,0,48,94a12.25,12.25,0,0,0,5.9-1.4,9.43,9.43,0,0,0,3.8-4.1,13.06,13.06,0,0,0,1.3-6.1,13.34,13.34,0,0,0-1.3-6.1A10,10,0,0,0,53.87,72.15Zm-1.7,13.6a6,6,0,0,1-1.6,2.4,4.21,4.21,0,0,1-5.2,0,6,6,0,0,1-1.6-2.4,9.56,9.56,0,0,1-.5-3.5,12.3,12.3,0,0,1,.5-3.5,6,6,0,0,1,1.6-2.4,4.21,4.21,0,0,1,5.2,0,6,6,0,0,1,1.6,2.4,9.56,9.56,0,0,1,.5,3.5A9.56,9.56,0,0,1,52.17,85.75Z"/><polygon class="cls-3" points="72.07 87.05 71.77 87.05 67.17 71.05 60.57 71.05 68.37 93.45 75.47 93.45 83.27 71.05 76.67 71.05 72.07 87.05"/><rect class="cls-4" x="87.97" y="71.05" width="6.2" height="22.4"/><path d="M116.12,73.55a9.24,9.24,0,0,0-3.4-2.1,11.41,11.41,0,0,0-4.1-.7,11.14,11.14,0,0,0-5.8,1.5,10,10,0,0,0-3.8,4.1,13.06,13.06,0,0,0-1.3,6.1,12.79,12.79,0,0,0,1.3,6.1,9.78,9.78,0,0,0,3.8,4,12.66,12.66,0,0,0,6,1.4,14.8,14.8,0,0,0,4.9-.8,9.9,9.9,0,0,0,3.5-2.4,7.68,7.68,0,0,0,1.8-3.6l-5.8-.4a3.39,3.39,0,0,1-.9,1.4,3.77,3.77,0,0,1-1.5.9,5.82,5.82,0,0,1-1.9.3,5,5,0,0,1-2.7-.7,4.72,4.72,0,0,1-1.8-1.9,6.53,6.53,0,0,1-.6-2.9h15.3v-1.7a15,15,0,0,0-.8-5A10,10,0,0,0,116.12,73.55ZM103.82,80a4.28,4.28,0,0,1,.6-2.2,4.62,4.62,0,0,1,1.7-1.7,5.2,5.2,0,0,1,2.5-.7,4.75,4.75,0,0,1,2.4.6,4.1,4.1,0,0,1,1.6,1.6,4.75,4.75,0,0,1,.6,2.4Z"/><path d="M17,105.6a7.8,7.8,0,0,0-4.1-1,7,7,0,0,0-4.2,1.2,6.32,6.32,0,0,0-2.5,3.1H5.9v-4H0v22.4H6.2v-13a6.18,6.18,0,0,1,.5-2.5,4.63,4.63,0,0,1,1.5-1.6,4,4,0,0,1,2.2-.5,3.7,3.7,0,0,1,2.9,1.2,4.59,4.59,0,0,1,1.1,3.2v13.2h6.2V113a9.33,9.33,0,0,0-1-4.5A6.07,6.07,0,0,0,17,105.6Z"/><path d="M116.37,113.41a3.58,3.58,0,0,0-2.4.9,2.92,2.92,0,0,0,0,4.4,3.65,3.65,0,0,0,4.8,0,2.84,2.84,0,0,0,1-2.2,2.7,2.7,0,0,0-1-2.2A3.58,3.58,0,0,0,116.37,113.41Z"/><path d="M116.37,122.3a3.58,3.58,0,0,0-2.4.9,2.92,2.92,0,0,0,0,4.4,3.65,3.65,0,0,0,4.8,0,2.84,2.84,0,0,0,1-2.2,2.7,2.7,0,0,0-1-2.2A3.58,3.58,0,0,0,116.37,122.3Z"/><rect class="cls-3" x="27.06" y="104.9" width="6.2" height="22.4"/><path class="cls-4" d="M55.57,108.6h-.2a9.39,9.39,0,0,0-1.2-1.8,6.42,6.42,0,0,0-2-1.6,7.31,7.31,0,0,0-3.2-.6,7.89,7.89,0,0,0-4.5,1.3,8.28,8.28,0,0,0-3.3,3.8,14.92,14.92,0,0,0-1.2,6.4,14.28,14.28,0,0,0,1.2,6.2,8.27,8.27,0,0,0,3.3,3.6,9,9,0,0,0,4.6,1.2,9.59,9.59,0,0,0,3.1-.5,5.52,5.52,0,0,0,2.1-1.4,5.17,5.17,0,0,0,1.2-1.8h.3v4.1a3.9,3.9,0,0,1-1.3,3.3,5.18,5.18,0,0,1-3.3,1,5.27,5.27,0,0,1-2.3-.4,3.77,3.77,0,0,1-1.5-.9,2.58,2.58,0,0,1-.8-1.3l-5.8.8a7.13,7.13,0,0,0,1.7,3.2,8.36,8.36,0,0,0,3.4,2.2,13.54,13.54,0,0,0,5.2.8,14.84,14.84,0,0,0,5.7-1,7.75,7.75,0,0,0,5.3-7.7V104.9h-6.2v3.7Zm-.5,10.8a5.24,5.24,0,0,1-1.6,2.2,4.09,4.09,0,0,1-2.5.7,4.46,4.46,0,0,1-2.6-.8,4.68,4.68,0,0,1-1.6-2.2,8.71,8.71,0,0,1-.5-3.4,11.59,11.59,0,0,1,.5-3.4,5.59,5.59,0,0,1,1.6-2.3,3.85,3.85,0,0,1,2.6-.8,4.46,4.46,0,0,1,2.6.8,5,5,0,0,1,1.6,2.3,9,9,0,0,1,.6,3.4A21.48,21.48,0,0,1,55.07,119.4Z"/><path class="cls-2" d="M86.77,105.6a7.8,7.8,0,0,0-4.1-1,7.7,7.7,0,0,0-4.2,1.1,7,7,0,0,0-2.5,3.1h-.3V97.4h-6v29.9h6.2v-13a4.87,4.87,0,0,1,.6-2.5,4.63,4.63,0,0,1,1.5-1.6,4.19,4.19,0,0,1,2.2-.5,3.92,3.92,0,0,1,3,1.2,4.59,4.59,0,0,1,1.1,3.2v13.2h6.2V113a8.82,8.82,0,0,0-1-4.5A6.9,6.9,0,0,0,86.77,105.6Z"/><path class="cls-1" d="M107,122.4c-.2,0-.4.1-.7.1s-.6.1-.9.1a3.59,3.59,0,0,1-1.1-.2,1,1,0,0,1-.7-.7,2.5,2.5,0,0,1-.3-1.3V109.5h4.2v-4.7h-4.2V99.4h-6.2v5.4H94v4.7h3.1v11.7a7,7,0,0,0,.9,3.7,4.91,4.91,0,0,0,2.6,2.1,8,8,0,0,0,3.9.6,12.48,12.48,0,0,0,2.1-.2,8.57,8.57,0,0,0,1.3-.3Z"/></g></g></svg>