<?xml version="1.0" encoding="utf-8"?>
<!-- Generator: Adobe Illustrator 25.2.3, SVG Export Plug-In . SVG Version: 6.00 Build 0)  -->
<svg version="1.1" id="Calque_1" xmlns="http://www.w3.org/2000/svg" xmlns:xlink="http://www.w3.org/1999/xlink" x="0px" y="0px"
	 viewBox="0 0 233 81" style="enable-background:new 0 0 233 81;" xml:space="preserve">
<style type="text/css">
	.st0{fill:#0071BC;}
	.st1{fill:#8CC63F;}
	.st2{fill:#FCEE21;}
	.st3{fill:#FF0000;}
	.st4{fill:#FFFFFF;}
</style>
<path class="st0" d="M6.9,20.3h5.3c2.3,0,4.3-0.4,5.9-1.3c1.6-0.8,2.9-2,3.7-3.5c0.9-1.5,1.3-3.3,1.3-5.3S22.7,6.5,21.8,5
	c-0.8-1.5-2.1-2.7-3.7-3.6s-3.5-1.3-5.8-1.3H0.6V30h6.3V20.3z M11.2,5.3c1.2,0,2.2,0.2,3,0.6s1.4,1,1.8,1.7c0.4,0.7,0.6,1.6,0.6,2.6
	s-0.2,1.9-0.6,2.6c-0.4,0.7-1,1.3-1.8,1.8c-0.8,0.4-1.8,0.6-3,0.6H6.9v-10L11.2,5.3L11.2,5.3z"/>
<path class="st1" d="M32.7,29c1.7,0.9,3.7,1.4,6,1.4c1.8,0,3.5-0.3,4.9-0.8c1.4-0.6,2.6-1.4,3.5-2.4s1.5-2.2,1.8-3.6L43,23.2
	c-0.2,0.6-0.5,1-0.9,1.4s-0.9,0.7-1.5,0.9s-1.2,0.3-1.9,0.3c-1,0-1.9-0.2-2.7-0.7c-0.8-0.4-1.3-1.1-1.8-1.9
	c-0.4-0.8-0.6-1.8-0.6-2.9l0,0h15.3v-1.7c0-1.9-0.3-3.6-0.8-5S46.8,11,45.9,10c-1-0.9-2.1-1.7-3.4-2.1c-1.3-0.5-2.7-0.7-4.1-0.7
	c-2.2,0-4.1,0.5-5.8,1.5c-1.6,1-2.9,2.3-3.8,4.1c-0.9,1.7-1.3,3.8-1.3,6.1c0,2.4,0.4,4.4,1.3,6.1C29.7,26.8,31,28.1,32.7,29z
	 M36,12.6c0.7-0.4,1.6-0.7,2.5-0.7s1.7,0.2,2.4,0.6c0.7,0.4,1.2,0.9,1.6,1.6c0.4,0.7,0.6,1.5,0.6,2.4h-9.4c0-0.8,0.2-1.5,0.6-2.2
	C34.7,13.6,35.2,13,36,12.6z"/>
<path class="st2" d="M60.8,17c0-1,0.2-1.8,0.5-2.5c0.4-0.7,0.9-1.2,1.5-1.6c0.6-0.4,1.4-0.5,2.2-0.5c1.2,0,2.2,0.4,2.9,1.2
	c0.7,0.8,1.1,1.8,1.1,3.2V30h6.2V15.7c0-1.7-0.3-3.2-1-4.5C73.7,10,72.8,9,71.6,8.3c-1.2-0.7-2.5-1-4.1-1c-1.7,0-3.1,0.4-4.2,1.2
	c-1.2,0.8-2,1.8-2.5,3.1h-0.3v-4h-5.9V30h6.2V17z"/>
<path class="st3" d="M92.5,25.2c-0.3,0-0.6,0.1-0.9,0.1c-0.4,0-0.8-0.1-1.1-0.2c-0.3-0.1-0.6-0.3-0.7-0.7c-0.2-0.3-0.3-0.8-0.3-1.3
	V12.2h4.2V7.6h-4.2V2.2h-6.2v5.4h-3.1v4.7h3.1V24c0,1.5,0.3,2.7,0.9,3.7s1.5,1.7,2.6,2.1c1.1,0.5,2.4,0.7,3.9,0.6
	c0.8,0,1.5-0.1,2.1-0.2s1-0.2,1.3-0.3l-1-4.6C93,25.1,92.8,25.2,92.5,25.2z"/>
<path class="st4" d="M115.6,9.1c-0.9-0.6-1.9-1.1-3.1-1.4c-1.1-0.3-2.3-0.4-3.6-0.4c-1.8,0-3.4,0.3-4.7,0.8
	c-1.4,0.5-2.5,1.3-3.3,2.3c-0.9,1-1.4,2.2-1.7,3.5l5.8,0.5c0.2-0.7,0.7-1.4,1.3-1.8c0.7-0.5,1.6-0.7,2.7-0.7s1.9,0.3,2.5,0.8
	s0.9,1.2,0.9,2.1v0.1c0,0.5-0.2,0.8-0.5,1.1c-0.4,0.2-0.9,0.4-1.7,0.6c-0.8,0.1-1.8,0.2-3.2,0.4c-1.1,0.1-2.2,0.3-3.2,0.6
	c-1,0.3-1.9,0.7-2.7,1.2c-0.8,0.5-1.4,1.2-1.9,2s-0.7,1.9-0.7,3.1c0,1.5,0.3,2.7,1,3.7s1.5,1.7,2.7,2.2c1.1,0.5,2.4,0.7,3.8,0.7
	c1.1,0,2.1-0.1,2.9-0.4s1.6-0.7,2.2-1.2s1.1-1.2,1.4-1.9h0.2v3h5.9V14.9c0-1.3-0.3-2.5-0.8-3.4C117.2,10.5,116.5,9.7,115.6,9.1z
	 M112.3,22c0,0.8-0.2,1.5-0.6,2.1s-0.9,1.1-1.7,1.5c-0.7,0.4-1.5,0.5-2.4,0.5c-1,0-1.7-0.2-2.4-0.7c-0.6-0.4-0.9-1.1-0.9-1.9
	c0-0.6,0.2-1.1,0.5-1.5s0.7-0.7,1.3-0.9s1.2-0.4,1.9-0.5c0.3,0,0.7-0.1,1.1-0.2s0.8-0.1,1.3-0.2c0.4-0.1,0.8-0.2,1.1-0.3
	c0.3-0.1,0.6-0.2,0.8-0.4C112.3,19.5,112.3,22,112.3,22z"/>
<path class="st2" d="M13.8,64.7c0.6-0.1,1-0.2,1.3-0.3l-1-4.6c-0.2,0-0.4,0.1-0.7,0.1S12.8,60,12.5,60c-0.4,0-0.8-0.1-1.1-0.2
	c-0.3-0.1-0.6-0.3-0.7-0.7c-0.2-0.3-0.3-0.8-0.3-1.3v-11h4.2v-4.6h-4.2v-5.4H4.2v5.4H1.1v4.7h3.1v11.7c0,1.5,0.3,2.7,0.9,3.7
	s1.5,1.7,2.6,2.1c1.1,0.5,2.4,0.7,3.9,0.6C12.5,64.9,13.2,64.8,13.8,64.7z"/>
<path class="st3" d="M45.2,64.6V50.3c0-1.8-0.3-3.3-1-4.5c-0.6-1.3-1.5-2.2-2.7-2.9s-2.5-1-4.1-1c-1.7,0-3.1,0.4-4.2,1.1
	c-1.1,0.7-1.9,1.8-2.5,3.1h-0.3V34.7h-6v29.9h6.2v-13c0-1,0.2-1.8,0.6-2.5c0.4-0.7,0.9-1.2,1.5-1.6c0.7-0.4,1.4-0.5,2.2-0.5
	c1.3,0,2.2,0.4,2.9,1.2s1.1,1.8,1.1,3.2v13.2H45.2z"/>
<rect x="54.6" y="34.7" class="st0" width="6.2" height="29.9"/>
<path class="st4" d="M89.9,59.5c0.9-1.7,1.3-3.8,1.3-6.1s-0.4-4.3-1.3-6.1c-0.9-1.7-2.2-3.1-3.8-4.1s-3.6-1.5-5.9-1.5
	s-4.2,0.5-5.9,1.5c-1.6,1-2.9,2.3-3.8,4.1c-0.9,1.7-1.3,3.8-1.3,6.1c0,2.3,0.4,4.3,1.3,6.1c0.9,1.7,2.2,3.1,3.8,4.1
	c1.7,1,3.6,1.4,5.9,1.4s4.2-0.5,5.9-1.4C87.7,62.6,89,61.3,89.9,59.5z M84.4,56.9c-0.4,1-0.9,1.8-1.6,2.4c-0.7,0.6-1.6,0.9-2.6,0.9
	s-1.9-0.3-2.6-0.9c-0.7-0.6-1.2-1.4-1.6-2.4c-0.4-1-0.5-2.2-0.5-3.5s0.2-2.5,0.5-3.5c0.4-1,0.9-1.8,1.6-2.4c0.7-0.6,1.6-0.9,2.6-0.9
	s1.9,0.3,2.6,0.9c0.7,0.6,1.2,1.4,1.6,2.4c0.4,1,0.5,2.2,0.5,3.5S84.7,55.9,84.4,56.9z"/>
<path class="st1" d="M111.6,47c0.7,0.8,1.1,1.8,1.1,3.2v13.2h6.2V49.1c0-1.7-0.3-3.2-1-4.5c-0.6-1.3-1.5-2.2-2.7-2.9s-2.5-1-4.1-1
	c-1.7,0-3.1,0.4-4.2,1.2c-1.2,0.8-2,1.8-2.5,3.1h-0.3v-4h-5.9v22.4h6.2v-13c0-1,0.2-1.8,0.5-2.5c0.4-0.7,0.9-1.2,1.5-1.6
	c0.6-0.4,1.4-0.5,2.2-0.5C109.9,45.8,110.9,46.2,111.6,47z"/>
<path class="st1" d="M26,70.8c-1.6,0-3.1,0.4-4.3,1.2c-1.2,0.8-2,1.8-2.5,3.1H19c-0.4-1.3-1.1-2.3-2.2-3.1c-1.1-0.8-2.4-1.2-3.9-1.2
	s-2.8,0.4-3.9,1.1c-1.1,0.8-1.9,1.8-2.3,3.1H6.4v-4H0.5v22.5h6.2V80.1c0-0.8,0.2-1.5,0.5-2.2c0.3-0.6,0.8-1.1,1.3-1.4
	c0.6-0.4,1.2-0.5,1.9-0.5c1,0,1.8,0.3,2.5,1c0.6,0.7,0.9,1.5,0.9,2.6v14h6V79.8c0-1.2,0.3-2.1,0.9-2.8c0.6-0.7,1.5-1.1,2.6-1.1
	c1,0,1.8,0.3,2.5,0.9c0.7,0.6,1,1.6,1,2.8v13.9H33V78.5c0-2.4-0.7-4.3-2-5.6C29.8,71.5,28.1,70.8,26,70.8z"/>
<path class="st0" d="M54,72.2c-1.6-1-3.6-1.5-5.9-1.5c-2.3,0-4.2,0.5-5.9,1.5c-1.6,1-2.9,2.3-3.8,4.1c-0.9,1.7-1.3,3.8-1.3,6.1
	c0,2.3,0.4,4.3,1.3,6.1c0.9,1.7,2.2,3.1,3.8,4.1c1.7,1,3.6,1.4,5.9,1.4c2.3,0,4.2-0.5,5.9-1.4c1.7-1,2.9-2.3,3.8-4.1
	c0.9-1.7,1.3-3.8,1.3-6.1c0-2.3-0.4-4.3-1.3-6.1C56.9,74.7,55.7,73.2,54,72.2z M52.3,85.9c-0.4,1-0.9,1.8-1.6,2.4
	c-0.7,0.6-1.6,0.9-2.6,0.9s-1.9-0.3-2.6-0.9c-0.7-0.6-1.2-1.4-1.6-2.4c-0.4-1-0.5-2.2-0.5-3.5c0-1.3,0.2-2.5,0.5-3.5
	c0.4-1,0.9-1.8,1.6-2.4c0.7-0.6,1.6-0.9,2.6-0.9s1.9,0.3,2.6,0.9c0.7,0.6,1.2,1.4,1.6,2.4c0.4,1,0.5,2.2,0.5,3.5
	C52.8,83.7,52.7,84.8,52.3,85.9z"/>
<polygon class="st2" points="72.2,87.2 71.9,87.2 67.3,71.2 60.7,71.2 68.5,93.6 75.6,93.6 83.4,71.2 76.8,71.2 "/>
<rect x="88.1" y="71.2" class="st3" width="6.2" height="22.4"/>
<path class="st4" d="M116.3,73.7c-1-0.9-2.1-1.7-3.4-2.1c-1.3-0.5-2.7-0.7-4.1-0.7c-2.2,0-4.1,0.5-5.8,1.5c-1.6,1-2.9,2.3-3.8,4.1
	c-0.9,1.7-1.3,3.8-1.3,6.1c0,2.4,0.4,4.4,1.3,6.1c0.9,1.7,2.2,3.1,3.8,4c1.7,0.9,3.7,1.4,6,1.4c1.8,0,3.5-0.3,4.9-0.8
	c1.4-0.6,2.6-1.4,3.5-2.4c0.9-1,1.5-2.2,1.8-3.6l-5.8-0.4c-0.2,0.6-0.5,1-0.9,1.4c-0.4,0.4-0.9,0.7-1.5,0.9
	c-0.6,0.2-1.2,0.3-1.9,0.3c-1,0-1.9-0.2-2.7-0.7c-0.8-0.4-1.3-1.1-1.8-1.9c-0.4-0.8-0.6-1.8-0.6-2.9l0,0h15.3v-1.7
	c0-1.9-0.3-3.6-0.8-5C118,75.8,117.2,74.7,116.3,73.7z M104,80.1c0-0.8,0.2-1.5,0.6-2.2c0.4-0.7,1-1.3,1.7-1.7s1.6-0.7,2.5-0.7
	c0.9,0,1.7,0.2,2.4,0.6c0.7,0.4,1.2,0.9,1.6,1.6c0.4,0.7,0.6,1.5,0.6,2.4C113.4,80,104,80,104,80.1z"/>
<path class="st4" d="M17.1,105.7c-1.2-0.7-2.5-1-4.1-1c-1.7,0-3.1,0.4-4.2,1.2c-1.2,0.8-2,1.8-2.5,3.1H6v-4H0.1v22.4h6.2v-13
	c0-1,0.2-1.8,0.5-2.5c0.4-0.7,0.9-1.2,1.5-1.6s1.4-0.5,2.2-0.5c1.2,0,2.2,0.4,2.9,1.2c0.7,0.8,1.1,1.8,1.1,3.2v13.2h6.2v-14.3
	c0-1.7-0.3-3.2-1-4.5C19.2,107.4,18.3,106.4,17.1,105.7z"/>
<path class="st4" d="M116.5,113.5c-0.9,0-1.7,0.3-2.4,0.9s-1,1.3-1,2.2s0.3,1.6,1,2.2s1.5,0.9,2.4,0.9s1.7-0.3,2.4-0.9
	c0.7-0.6,1-1.4,1-2.2c0-0.9-0.3-1.6-1-2.2C118.2,113.8,117.4,113.5,116.5,113.5z"/>
<path class="st4" d="M116.5,122.4c-0.9,0-1.7,0.3-2.4,0.9s-1,1.3-1,2.2s0.3,1.6,1,2.2s1.5,0.9,2.4,0.9s1.7-0.3,2.4-0.9s1-1.4,1-2.2
	c0-0.9-0.3-1.6-1-2.2C118.2,122.7,117.4,122.4,116.5,122.4z"/>
<rect x="27.2" y="105" class="st2" width="6.2" height="22.4"/>
<path class="st3" d="M55.7,108.7h-0.2c-0.3-0.6-0.7-1.2-1.2-1.8s-1.2-1.2-2-1.6s-1.9-0.6-3.2-0.6c-1.6,0-3.2,0.4-4.5,1.3
	c-1.4,0.8-2.5,2.1-3.3,3.8c-0.8,1.7-1.2,3.8-1.2,6.4c0,2.5,0.4,4.5,1.2,6.2c0.8,1.6,1.9,2.8,3.3,3.6c1.4,0.8,2.9,1.2,4.6,1.2
	c1.2,0,2.2-0.2,3.1-0.5c0.9-0.4,1.6-0.8,2.1-1.4s1-1.1,1.2-1.8h0.3v4.1c0,1.5-0.4,2.6-1.3,3.3c-0.9,0.7-2,1-3.3,1
	c-0.9,0-1.7-0.1-2.3-0.4c-0.6-0.2-1.1-0.5-1.5-0.9c-0.4-0.4-0.7-0.8-0.8-1.3l-5.8,0.8c0.3,1.2,0.8,2.2,1.7,3.2
	c0.8,0.9,2,1.7,3.4,2.2c1.4,0.6,3.2,0.8,5.2,0.8c2.1,0,4-0.3,5.7-1c1.7-0.6,2.9-1.6,3.9-2.9c0.9-1.3,1.4-2.9,1.4-4.8V105H56v3.7
	H55.7z M55.2,119.5c-0.4,0.9-0.9,1.7-1.6,2.2c-0.7,0.5-1.5,0.7-2.5,0.7s-1.9-0.3-2.6-0.8c-0.7-0.5-1.2-1.2-1.6-2.2
	c-0.4-0.9-0.5-2.1-0.5-3.4s0.2-2.4,0.5-3.4c0.4-1,0.9-1.7,1.6-2.3c0.7-0.6,1.6-0.8,2.6-0.8s1.9,0.3,2.6,0.8c0.7,0.5,1.2,1.3,1.6,2.3
	c0.4,1,0.6,2.1,0.6,3.4C55.7,117.4,55.5,118.6,55.2,119.5z"/>
<path class="st1" d="M86.9,105.7c-1.2-0.7-2.5-1-4.1-1c-1.7,0-3.1,0.4-4.2,1.1c-1.1,0.7-1.9,1.8-2.5,3.1h-0.3V97.5h-6v29.9H76v-13
	c0-1,0.2-1.8,0.6-2.5c0.4-0.7,0.9-1.2,1.5-1.6c0.7-0.4,1.4-0.5,2.2-0.5c1.3,0,2.2,0.4,3,1.2c0.7,0.8,1.1,1.8,1.1,3.2v13.2h6.2v-14.3
	c0-1.8-0.3-3.3-1-4.5C89,107.3,88,106.4,86.9,105.7z"/>
<path class="st0" d="M107.1,122.5c-0.2,0-0.4,0.1-0.7,0.1s-0.6,0.1-0.9,0.1c-0.4,0-0.8-0.1-1.1-0.2s-0.6-0.3-0.7-0.7
	c-0.2-0.3-0.3-0.8-0.3-1.3v-10.9h4.2v-4.7h-4.2v-5.4h-6.2v5.4h-3.1v4.7h3.1v11.7c0,1.5,0.3,2.7,0.9,3.7c0.6,1,1.5,1.7,2.6,2.1
	c1.1,0.5,2.4,0.7,3.9,0.6c0.8,0,1.5-0.1,2.1-0.2s1-0.2,1.3-0.3L107.1,122.5z"/>
</svg>
