<svg xmlns="http://www.w3.org/2000/svg" viewBox="0 0 289.6 135.14"><defs><style>.cls-1{fill:#1d1d1b;}</style></defs><g id="Calque_2" data-name="Calque 2"><g id="Calque_2-2" data-name="Calque 2"><path class="cls-1" d="M32.81,81.52c0,1-.06,1.42-.09,2.38,0,3,.24,5.15.42,7.74,0,.86.07,1.27.11,2,0,1.56.07,2.25.11,3.67,0,1,0,1.55,0,2.63,0,.65,0,1-.06,1.68-.05,1.07-.08,1.63-.13,2.88-.06.76-.09,1.16-.14,2a25.66,25.66,0,0,1-.23,3.43c-.21.86-.32,1.25-.55,1.94a13,13,0,0,1-.65,1.55,10,10,0,0,1-.76,1.2,7,7,0,0,1-1.22,1.11,7,7,0,0,1-.86.6c-.49.25-.74.36-1.25.58l-.93.35-1.4.46c-.37.11-.56.16-.94.29-.57.13-.86.21-1.43.39-.39.12-.58.18-1,.32-.58.14-.87.22-1.45.4-.37.1-.56.15-.93.27-.57.08-.86.13-1.42.24l-.84.16c-.51,0-.76,0-1.27,0l-.83.06-1.28-.27-1.68-.46-.77-.51c-.42-.26-.64-.38-1.06-.63-.87-.83-1.32-1.22-2.2-2-.61-.7-.91-1-1.53-1.67a22,22,0,0,0-1.37-1.76,20.36,20.36,0,0,0-1.39-1.68c-.26-.4-.39-.59-.66-.94s-.25-.39-.42-.63-.31-.54-.52-.85l-.29-.5c-.13-.3-.19-.43-.33-.72s-.11-.28-.19-.48-.11-.49-.2-.93-.06-.45-.12-.83c-.06-.6-.11-1-.23-1.87,0-.64-.07-1-.14-1.86-.15-1.81-.3-3.22-.49-4.54-.07-1-.1-1.3-.15-1.73A4.09,4.09,0,0,0,0,94.54c0-.16,0-.16.06-.15s0,0,0,0,.05,0,.08,0a.56.56,0,0,0,.25-.18L1,94.14l.71,0c.85.07,1.27.1,2.13.15L6,94.51l.77,0c.57,0,.86-.07,1.44-.14l.77-.06c.24.15.37.21.61.35s.17.34.28.53.06.32.09.5.05.14.08.24.11.26.19.45a6.41,6.41,0,0,1,.43.9,7.72,7.72,0,0,1,.36.79,9.17,9.17,0,0,1,.42,1c.23.47.35.74.59,1.35a23.22,23.22,0,0,1,1.09,2.43c.32.62.48,1,.8,1.66s.45.8.72,1.28c.31.32.47.47.78.78l1.19.75.78.11c.65-.11,1-.18,1.63-.33.31-.18.47-.29.78-.5a6,6,0,0,0,.67-1c.25-.44.38-.65.63-1a20.45,20.45,0,0,1,.83-1.88c.19-.53.28-.77.46-1.22s.21-.85.35-1.35.11-.74.19-1.2c0-.67.06-1,.1-1.61V96.2c0-.7-.06-1-.11-1.87,0-.54-.06-.82-.11-1.45-.16-2.52-.37-5.16-.29-8.36,0-.85,0-1.25.05-2,.09-2.94.16-4.07.28-6.5,0-.63.05-.95.07-1.59.12-2.42.18-3.61.27-6.76,0-.75.05-1.14.08-2l-.39-.31c-.92.8-1.38,1.2-2.3,2l-.8.52c-.89.41-1.34.61-2.22,1l-.79.49-1.58,1.39-.68.4c-.23-.15-.35-.22-.58-.39-.11-.67-.16-.87-.26-1.35,0-.27,0-.4,0-.65,0-.6,0-.85,0-1.29a9.89,9.89,0,0,1,.46-2.25c0-.22.08-.31.12-.49a5.64,5.64,0,0,0,0-1.58c0-.33,0-.51,0-.95s.14-.63.22-1.12c.22-.34.33-.51.55-.87.42-.36.62-.55,1-.93.8-.64,1.2-1,2-1.68l.8-.79c1.17-1.4,1.75-2.14,2.92-3.69l.78-1c1.19-1.25,1.79-1.9,3-3.23,1.84-2.21,2.77-3.37,4.61-5.74.9-1.28,1.35-1.93,2.25-3.25l.75-1,.58-.26.35.51c.12.54.17.8.26,1.29s.15.94.22,1.53.09.94.11,1.53a20.78,20.78,0,0,1,0,2.24c-.07.64-.11,1-.2,1.61-.29,2-.51,3-.81,5.46-.08.77-.11,1.17-.17,2-.12,2.7,0,4.43,0,7.37V64.5c0,2.94-.08,4.38-.14,7.28,0,.92-.06,1.38-.11,2.31C33.05,77,33,78.51,32.81,81.52Z"/><path class="cls-1" d="M74.76,77.66c0,1.36,0,2,0,3,0,1.59,0,2.38,0,4l0,2.57c-.07,2-.11,3.08-.18,5.13,0,1.56,0,2.34,0,3.9l0,2.55c0,1.1-.06,1.64-.09,2.73s-.09,1.54-.14,2.57c-.15,1.45-.23,2.17-.38,3.62-.11,1-.16,1.45-.27,2.41-.42,3.11-.65,4.54-1.17,6.92-.18.68-.26,1-.45,1.66s-.3.94-.52,1.55-.32.76-.54,1.25c-.35.76-.53,1.12-.92,1.85-.25.42-.39.64-.65,1.06s-.46.63-.78,1l-.76,1c-.44.52-.67.77-1.14,1.3l-.86.88c-.38.35-.57.54-1,.9l-.88.71-1.27,1-.86.5c-.78.51-1.2.77-2,1.29l-1.09.65-1,.53-1,.54c-.4.15-.6.22-1,.38l-.85.07c-1-.12-1.49-.2-2.5-.37l-1.46-.61-1.3-.94-.48-.6c-.19-.3-.28-.45-.48-.75a25.92,25.92,0,0,0-1.66-3c-.21-.32-.32-.48-.54-.79s-.31-.6-.53-1c-.39-.76-.59-1.13-1-1.82l-.45-.92c-.17-.39-.26-.58-.44-1s-.2-.59-.34-1-.19-.61-.33-1-.15-.69-.26-1.14-.14-.69-.25-1.16c-.3-1-.47-1.51-.83-2.69-.11-.52-.18-.79-.3-1.37s-.19-1-.32-1.67-.15-1.08-.25-1.9c-.08-1.25-.25-2.13-.45-3.47-.4-3-.59-4.27-1-6.61-.16-1.09-.23-1.6-.39-2.62-.09-.73-.14-1.09-.23-1.81s-.13-1.14-.22-1.92-.14-1.09-.23-1.84c-.11-1.11-.16-1.68-.27-2.91-.06-.84-.08-1.28-.14-2.2s-.09-1.6-.16-2.77-.05-1.76,0-2.81S38,81,38,79.89s.06-1.72.1-2.88.09-1.66.15-2.79.12-1.69.21-2.84.15-1.73.25-2.9.19-1.78.31-3,.18-1.58.3-2.65L39.71,60c.16-1.62.24-2.42.41-4,.15-1.13.23-1.69.38-2.8.08-.62.12-.9.22-1.55.18-1.11.28-1.64.5-2.69.36-1.57.56-2.33,1-3.83.28-1,.43-1.45.71-2.41.15-.54.23-.8.38-1.34.31-.88.47-1.32.77-2.22.43-1.1.63-1.65,1-2.78.3-.82.45-1.23.75-2.07s.43-1.18.71-2c.63-1.8.94-2.72,1.48-4.62.24-.78.35-1.17.57-2s.35-1.23.57-2.06.33-1.16.53-1.94c.32-1.08.47-1.62.75-2.71.2-.66.3-1,.48-1.65s.31-1,.5-1.72.31-.93.5-1.54c.56-1.35.83-2,1.34-3.33.2-.54.29-.81.48-1.33.73-1.49,1.08-2.21,1.75-3.6C56,5.1,56.21,4.73,56.68,4c.56-.4.84-.59,1.4-.94s.64-.48,1.06-.78c.34-.13.51-.18.85-.29l.91-.08c.39.05.59.07,1,.14h.89l.89.24a4.7,4.7,0,0,1,.79.34c.33.22.49.33.81.57.46.4.68.61,1.12,1,.29.33.44.5.72.85a26.66,26.66,0,0,1,1.66,3.06c.24.61.36.92.57,1.53s.33,1,.53,1.74c.25,1.14.37,1.71.57,2.85.14.71.2,1.07.32,1.78s.17,1.19.27,2,.1,1.3.16,2.17c.09,1.37.14,2.05.24,3.4,0,.93.06,1.39.12,2.31s.07,1.39.13,2.3.13,1.37.24,2.27c.15,1.39.31,2.3.52,4.11.16,1.17.23,1.79.38,3.06.14,1.47.21,2.24.35,3.82s.16,2.23.26,3.77c.13,2.53.19,3.84.31,6.47.15,3.43.22,5.18.38,8.57.06,1.93.09,2.88.16,4.75s.12,2.77.21,4.53C74.58,73.1,74.63,74.77,74.76,77.66Zm-9.93,23.27c.16-1,.24-1.43.39-2.38.18-1.49.26-2.23.44-3.73.1-1,.15-1.52.26-2.54.08-1.55.13-2.33.21-3.88,0-1,.05-1.51.09-2.51,0-1.61,0-2.41.08-4,0-1.12,0-1.65,0-3s0-2.05-.07-3.6,0-2.24-.06-3.86c-.12-3-.18-4.69-.29-8.07-.07-1.57-.11-2.37-.18-4-.19-2.49-.28-3.76-.46-6.24C65.09,51.73,65,51,64.9,49.6c-.22-1.94-.31-2.91-.55-4.66-.18-1-.26-1.56-.43-2.53-.26-1.41-.39-2.07-.65-3.28-.19-.65-.29-1-.48-1.53a12.72,12.72,0,0,0-1.14-1.89c-.24-.22-.36-.35-.6-.59l-.68-.35h-.69l-1.42.71-.7.68-1,.94-.72,1-1.25,2.15c-.31.65-.46,1-.77,1.6-.43,1.11-.65,1.68-1.09,2.87-.27.84-.41,1.27-.68,2.14-.31,1.27-.47,1.92-.79,3.25-.21,1.1-.32,1.66-.54,2.79-.23,1.37-.34,2.07-.56,3.46-.17,1.2-.25,1.8-.42,3-.06.55-.09.82-.16,1.36-.19,1.9-.29,2.84-.48,4.7-.11,1.32-.17,2-.28,3.26-.06.61-.09.91-.16,1.5-.07,1.17-.11,1.75-.18,2.87s-.07,1.68-.12,2.75-.05,1.58-.08,2.58,0,1.59-.07,2.57,0,1.5,0,2.56.06,1.66.1,2.71.12,1.55.2,2.55c0,.56,0,.83.07,1.38.1.91.14,1.35.23,2.23,0,.41.07.61.12,1,.11.81.16,1.22.27,2,.09.46.13.69.21,1.15.17.81.25,1.21.41,2,.11.47.16.71.26,1.18.22.83.33,1.25.55,2.11l.3,1.08c.23.75.35,1.13.58,1.9.39,1.11.58,1.67,1,2.83.27.62.4.93.67,1.57s.45.85.75,1.43l.7,1.09c.39.52.57.76.94,1.22l.68.51,1.13.51.76.18,1.14-.27.72-.29c.4-.31.6-.46,1-.78s.38-.58.63-1l1-2.33c.22-.59.32-.89.54-1.48.28-1.06.42-1.59.71-2.65.17-.73.26-1.1.44-1.83C64.49,102.56,64.6,102,64.83,100.93Z"/><path class="cls-1" d="M104.3,114c0,.85-.06,1.27-.11,2.12-.07,1.31-.12,2-.21,3.3,0,.81-.08,1.21-.14,2s-.13,1.18-.21,2-.2,1.19-.33,2c-.13.47-.2.71-.33,1.2l-.4.35-.6.6c-.77.19-1.16.27-1.94.42l-.59.25c-.82.56-1.24.83-2.08,1.35l-.62.21-.48-.29c0-.46-.05-.68-.08-1.12.07-.82.11-1.21.17-2,.4-3.61.55-5.14.71-8.49,0-.82.06-1.24.08-2.08a88.57,88.57,0,0,0,0-9.71c0-1.09-.09-1.79-.15-3-.27-4.66-.41-6.8-.7-11.09,0-.94-.08-1.41-.13-2.34-.09-.52-.14-.77-.23-1.29L95.52,88l-.86.33-1.42,1-.57.39c-1.17.29-1.76.44-2.93.71-.8.06-1.19.1-2,.15l-.47.33-.31.62c0,.64-.08,1-.12,1.6,0,1,0,1.44.06,2.41.19,4.38.29,6.56.48,11.17,0,1.16.07,1.84.1,2.91a85.54,85.54,0,0,1-.17,9.24c0,.79-.06,1.18-.11,2-.13,2-.24,3-.54,5.12-.2,1.13-.32,1.7-.57,2.92-.22.74-.34,1.12-.58,1.91-.25.47-.38.7-.65,1.18l-.65.49-.68.21-.6-.09-1.65-.43-.65-.09-2.15.54-.65-.11h-.35l-.39-.26c-.06-.21-.1-.32-.17-.52s0-.4,0-.66c.15-.57.22-.85.34-1.39s.17-.67.27-1.1c.21-.76.31-1.13.48-1.86.36-1.37.5-2,.74-3.36a56.57,56.57,0,0,0,.6-10.63c0-3.29,0-5.45-.08-9.1l0-2.74c-.06-3.63-.09-5.42-.16-9l0-2.73c-.13-3.61-.19-5.43-.3-9.13,0-1.12,0-1.69-.1-3-.18-4.48-.25-7.22-.38-12.85-.14-7.34-.19-11.46-.34-18.78,0-1.7,0-2.54,0-4.16-.08-5.37-.36-7.83-.15-11.72.06-1.17.11-1.75.2-2.92.27-3.88.52-5.8.81-9.66.08-1.16.12-1.75.17-2.91a54.41,54.41,0,0,0-.12-6.25c-.06-1.53-.12-2.3-.31-3.85,0-.87-.07-1.3-.17-2.17.06-.48.09-.73.13-1.21L78.89,0h.61l.65.19c.76.38,1.15.58,1.91,1l.7.27c.66.05,1,.09,1.67.19l.71.32.7.51.63.65c.23.67.34,1,.54,1.66.18,1,.25,1.47.37,2.44.05.51.07.76.1,1.27,0,1.06,0,1.59,0,2.63a70.18,70.18,0,0,1-.65,7.68l-.35,2.73c-.55,4.5-.92,6.75-1.19,11.73-.31,6.28.27,10.3.34,18.17,0,1.15,0,1.73.07,2.89,0,.77.07,1.16.12,1.93.08.38.12.58.19,1l.38.23.51.24h.52c.56-.55.84-.82,1.4-1.33l.56-.2c1,.22,1.42.34,2.37.55.88.38,1.32.56,2.2.9l.56,0,.27-.18c.18-.44.26-.66.44-1.1.07-.59.11-.88.19-1.47,0-.81,0-1.22.08-2,.17-4.8.27-7.19.29-11.73a23.32,23.32,0,0,1,0-2.79c.36-5,.71-7.09,1.3-11.12.15-1,.23-1.47.37-2.43a65.3,65.3,0,0,0,.94-10c.07-1,.1-1.53.13-2.6.12-.52.18-.79.28-1.33l.5,0,.69.55c.93.95,1.39,1.44,2.3,2.4l.66.56c.75.43,1.12.65,1.85,1.09l.65.75.36.32.52.81c.13.65.19,1,.3,1.59,0,.94.05,1.4.06,2.27s-.08,1.3-.16,2.12c-.25,2.14-.43,3.1-.8,5.08-.14.8-.22,1.2-.37,2-.4,2.74-.64,4.1-1,7.51-.12,1-.18,1.56-.28,2.69-.38,3.75-.18,5.22-.35,8.36,0,1-.07,1.43-.12,2.37-.11,3.12-.2,4.63-.33,7.69l-.15,2.32c-.23,3.1-.34,4.67-.41,8,0,1,0,1.57.07,2.73.16,3.85.24,5.59.41,9,.06,1,.09,1.54.15,2.55.21,3.36.32,5,.53,8.38.06,1,.09,1.55.15,2.61.18,3.52.32,5.72.42,9.23A86.58,86.58,0,0,1,104.3,114Z"/><path class="cls-1" d="M139.41,43.3a8.86,8.86,0,0,1,.16,1.81c0,9.75-.89,8.27-1.4,14.48-.14,2.42-.1,5-.07,7.45,0,.7,0,1,0,1.58,0,4.7,0,3.92-.05,9.09,0,.67,0,1,0,1.86,0,.39,0,.55-.05,1,0,1,0,1.48-.08,2.33a40,40,0,0,1-.48,4.8c-.21,1.84-.35,2.49-.56,4.31-.08.45-.11.69-.18,1.19s-.17.71-.28,1.23-.27.82-.45,1.41c-.2.44-.3.66-.5,1.13-.18.27-.26.4-.43.68l-.66.62c-1,.84-1.42,1.26-2.37,2.14l-.75.74-1.15,1.11-.74.64-.58.12-.53-.15c-.19-.26-.29-.38-.48-.61l-.29-1.12c-.15-1-.21-1.49-.32-2.39-.09-.38-.14-.56-.22-.93-.42-1.32-.61-1.94-1.05-3.6l-.31-1c-.47-1.77-.75-3.18-1.43-5.35-.16-.61-.24-.89-.39-1.44-.61-2.21-.92-3-1.54-4.79l-.4-1c-.69-1.57-1-2.34-1.73-4.27-.18-.48-.27-.73-.45-1.25A52.73,52.73,0,0,1,118,68.68c-.15-.51-.23-.76-.38-1.24-.13.19-.19.29-.31.48-.07.76-.09,1.18-.14,1.91,0,3.06,0,4.34-.08,6.81,0,.78,0,1.16,0,1.91,0,2.36.05,3.43.08,5.79,0,.75,0,1.14,0,1.92,0,2.75.07,4.22.06,7.77,0,1,0,1.51-.07,2.45a73.43,73.43,0,0,1-.82,7.67c-.09.79-.14,1.18-.23,2-.17,1.9-.26,2.82-.39,4.78-.08.8-.11,1.21-.17,2.06s-.17,1.14-.28,1.94c-.14.53-.22.8-.36,1.35-.13.25-.19.38-.32.64l-.54.9-.36.55-.75,1a15.53,15.53,0,0,1-1.37,1.4l-.47.49c-.49.61-.74.91-1.25,1.5l-.5.44-.46.25-.33,0c-.09-.23-.13-.35-.22-.57,0-.39,0-.58-.07-1,0-.57,0-.86,0-1.41s0-.6,0-1c.07-.86.11-1.27.18-2.1.19-1.83.29-2.72.48-4.5.09-.87.13-1.3.22-2.17.19-2.84.28-4.25.27-7.48,0-1,0-1.48,0-2.53-.1-8-.4-11.83-.69-19,0-.94,0-1.42-.07-2.37-.09-3.17-.14-4.79-.21-8.45,0-1.11,0-1.67,0-2.64a90.27,90.27,0,0,1,.56-9.24c.19-2.61.31-3.84.48-6.55.06-.81.1-1.22.15-2.07.26-2.79.18-4.32.49-7.8,0-1.06.08-1.55.15-2.48.22-3.13.38-4.27.66-6.59.09-.68.13-1,.22-1.69.14-.95.21-1.42.33-2.42.1-.64.14-1,.23-1.65s.14-1,.22-1.75c.07-.53.1-.81.16-1.39.06-.34.09-.52.15-.89.09-.09.14-.13.23-.23l.4.09,1,.76,1,1.32c1,1,1.47,1.57,2.39,2.48l.37.48c.06.26.1.39.16.64.07.5.11.74.18,1.19a21.71,21.71,0,0,0,1.44,4.63c.14.38.22.56.37.91.56,1.37.86,1.88,1.53,3.38.18.38.27.57.46,1a25.32,25.32,0,0,1,1.88,6c.16.75.24,1.11.39,1.79.52,2.85.72,3.94,1.1,6,.1.49.14.73.24,1.2.41,1.88.6,2.7,1,4.66.13.49.19.74.32,1.26.43,2.19.7,4.08,1.33,6.62.14.35.21.51.35.83l.36,0,.31-.7c0-.57,0-.92,0-1.63-.1-2.68-.1-3.71-.06-5.57.05-.71.08-1,.13-1.69.26-1.75.41-2.48.69-4.09.08-.59.13-.89.2-1.52a59.26,59.26,0,0,0,.32-7.52,14.78,14.78,0,0,0-.12-2.26c-.27-2.78-.33-3.25-.44-4.08-.06-.22-.09-.31-.15-.49a11.17,11.17,0,0,1-.39-1.13c-.08-.37-.12-.58-.21-1.18,0-.3,0-.47,0-.86,0-.23.05-.35.08-.62l.25-.27.49,0,.4.13.73.13c.8.36,1.21.53,2,.85l.73.19,1.53.16.71.24,1.09.29.54.27.37.3c.14.24.22.35.36.56.09.38.13.53.21.79a3,3,0,0,0,.12.36,2.47,2.47,0,0,0,.15.46c0,.23,0,.26.06.39a1.15,1.15,0,0,0,0,.2C139.14,40.89,139.18,41.09,139.41,43.3Z"/><path class="cls-1" d="M211.43,27.44c-.94,4.06-1.56.95-2.71,5.44a15.66,15.66,0,0,0-.36,1.59c-.43,2.74-.53,5.29-.85,7.17-.12.52-.17.74-.29,1.13A15.57,15.57,0,0,1,206,45.54c-.1.28-.15.42-.25.76a24.81,24.81,0,0,0-.81,5.3c-.11,1-.17,1.58-.27,2.54a40.29,40.29,0,0,1-1.08,5.61c-.1.48-.14.7-.24,1.12-.24,1.46-.36,1.91-.62,3.65-.08.46-.13.71-.21,1.26-.46,2-.71,4.3-1.21,7.18-.1.78-.15,1.12-.24,1.73a13.81,13.81,0,0,1-.91,3.66c-.1.28-.15.4-.25.67a12.83,12.83,0,0,0-.85,3.34c-.08.36-.12.56-.2,1-.09.21-.14.32-.23.55l-.33.09c-1.26-.24-1.88-.35-3.14-.57-1.45-.38-2.18-.57-3.63-.91l-.47-.25c-.09-.33-.14-.48-.23-.76a7,7,0,0,0-1.16-2.75c-.09-.2-.14-.28-.23-.47a7.4,7.4,0,0,1-.84-2.4c-.08-.41-.11-.64-.19-1.19-.34-2-.51-4.41-.83-6.59-.09-.6-.13-.86-.22-1.32a10.3,10.3,0,0,0-.87-2.78c-.1-.22-.15-.32-.26-.53a11.18,11.18,0,0,1-.76-2.71c-.08-.28-.13-.44-.21-.78h-.14c-.08.37-.11.53-.19.84a9.61,9.61,0,0,1-.9,2.87l-.25.53a8.06,8.06,0,0,0-1.18,2.54c-.1.44-.15.68-.25,1.25-.32,2.15-.46,4.75-.75,6.77-.08.54-.13.76-.22,1.15a5,5,0,0,1-.75,2.09l-.26.35a5.35,5.35,0,0,0-.83,2.35c-.09.35-.13.55-.22,1-.2.2-.3.3-.49.52-1.12-.28-1.68-.41-2.78-.65h-.71c-1.11.18-1.65.26-2.74.52-.16-.23-.24-.33-.4-.53-.08-.49-.11-.7-.19-1.07a3.8,3.8,0,0,0-1.28-2.29l-.23-.34a7.05,7.05,0,0,1-.65-2.78c-.09-.54-.14-.84-.23-1.58-.45-2.72-.66-5-1.06-6.55-.09-.42-.14-.59-.23-.9a12.26,12.26,0,0,0-.78-1.94c-.07-.22-.11-.34-.18-.63a30.34,30.34,0,0,1-.66-4.87c-.08-.83-.13-1.38-.21-2.17-.8-6.64-.73-3.84-1.18-6.26-.06-.29-.09-.45-.15-.87-.17-1.56-.39-4.09-.63-6.38-.1-.65-.15-.91-.23-1.32-.29-1.35-.37-1.32-.56-1.36h-.13c-.13,0-.19.14-.49-1.19,0-.28,0-.45,0-.86a6.23,6.23,0,0,0,.31-.68c.22-.14.33-.21.55-.37l.73-.07,1.89.13.77-.09c1.33-.1,2-.16,3.27-.28l2.5-.34.58,0c.06.16.1.24.16.39v.85c.16,1.92.09,1.62,0,1.73a.3.3,0,0,0-.05.1c-.08.24-.13.3.09,3.36.06.72.1,1.17.18,2.13a29.12,29.12,0,0,0,.84,5.26c0,.21.05.28.08.41a7.83,7.83,0,0,1,.31,1.42c0,.28,0,.46,0,.91.06,1.78.2,5,.38,7.54.07.35.1.52.16.81l.27.07c.11-.26.17-.41.28-.72.33-2,.45-4.52.84-6.58a8.88,8.88,0,0,1,.3-1.21c.36-1.52.58-1.6,1-2a4.2,4.2,0,0,0,.32-.29c.45-.4.67-.55,1.06-2,.1-.45.15-.71.25-1.35.38-2.23.55-4.9,1.22-6.68a5.68,5.68,0,0,1,.44-1,2.89,2.89,0,0,1,1.94-1.55,4.92,4.92,0,0,0,.58-.26A3.17,3.17,0,0,0,186.15,36a8.19,8.19,0,0,0,.39-1c.13-.22.19-.33.32-.58s.33-.2.55-.35c1-.41,1.43-.63,2.36-1.07l.68-.31,1-.14.65-.18.63-.06a4,4,0,0,0,.36.35c0,.42,0,.61.07.94s0,.39,0,.61c0,.38,0,.53,0,.78a2.58,2.58,0,0,1-.19.8,1,1,0,0,1-.13.2c-.24.29-.38.26-.55,1.42a8.11,8.11,0,0,0-.11.95,42,42,0,0,0,.15,6.44c0,.58.07.83.12,1.25a20.94,20.94,0,0,0,.24,2.32c.05.13.08.19.14.32a4.36,4.36,0,0,1,.82,2c.05.4.07.63.13,1.18,0,.91,0,1.47.09,2.89.05,1,.08,1.5.13,2.32s.11,1.1.18,1.7c.11.31.17.45.28.72l.27-.14c.1-.42.14-.64.23-1.14.23-2.58.33-5.42.63-7.46a10.78,10.78,0,0,1,.24-1.13,6.38,6.38,0,0,1,.46-1.13c.12-.26.18-.36.3-.58s.28-.44.47-.76a6.52,6.52,0,0,0,.3-.64,13.43,13.43,0,0,0,.62-3.44c.1-.74.15-1.16.24-2.14a17.25,17.25,0,0,1,1.31-5.48,5.17,5.17,0,0,1,.5-.9,4.34,4.34,0,0,1,1.57-1.41,5,5,0,0,0,.45-.38,3.55,3.55,0,0,0,1-1.81,10,10,0,0,0,.31-1.06c.13-.31.19-.47.32-.82l.47-.4c.76-.1,1.14-.16,1.9-.28l.59-.22,2-1.08.58-.22,1.9-.31.4-.15c.06.1.08.15.14.24C211.48,27,211.47,27.14,211.43,27.44Z"/><path class="cls-1" d="M224.58,72c0,.92,0,1.33,0,2.08-.12,2.52-.19,3.22-.34,4.67l-.05,1c-.1,1.42-.15,2-.22,4.25,0,.45,0,.69,0,1.2-.06.23-.09.35-.15.6l-.37.35-.64.09L220.43,86l-2.86-.24L215.25,85l-.28-.26-.13-.35c0-.45,0-.65,0-1,0-1,0-1.35,0-2,0-.44,0-.64,0-1s0-.53,0-.87,0-.51,0-.87c0-1.28,0-1.89,0-4.33,0-.72,0-1.12.07-2,.07-3.08.07-5.13,0-7.31,0-.64,0-.93,0-1.49-.16-1.88-.25-2.48-.41-4.15,0-.49-.05-.74-.08-1.28-.11-1.84-.16-2.86-.21-6.2,0-5.34,0-6.72,0-8.38,0-1.06,0-1.31-.06-2.77V39.41c0-1.88,0-4.33.05-6.85a27.73,27.73,0,0,1,.13-4.12c0-.38,0-.45,0-2.08.05-.35.08-.54.13-1,.09-.19.13-.29.22-.49l.38-.25.29-.1.56-.32.91-.22.6-.21,1.76-.84c1-.33,1.45-.5,2.44-.82l.45.08c0,.25.06.37.1.59,0,.42.05.6.09.93a8.19,8.19,0,0,0,.22,1.4,4.13,4.13,0,0,0,.13.49c.24,1,.4,0,.54,4.64.09,2.53.08,5,.14,6.93,0,.58,0,.84,0,1.3,0,1.59.05,1.93.09,3.14,0,.34,0,.53,0,.93.06,1.38.1,2.17.14,5.26,0,.92,0,1.51,0,2.51,0,3.39,0,4.5.13,6.52.2,3.24.37,3.95.55,7.69C224.48,66.84,224.55,68.89,224.58,72Z"/><path class="cls-1" d="M258,78.72l-.33.52-.75,1c-.2.23-.3.35-.5.6s-.48.58-.8,1c-.2.24-.3.37-.5.63s-.51.56-.84,1-.33.4-.55.69c-.39.45-.58.69-1,1.21l-.63.61-.71.66-.72.42c-.42.29-.63.43-1,.74-.59.24-.88.37-1.47.63l-.76.17-1.06.34-2.2,0-.72-.14c-.29-.13-.44-.19-.73-.3s-.43-.28-.72-.45-.43-.35-.72-.57-.38-.42-.64-.68c-.77-.63-1.15-.92-1.92-1.47-.37-.36-.56-.54-.93-.87-.22-.25-.33-.37-.55-.6-.32-.43-.48-.63-.8-1s-.29-.46-.49-.75-.32-.43-.54-.7l-.58-.66c-.42-.63-.63-.92-1-1.54-.2-.34-.29-.51-.49-.86s-.26-.58-.44-1-.26-.74-.44-1.3-.21-.8-.36-1.41-.2-1-.33-1.67-.18-1.13-.3-2c-.17-1.31-.27-2.06-.47-3.25a42.3,42.3,0,0,0-.88-4.91c-.17-.78-.27-1.14-.45-1.84-.27-1.06-.41-1.54-.67-2.58-.08-.52-.12-.78-.2-1.33-.08-.85-.12-1.29-.19-2.29,0-.66,0-1,0-1.75s0-1.22,0-2.15,0-1.6,0-2.67c0-2.12,0-2.89,0-4.18V42.73c0-.46.05-.66.09-1,0-.56.06-.79.1-1.28.05-.33.07-.5.12-.84s.11-.52.17-.9.11-.55.18-1c.1-.61.15-.94.25-1.74.11-.56.17-.87.28-1.56s.17-1.15.29-2.06.21-1.48.33-2.31.21-1.19.35-1.82.2-.83.33-1.28a9.46,9.46,0,0,1,.37-.91c.16-.34.24-.49.39-.75a7.09,7.09,0,0,1,.45-.57l.44-.43.48-.43c.17-.16.26-.24.43-.42a7.86,7.86,0,0,0,1.22-1.18c.2-.21.3-.33.5-.57s.33-.38.56-.67a13.6,13.6,0,0,0,1.21-1.46c.28-.3.43-.45.71-.77s.4-.42.67-.72c.58-.49.87-.76,1.45-1.31l.73-.56.73-.41,1.34-.49,1-.45.65.11,1,.08,1.62.67.62.42,1,.51a18.82,18.82,0,0,0,1.58,1.2c.25.28.38.4.64.65a11.86,11.86,0,0,0,1,1.21c.27.26.41.39.68.62a12.19,12.19,0,0,0,1.3,1.15c.63.49.95.69,1.58,1.11l.57.38.31.25c.15.13.23.2.38.35s.1.25.17.43,0,.27,0,.47-.12.3-.2.53-.18.48-.3.85-.25.57-.41,1-.25.62-.43,1.1-.26.67-.44,1.17-.27.95-.46,1.68c-.28,1.33-.44,2-.73,3-.19.61-.28.88-.47,1.39-.08.21-.13.31-.21.5s-.23.46-.38.74l-.3.25-.31.09-.31-.17c-.2-.19-.3-.3-.5-.52a15.85,15.85,0,0,1-.86-1.43c-.23-.32-.34-.49-.58-.84-.39-.51-.58-.79-1-1.38-.25-.3-.38-.45-.62-.77l-1-1-.67-.48-1.1-.3h-.71l-1,.3-.69.64c-.39.46-.58.71-1,1.14s-.39.56-.65.9l-.57.69c-.35.53-.52.77-.87,1.23s-.36.66-.59,1.06c-.12.24-.18.35-.3.57-.19.46-.29.68-.49,1.07s-.21.61-.35,1-.15.48-.26.78L238,40c-.09.33-.13.5-.21.85s-.1.56-.16,1-.05.7-.08,1.26,0,.77-.05,1.39c0,1.24,0,2,0,3.89,0,1,0,1.55,0,2.46,0,1.42.07,2,.14,3.19.05.68.07,1,.13,1.62.14.94.21,1.37.36,2.2.13.55.2.82.33,1.35s.25.9.42,1.51.27.82.45,1.4c.31.84.47,1.28.77,2.25.21.53.32.81.52,1.39.35.78.53,1.19.87,2.09.23.51.34.77.57,1.32s.52.95.85,1.59c.25.38.38.57.63.92s.55.53.91.86l.67.41,1,.14.95,0,.59-.39.33-.27c.25-.27.37-.41.62-.7.42-.52.62-.8,1-1.38.26-.46.38-.67.64-1.09s.37-.63.61-1,.31-.59.52-1c.3-.65.45-1,.76-1.55s.31-.72.52-1.18.24-.48.4-.79l.24-.22.37.22c.19.31.28.47.47.8s.27.7.45,1.2c.07.3.11.45.17.76.17.58.25.88.42,1.51.27,1.14.4,1.83.66,3.08.16.75.24,1.1.4,1.74a26.48,26.48,0,0,0,1.07,3.43c.15.43.22.63.36,1l.2.39c.08.27.12.4.2.65S258,78.56,258,78.72Z"/><path class="cls-1" d="M289.35,83.42c.1.33.15.5.25.88-.05.21-.08.32-.13.54s-.07.41-.12.71l-.3.51h-.57l-2.37-.5h-.69l-2.72-.1H282l-2.72.41-.51-.11c-.16-.35-.24-.52-.4-.83a15.64,15.64,0,0,0-1.56-3.41c-.16-.32-.24-.48-.41-.77-.56-1.09-.84-1.49-1.4-2.66-.16-.29-.24-.44-.4-.77a16.91,16.91,0,0,1-1.66-3.8c-.17-.61-.26-.94-.42-1.65-.55-2.32-.79-3.76-1.25-5.83-.11-.58-.17-.86-.27-1.41s-.09-.66-.15-1.09c-.11-.14-.17-.21-.27-.35l-.28.47c-.06.61-.09.93-.15,1.59-.14,3.51-.13,6.67-.1,9.61,0,2.3,0,2.91,0,4.23,0,.39,0,.58,0,1,0,.58,0,.86.07,1.54,0,.42,0,.64,0,1.14s0,.77,0,1.38c0,.4,0,.62,0,1.08l-.2.48-.5.26-1.29.29-1.29,0-1.9-.46-.67.14-2.07.57c-.13-.16-.2-.23-.33-.38-.06-.31-.1-.45-.16-.73s0-.62,0-1c0-.58,0-.84-.05-1.33V81.8c0-.73,0-1,.05-1.68,0-.43,0-.63,0-1.07-.07-1.39-.1-2-.16-4.41,0-3.08,0-6.28,0-9.69,0-.78,0-1.14.07-1.86.11-2.44.17-3.43.28-5.68,0-.66.06-1,.09-1.68.08-3,.11-5.24.1-9.35,0-3.17-.08-4-.15-5.26,0-.39,0-.56,0-.88,0-1.1,0-1.37,0-2.77,0-.41,0-.63,0-1.16-.1-4.09-.14-10.4-.67-12.91-.07-.33-.1-.47-.16-.78a21.66,21.66,0,0,1-.36-3.47c0-.44,0-.69,0-1.24,0-.22.06-.34.1-.59l.43-.24.67.13,1.38.4H264l2-.44.71,0,2,.44.49.13.24.35c.07.37.11.53.18.85s.07.57.11.9,0,.62.06,1c.07.89.11,1.19.19,1.82.05.3.07.45.12.77a17.32,17.32,0,0,1,.58,3.7c0,.66.05,1,.07,1.9.1,2.85.06,5,.09,6.86,0,.38.06.54.1.85l.35.14.48-.51a23.1,23.1,0,0,0,1.35-4.91c1-4.15,1.31-5.33,2-6.87.39-1,.57-1.3.95-2.13.13-.23.19-.35.32-.6a14.12,14.12,0,0,0,1.24-2.93l.31-.85.43-.22,2-.31.71,0c1.08.23,1.63.33,2.71.54l1.68.15h.71l1.67-.1.49.11c.09.19.14.27.23.44l.1.21,0,.3c-.12.35-.18.52-.29.82a12.17,12.17,0,0,1-1.31,2.59c-.13.23-.2.34-.33.55a15.46,15.46,0,0,0-1.12,2.52c-.13.35-.21.55-.35,1-.58,1.54-.9,3-1.59,5.53-.18.71-.27,1-.44,1.6a10.77,10.77,0,0,1-1.62,3.6c-.18.25-.27.37-.44.58-.63.78-.94,1-1.56,1.81-.19.23-.28.35-.47.62a8.2,8.2,0,0,0-1.09,1.63,12.45,12.45,0,0,0-.48,1.16c-.08.26-.13.39-.21.68s-.13.59-.22,1,.05.5.08.85c.13.54.19.85.3,1.42.61,3.12.86,4.36,1.32,6.71.15.57.22.85.36,1.4.58,2,.85,2.93,1.39,4.9.12.54.18.81.29,1.36.45,2.21.68,3.36,1.23,6.13.14.69.22,1,.37,1.8a32.81,32.81,0,0,0,1.79,6.14,11.07,11.07,0,0,0,.46,1.07,15.07,15.07,0,0,0,2,2.92l.49.67A13.45,13.45,0,0,1,289.35,83.42Z"/></g></g></svg>