<svg xmlns="http://www.w3.org/2000/svg" viewBox="0 0 299.63 91.53"><defs><style>.cls-1{fill:#1d71b8;}</style></defs><g id="Calque_2" data-name="Calque 2"><g id="Calque_2-2" data-name="Calque 2"><path class="cls-1" d="M19.59,86.83c.07.18.1.28.19.5l.15.34c0,.2.07.3.12.54l-.05.37-.17.17-.29.12h-.26l-.45.06c-1.54-.16-2.31-.23-3.86-.37l-2.51,0c-1.14.12-1.71.19-2.84.33l-2-.26-2.47,0-1.44.16h-.5l-.5-.07-.43-.13-.35-.23A4.57,4.57,0,0,0,1.54,88a4.76,4.76,0,0,0-.37-.49,3.32,3.32,0,0,0-.33-.44c-.22-.33-.28-.36-.35-.5a.48.48,0,0,1-.09-.14C.21,86.2.17,86.1.1,85.05v-1c0-1.51,0-2.41.07-2.79v-.17c0-.19,0,2,.06-1.39V78.51C.18,75.14.15,77.45.1,77.37v-.14c0-.34,0-1.2,0-2.75V71.39c0-.21,0-.3-.07-.58v-.4c0-.12,0-.18,0-.31s.06-.31.1-.56a3.05,3.05,0,0,0,.13-.32l.24-.17.36-.14h.26l.5-.09c.65,0,1,0,1.63,0l.54-.08a23,23,0,0,0,2.37-.53l.34-.08.23.16c.07.14.1.2.17.32,0,1.66,0,1.57,0,2.4,0,.56,0,.85.08,2.32v1.15a10.49,10.49,0,0,1-.11,2.11v0s0-.33.06-.15v.23c0,.5,0,1.84.09,3,0,.34,0,.47,0,.68-.08,1.71-.12-.8-.19,1.37,0,.17,0,.26,0,.48s0,.17,0,.29,0,.19.07.33.1.16.16.28l.41.14,1.16.1,1-.2.55,0c2-.18,3-.28,4.95-.5l.55-.12L17,82.16l.55-.11.52,0,.42.16.25.42c0,.2.07.3.11.48s0,.41.05.65a8.68,8.68,0,0,0,.2,2,3.84,3.84,0,0,0,.14.36C19.34,86.37,19.41,86.49,19.59,86.83Z"/><path class="cls-1" d="M43.05,83.39c0,.34,0,.5,0,.83,0,1.13,0,1.66.08,2.94,0,.24,0,.36,0,.61s0,.27-.08.45-.08.16-.14.26c-1.74.13-2.61.19-4.35.3H38l-1.83-.25-.53.07L34,88.87l-.52.07H31.17l-1.81-.24h-.54L26,89l-1.18-.13-.44-.12-.34-.28c-.09-.16-.14-.23-.23-.37s-.15-.32-.25-.5l-.37-.84-.2-.46c0-.16-.05-.24-.08-.39s-.06-.24-.09-.4a15,15,0,0,1,0-2c0-.33,0-.51,0-.93v-3c0-.22,0-.32,0-.49-.06-.56-.09-.65-.15-1.08,0-.13,0-.2,0-.37,0-.57,0-.93,0-2.43,0-2.35,0-3,.08-3.55a8.54,8.54,0,0,0,.19-1c0-.14,0-.22,0-.42,0-.67,0-1.46-.08-2.87,0-.42,0-.61-.06-1,0-.54,0-.76,0-1.17s0-.75,0-1.18c0-.2,0-.3,0-.5,0-.72,0-1,0-2,0-.26,0-.4,0-.71s.06-.3.09-.51L23,60l.27-.25.45-.43c.9-.51,1.35-.78,2.25-1.34s1.27-1,2.11-1.62l.56-.42c.83-.54,1.25-.81,2.09-1.38l.56-.44c.83-.76,1.24-1.15,2.08-1.94l.55-.46c1.9-1.51,2.85-2.3,4.75-3.89l.59-.58,1.18-1.24.87-.77.49-.22.23.15c0,.17,0,.25.08.41,0,.31.07.47.11.77,0,.67,0,1,.07,1.6v1.46c0,.38,0,.57,0,.95,0,.56.06.84.1,1.43,0,.35,0,.53.08.9v1c0,.35,0,.53,0,.9s-.07.36-.12.61-.09.26-.16.43l-.42.46-.28.19-.56.47c-1.31.87-2,1.3-3.29,2.14l-.56.39L35.28,60.7l-.57.37-1.82,1.07-1.58.8-.53.34-.28.25-.35.37c-.08.2-.11.29-.19.47s0,.26,0,.42-.05.44-.09.69c0,.54-.06.76-.1,1.15s0,.35,0,.56,0,.3,0,.47a2.46,2.46,0,0,0,0,.28.94.94,0,0,0,.06.15l.13.06.38-.11,1.12-.51,1.12-.63c1.33-.69,2-1,3.33-1.75,1.57-.93,2.35-1.42,3.92-2.41l1.08-.52.38-.12.2.13.1.23c0,.21,0,.31,0,.53s0,.51,0,.87,0,.57,0,1c0,.83-.07,1.29,0,2.36,0,.74.06,1.08.1,1.7,0,.84,0,1.22,0,1.93,0,.29,0,.43-.06.71s-.07.26-.13.43l-.23.36-.35.22-.7.24-1.58.3-.56.14c-1.11.49-1.67.72-2.79,1.17L33,75.06l-.56.18-1.4.33-.59.22L30,76l-.17.16-.1.25c0,.19,0,.29,0,.48s0,.49-.08.86,0,.37,0,.65,0,.6,0,1.11c0,.22,0,.34,0,.61s.07.27.12.46.08.16.14.28l.39,0,1.93-.15.56-.09c.76-.25,1.14-.37,1.89-.63l2.5-.12.56-.1L40.27,79l.53-.1.52,0c.51,0,.76.06,1.26.08.08.07.13.1.21.18l.13.4c0,.31,0,.45,0,.74C43,81.66,43,82.24,43.05,83.39Z"/><path class="cls-1" d="M83.11,48.06c-.06,1.11-.09,1.65-.14,2.67-.33,3.89-.42,4.82-.43,7.09,0,3.3.08,4.89.14,8.15v3.67c0,2.08.06,3.25.1,5.55v1.08c-.08.39-.11.58-.18,1s-.15.76-.24,1.27l-.28,1.26c-.21.67-.32,1-.53,1.66l-.37,1.07-.19.59c-.17.35-.25.53-.41.88l-.23.39-.41.78-.64,1c-.2.23-.3.35-.49.59l-.45.48-.75.69-.49.39-.52.29-.49.3-.75.29-.46.19-.49.29-1.32.48-.49.1-1-.19-.76-.19-.53-.18-.53-.28-.5-.37c-.47-.37-.7-.55-1.17-.9l-.49-.36-.5-.44-.67-.61L66,86.08l-.66-1-.4-.77-.43-.76c-.16-.34-.24-.5-.39-.84L63.7,82c-.14-.33-.21-.49-.36-.82-.21-.53-.31-.79-.52-1.3s-.19-.59-.32-1-.21-.73-.36-1.21-.17-.67-.29-1.11c-.33-1.44-.49-2.14-.83-3.57l-.23-1.28c-.1-.48-.15-.72-.24-1.19s-.1-.77-.17-1.28-.11-.81-.17-1.35-.07-.78-.11-1.29S60,65.83,60,65.29s0-.78-.07-1.3c-.05-.7-.08-1.06-.14-1.76,0-.53,0-.79-.07-1.31s0-.75,0-1.25V58.4c0-1.53.07-2.28.12-3.77,0-.27,0-.41.07-.68,0-.58.06-.86.11-1.44s.08-.87.14-1.45.1-.84.17-1.4.1-.89.17-1.49.11-.85.17-1.42.11-.81.17-1.35.15-.89.24-1.49.14-.95.23-1.58.14-.8.23-1.33c.17-.72.26-1.08.43-1.81.12-.48.15-.71.25-1.18l.3-1.31.3-1.24.33-1.18c.29-1,.44-1.45.73-2.43l.37-1.15.35-1c.13-.38.2-.57.34-1l1-2.4.45-1.13.52-1,.53-.84.51-.74,1.21-1.43c.39-.43.58-.65,1-1.08l.51-.63c.2-.23.31-.34.51-.56l.81-.76.57-.49.8-.41.55-.3.85-.35.53-.12.84-.25.58-.06h.85l.59,0,1.44.54.61.35.53.4.2.12.45.29.45.37.2.28.46.37.24.26.26.42v.58c0,.27-.06.4-.11.67s-.13.55-.21.92c-.14.53-.2.79-.33,1.33s-.22.71-.37,1.19c-.42,1.24-.62,1.85-1,3.09-.27.72-.42,1.1-.74,2-.22.56-.32.86-.53,1.46s-.28.75-.47,1.27-.2.57-.33,1l-.25.67-.31.33c-.14-.25-.22-.38-.37-.61s-.26-.45-.44-.73-.27-.33-.45-.52a4.57,4.57,0,0,0-.49-.42,3.93,3.93,0,0,0-.58-.19l-.62,0-.64.14-.63.22-1.71,1-.26.19-.56.51-.91.86-.55.75c-.41.79-.6,1.18-1,1.95-.18.44-.26.66-.44,1.1s-.26.72-.43,1.21-.21.76-.36,1.28-.19.87-.32,1.46-.17.87-.28,1.46l-.25,1.54c-.07.63-.11,1-.18,1.59l-.15,1.67c0,.61-.07.92-.11,1.52-.07,1.2-.1,1.79-.17,2.93,0,.6,0,.9-.08,1.47s0,.9,0,1.48,0,.85,0,1.44c0,.82,0,1.24.08,2.06,0,.55.07.82.11,1.36.07.78.1,1.17.17,2,.07.54.1.81.17,1.34.14.81.2,1.21.34,2l.23,1.16.4,1.49c.13.39.2.58.33,1l.6,1.38.43.81c.26.34.39.51.65.88l.5.5,1,.54.56.13.55,0,.52,0,.52-.24.49-.33c.69-.55,1-.83,1.74-1.37.21-.25.31-.36.52-.58l.48-.65.32-.64c0-.21,0-.32.09-.53l0-1,0-.8c0-.52,0-.79,0-1.31,0-1-.07-1.57-.11-2.62l0-1.48-.14-.52-.36-.15-.78,0-.52.12-.75.32-.51.13-.75.08-.52,0L71.42,62l-.2-.15-.13-.42c0-.42,0-.62-.08-1s0-.42,0-.69l0-1.4V56.06c0-1.05,0-1.53-.06-2.7,0-.59,0-.89,0-1.52,0-.88,0-1.34,0-2.28.05-.51.07-.76.11-1.28.07-.26.1-.39.17-.64l.4-.39c.34-.28.51-.41.85-.7l.58-.35,1.57-.61,2.27-1.28c1.11-.13,1.66-.18,2.78-.24l.57-.19,1.5-1.31.58-.37.28.08.51.36.2.63c0,.42,0,.63,0,1,0,1,0,1.46,0,2.4Z"/><path class="cls-1" d="M109.21,88l-.43.35-2.31,0-1.82-.11h-.53l-1.49.17h-.43l-.3-.36-.27-.73c-.44-1.65-.66-2.48-1.11-4.14-.12-.44-.18-.67-.31-1.11-.44-1.6-.66-2.4-1.11-4-.12-.45-.19-.68-.31-1.13-.4-1.72-.59-2.59-1-4.33-.13-.46-.19-.65-.31-1.07-.45-1.52-.67-2.26-1.12-3.73-.1-.28-.14-.42-.24-.69l-.21-.27-.4-.13-1.08-.27-.43,0-.26.47c0,.44,0,.65-.09,1.09V72.8l.06,1.51c.08,2.13.13,3.19.21,5.31,0,.6,0,.91.06,1.51,0,.91,0,1.37.06,2.27l0,1.52c0,.6,0,.9,0,1.51l0,1.13c-.07.19-.1.28-.16.47l-.36.28H93L91.38,88l-1.52.28h-.53L87.81,88l-.4-.19-.21-.39-.08-1c0-.54,0-.81-.06-1.36L87,83.62c0-1,0-1.51,0-2.52,0-.62,0-.93,0-1.55,0-2.09,0-3.13,0-5.22l0-1.55c-.08-2.1-.11-3-.18-4.83,0-.56,0-.83-.06-1.38,0-1.83-.07-2.73-.11-4.54l0-1.37c0-1.85,0-2.78,0-4.69a11.24,11.24,0,0,1,.1-1.69c.27-2.82.41-4.84.68-9,.1-1.25.14-1.89.24-3.19.36-4.38.54-6.78.9-11,.09-1.24.14-1.84.24-3,.34-3.8.67-5.59.68-7.23,0-.49,0-.74,0-1.24-.05-1.68-.07-2.56-.11-4.3,0-.52,0-.78,0-1.3,0-1.05-.08-1.58-.13-2.62,0-.49,0-.74,0-1.23,0-.2,0-.3,0-.5l.1-1.1c.1-.31.14-.46.24-.77l.48-.52.32-.26.61-.44,1.82-.89c1.92-1,2.87-1.42,4.74-2.26,1.07-.67,1.6-1,2.65-1.6l.61-.29c1-.36,1.51-.52,2.49-.82l1.39-.58.62-.17h.53l.74.17.52.18.51.28.54.27.49.38c.17.19.26.29.42.49s.37.5.61.84.21.37.34.62.19.43.31.72l.3.88c.17.59.25.89.41,1.49.11.39.16.58.26,1,.14.56.21.84.34,1.4s.12.61.19,1,.11.64.19,1.06a16,16,0,0,1-.14,2.21c-.11,1.14-.16,1.79-.27,3.2s-.2,2.19-.33,3.82c-.18,2.25-.27,3.47-.45,6-.14,1.84-.22,2.79-.36,4.7s-.24,2.89-.4,4.82-.28,3.07-.46,5.07-.29,3-.49,4.86-.3,2.61-.5,4.2-.32,2.2-.54,3.49-.35,1.89-.58,2.93-.46,1.62-.57,2.12l-.3,1-.3,1-.3.86-.53,1.23-.37.67-.66.8-.4.51-.44.51-.43.19-.27.21.14.65c.5,1.7.75,2.53,1.24,4.26.13.4.19.61.31,1,.49,1.67.74,2.57,1.23,4.35l.35,1.09c.49,1.81.73,2.71,1.22,4.49.14.43.21.65.34,1.08l1.05,3.19.3,1,.17,1C109.29,87.55,109.26,87.71,109.21,88ZM99.51,51.7c.34-.3.51-.46.85-.78l.56-1.08c.23-.62.35-.94.58-1.6.25-1.14.38-1.74.63-3,.24-1.54.36-2.34.6-4s.32-2.64.53-4.43.25-2.7.42-4.49.23-2.84.38-4.68.21-2.72.35-4.43c.09-1.5.13-2.22.22-3.57s.07-2,.12-3.12c0-.9,0-1.32,0-2.08-.07-.55-.11-.8-.18-1.25-.14-.26-.26-.23-.46-.31h-.79l-.58.13c-.73.31-1.1.47-1.85.82l-.6.31c-.76.49-1.15.74-1.93,1.26l-.46.34c-.11.14-.16.22-.27.37s-.1.22-.24.59c-.1.59-.15.91-.26,1.61-.17,1.43-.26,2.27-.43,4.08-.1,1.26-.15,1.93-.25,3.32s-.17,2.25-.28,3.84S96,32,95.82,33.68c-.49,5.37-.73,8.27-1.21,13.12-.08,1-.12,1.44-.19,2.35,0,.49,0,.74-.06,1.21l.18.6.37.41,1.7.89.55,0Z"/><path class="cls-1" d="M137.7,86.49c.05.5.08.74.12,1.23s-.13.57-.23.94l-.37.41-.43.15-.48,0-.78-.2-.5-.11-1.52-.07-2.09.26-.44-.35-.2-.69-.17-.94c-.43-2.89-.66-4.37-1.1-7.26-.09-.35-.14-.52-.24-.86l-.3-.18-.39-.08-2-.35h-.53l-2.48-.17-2-.08h-.49l-.5.08h-1.52l-.43.16-.26.42-.2,1c-.31,2.31-.46,3.46-.76,5.77l-.2,1.35c-.14.45-.22.67-.36,1.11l-.5.51-.53-.09-1.91-.27h-.53l-2,.33-.43.08-.4-.53c-.11-.38-.16-.57-.27-1s0-.67,0-1.13l.06-.69.2-1.39.45-2.68.2-1.29c.32-1.93.48-2.89.81-4.8l.2-1.2c.34-1.91.51-2.76.86-4.5.07-.47.11-.7.19-1.16.31-1.66.46-2.47.76-4.13l.2-1.16c.36-1.73.28-1.68,1-4.65.16-.75.24-1.2.39-2.21.94-5.94,1.38-11.79,2.18-21.69.6-7.24.88-11.1,1.37-16.07.13-1.33.19-1.93.31-2.92.35-2.77.4-2.67.58-4,0-.5.08-.75.14-1.27.14-1.49.22-2.28.35-3.87,0-.52.07-.78.11-1.3.13-1.41.19-2.12.3-3.5,0-.37,0-.55.08-.91l.15-.37.2,0c.25.25.8,1,1.45,1.74,1.09,1.46,1.63,2.17,2.68,3.54.61.85.92,1.26,1.52,2.08l.52,1c.11.45.16.68.26,1.13s0,.8,0,1.34c0,1.61,0,2.45-.06,4.11,0,.65,0,1,0,1.62.06,2.12.08,3.19.16,5.17,0,.57,0,.85,0,1.4a20.23,20.23,0,0,0,.54,4.53c.12.68.18,1.09.31,2,.41,3.27.63,5.77,1.09,10.58.13,1.33.2,2,.34,3.34.5,4.57.75,6.95,1.25,10.35.14,1,.21,1.45.36,2.23.5,2.77.76,2.69,1.05,4.29.08.46.12.68.19,1.13.27,1.6.4,2.36.67,3.89.07.42.11.64.19,1.06.41,1.89.62,2.82,1,4.8.31,1.5.47,2.3.79,3.89.09.47.14.71.23,1.19.38,2.17.58,3.3,1,5.54C137.24,83.83,137.4,84.73,137.7,86.49Zm-11.24-23.4c0-.41-.08-.61-.13-1-.29-2.16-.47-2-.9-6.76-.1-1-.15-1.64-.24-2.93-.38-5.06-.57-8.72-.91-15.23-.08-1.44-.12-2.16-.2-3.56l-.3-2.06c-.15-.44-.22-.67-.37-1.12l-.28.47c-.1.92-.15,1.4-.25,2.39-.23,7.15-.36,11.72-.67,18-.07,1.39-.1,2-.17,3.21a45.51,45.51,0,0,1-.83,7.44l-.1,1.18.1.93.36.39.46.15h2.08l1.56.23.43-.31c.1-.24.16-.36.26-.61Z"/><path class="cls-1" d="M162,36c.12.3.35.45.33.64-.08,1.67.67,12.24,1,19.29.18,2.76.16,2.63.2,4.53v1.29c0,4.21,0,6,.06,10.24v1.39c0,.26,0,.4,0,.67,0,.57,0,.88,0,1.5,0,1.74,0,2.68.15,4.59.18,2.3.3,3.51.48,5.82,0,.56,0,.84.06,1.39s0,.7-.06,1.16-.13.62-.22,1c-.12.26-.18.38-.31.63a3.58,3.58,0,0,1-.29.26l-.47.07-1.73.08-.54.06-.85,0-.54,0-.45-.3-.42-.47L158,89c-.14-.49-.22-.74-.36-1.24-.26-1.11-.4-1.67-.67-2.81-.16-.51-.23-.77-.39-1.28-.64-1.93-1-2.9-1.59-4.77l-.38-1.13c-.6-1.79-.87-2.65-1.39-4.26-.12-.43-.18-.64-.29-1.07-.47-1.69-.7-2.49-1.16-4.09l-.3-.92c-.51-1.46-.77-2.18-1.29-3.67-.13-.37-.19-.56-.33-.93-.49-1.54-.61-3.59-1.23-3.84a.75.75,0,0,1-.36-.21l-.21.11a5.37,5.37,0,0,1,0,.54c0,1.68,0,2.47-.06,4v1.23c0,1.54,0,2.29,0,3.82v1.24c0,1.74,0,2.63,0,4.53,0,.54,0,.82,0,1.38,0,2,0,3,.07,5.1l.1,1.49c.15,1.51.23,2.26.37,3.75,0,.59.06.89.09,1.47s0,.7-.06,1.17c-.09.24-.14.36-.23.61l-.23.16-.41.15-.27.07-.57,0-1.57-.18-.55,0-1.39.09-.54,0-.51-.11-.38-.2-.27-.44-.15-.62c0-.35,0-.53-.08-.88l-.05-.63c0-.53,0-.8,0-1.34,0-1.18,0-1.78,0-3,0-.58,0-.87,0-1.45-.1-1.91-.15-2.87-.21-4.71,0-.56,0-.83,0-1.37,0-4.14,0-5.9.07-9.64,0-.49,0-.73,0-1.23,0-1.63.06-2.46.1-4.23a3.28,3.28,0,0,0,0-.88,79.52,79.52,0,0,1-.91-8.75c-.36-3.88-.55-6.22-.91-9.76-.09-1.06-.13-1.56-.22-2.45-.23-2.93-.45-2.86-.41-4,0-.37,0-.57,0-1a30,30,0,0,1,.33-4c.07-.5.1-.76.18-1.27.13-.71.19-1.07.33-1.78.1-.45.16-.67.26-1.11s.17-.63.29-1,.13-.44.22-.71.11-.23.18-.38l.22-.05.35.13.91.54.86.74a23.94,23.94,0,0,0,2.23,1.34l.35.24c0,.12.07.18.11.3s.06.36.09.61c.32,1.31.47,2,.82,3.48l.2.94a20,20,0,0,0,1,3.59c.13.33.2.49.35.8a8,8,0,0,0,1.74,2.34,3.06,3.06,0,0,1,.44.69A33.26,33.26,0,0,1,152,44.44l.46,1.93c.76,3.15,1.14,4.92,1.87,7.64.18.68.28,1,.46,1.6.67,2.48,1,2,1.49,3.69l.27.58.26.08.23-.41c0-.37,0-.49,0-.6a27.52,27.52,0,0,1-.49-3.38c-.07-.8-.11-1.24-.19-2.18-.13-2.51-.22-4-.37-6.83-.07-1-.1-1.54-.17-2.51-.31-3.69-.47-5.46-.6-6.29,0-.22-.08-.23-.21-.49a6.53,6.53,0,0,1-.44-3.36c0-.43,0-.64,0-1.08,0-1,0-1.52.09-2.49.06-.65.1-1,.16-1.54.07-.31.11-.45.17-.72s.11-.25.17-.41l.25-.2.41-.12.3,0,.58-.12c.6,0,.91-.07,1.53-.16l.56-.13c.48-.16.73-.24,1.21-.43l.54-.13.84-.25.39-.06.25,0c.07.1.11.16.18.28,0,.3,0,.46,0,.79s0,.34,0,.57c0,.44-.06.67-.1,1.15-.13.89-.2,1.37-.28,2.29-.06.48-.08.72-.11,1.19A7.42,7.42,0,0,0,162,36Z"/><path class="cls-1" d="M191,60.65c0,.57,0,.86,0,1.42,0,.79,0,1.18,0,1.95,0,.52,0,.78-.09,1.29-.09.73-.13,1.09-.22,1.82-.07.5-.1.75-.16,1.26s-.12.71-.19,1.18l-.2,1.28c-.07.54-.11.82-.19,1.37l-.2,1.23c-.14.73-.22,1.1-.35,1.89-.1.46-.15.7-.23,1.18s-.25.88-.39,1.49c-.11.41-.16.62-.27,1-.18.61-.26.92-.44,1.55-.21.86-.32,1.3-.52,2.18-.13.44-.2.66-.33,1.11l-.48,1.51-.35.81c-.23.44-.34.66-.56,1.11l-.38.6-.66.79c-.18.2-.27.3-.46.49l-.49.4-.51.29-2,.87-.49.09-.72.18h-.53l-1.07-.11-.88-.2h-.53l-1.06.16-.83.07-.57.08-.51-.11-2.35-.08-.51-.11-1.46-.43-.29-.39-.2-.49c-.05-.42-.07-.64-.13-1.07L169,86.74c0-.33,0-.49,0-.81-.07-1.22-.11-1.84-.19-3.07-.05-.58-.07-.86-.12-1.44-.07-.94-.1-1.4-.15-2.32,0-.6-.06-.89-.1-1.47s0-.93-.05-1.52,0-.89,0-1.45c0-1.87,0-2.68,0-4.34V69.07c0-1.63,0-2.43-.07-4,0-.46,0-.69,0-1.15,0-.68,0-1,0-1.72,0-.48,0-.72.06-1.2s0-.84,0-1.4,0-.61,0-1c0-.67-.05-1.18-.13-2.41,0-.81-.07-1.26-.13-2.24,0-.52,0-.79-.07-1.34-.06-1-.1-1.6-.18-2.73-.14-3.53-.24-5.57-.35-8.77,0-1-.07-1.42-.11-2.25-.13-2.74.12-3.14-.36-4.19a3.8,3.8,0,0,1-.28-.9,11,11,0,0,1-.2-3.85c.11-1.27.21-1.95.41-3.2.1-.52.15-.77.25-1.26s.19-.72.32-1.16.13-.48.21-.78L168,23l.48-.47.73-.57.65-.54.7-.54c1.5-1,2.28-1.61,3.88-2.88l.73-.6c.87-.64,1.3-1,2.18-1.68l.36-.25.86-.77c.84-.79,1.27-1.2,2.14-2.06l.79-.79.82-.79L183.57,10c.64-.58,1-.88,1.6-1.48.3-.25.21-.14.33-.19a2.09,2.09,0,0,1,.43-.11l.24,0,.17.18.25,1c0,.25,0,.38,0,.65s0,.48,0,.81,0,.51,0,.86c-.1,1-.14,1.58-.19,2.67-.06.53-.08.8-.12,1.33s-.05.73-.07,1.21c-.08,1-.1,1.53-.1,2.51,0,.47,0,.7,0,1.15s0,.76,0,1.24,0,.87,0,1.41a9,9,0,0,0,.21,2.19c.13.71.2,1.11.35,2s.22,1.44.39,2.51.27,1.65.47,2.84.28,1.81.48,3.07.28,1.92.47,3.23c.25,1.81.37,2.73.62,4.55.18,1.33.28,2,.45,3.28s.28,2,.45,3.36.23,1.82.37,3c.18,1.7.27,2.49.4,3.89.1.94.18,1.54.2,2.1S191,60.07,191,60.65Zm-7.53,6.62c.09-.46.14-.69.23-1.15l.2-1.3c0-.46.08-.69.13-1.16.06-.69.08-1,.13-1.74,0-.44,0-.67,0-1.13,0-.75.05-1,0-1.94-.06-1.34-.13-2.25-.3-4.31-.09-1-.15-1.58-.26-2.73-.19-1.65-.29-2.54-.5-4.36-.16-1.17-.25-1.77-.41-3-.07-.48-.11-.72-.18-1.2-.21-1.2-.32-1.8-.53-3-.34-1.63-.5-2.44-.82-3.95-.09-.36-.14-.53-.23-.88-.18-.76-.27-1.13-.45-1.83s-.27-1-.45-1.65-.25-.72-.42-1.15a13.87,13.87,0,0,0-.67-1.26,3.13,3.13,0,0,0-.39-.36h-.38l-.44.09-.69.44-.49.27-.71.5-.66.35c-.17.15-.25.22-.43.36s-.35.36-.61.59l-.34.39c-.06.18-.09.27-.15.47,0,.4-.06.64-.08,1.17s0,.61,0,1.06c0,.75,0,1.16.06,2.05.11,1.76.19,2.78.34,4.89.09,1.12.13,1.7.22,2.86.13,1.59.19,2.41.32,4,.09,1.13.14,1.69.23,2.76S174.91,53,175,54s.07,1.41.1,2.21c0,1.11,0,1.58,0,2.29,0,1.54,0,2.31,0,3.82,0,.54,0,.81,0,1.34s0,.74,0,1.23c0,.67,0,1-.06,1.68v1.06c0,.71,0,1.06,0,1.77,0,.47,0,.7,0,1.17,0,.76.05,1.14.09,1.92.06.36.08.54.14.91l.2.42.39.08,3.07-.5.76-.08.53-.25.56-.41.53-.49.5-.56.43-.71.59-1.24c.14-.37.2-.56.34-.92C183.23,68.13,183.31,67.84,183.47,67.27Z"/><path class="cls-1" d="M229.3,73.47c0,.63,0,.94,0,1.57V77.6a14,14,0,0,1-.11,1.4c-.12.71-.18,1-.29,1.62-.1.4-.14.59-.23.95s-.22.72-.37,1.16-.19.46-.31.76l-.55,1.09-.37.65-.84,1.14-.43.55c-.19.2-.28.31-.47.52l-.5.54-.53.43-.49.44-1.48.93-.75.35-.52.17-.77.28-.52.07c-.71.17-1.06.25-1.77.4-1.11.14-1.67.2-2.78.29-.71,0-1.06-.06-1.78-.12l-.51,0-1.75.26-.48,0-1.21,0-.51-.17-.44-.16a3.19,3.19,0,0,0-.26-.26c-.06-.18-.09-.26-.16-.44,0-.37,0-.56-.07-.94s0-.7-.06-1.17V87.1L208,85.79c0-.26,0-.39,0-.65l-.05-1.39c0-1.73,0-2.6,0-4.46,0-.57,0-.86,0-1.44,0-.92,0-1.43,0-2.38,0-.57,0-.86-.07-1.42s0-.79-.07-1.32,0-.84,0-1.39c0-.93,0-1.39,0-2.3l-.1-4.06c0-2,0-3,0-5,0-.62,0-1-.09-1.94-.23-3-.4-4.74-.76-8.37-.1-1.09-.15-1.65-.25-2.77-.36-3.71-.56-5.66-.9-9.26-.09-1.08-.13-1.61-.2-2.64-.25-3.43-.4-5.15-.41-7.32,0-.65,0-1,.05-1.66a41,41,0,0,1,.48-6c.1-.75.16-1.12.28-1.87.21-1.41.33-2.12.56-3.51.21-1.05.32-1.57.52-2.59.16-.54.24-.81.4-1.33.17-.18.26-.26.43-.43l.47.08.51.24c1.36.83,2,1.28,3.43,2.24,1.06,1.07,1.61,1.62,2.7,2.75.7.49,1.05.74,1.76,1.26l.52.44L218.87,19l.53.46,1.89,2.06.56.68c.22.32.34.47.56.78.49.9.74,1.34,1.24,2.22l.48,1.07c.25.58.37.87.62,1.44l.42,1.16c.22.68.33,1,.56,1.69l.32,1.22c.19.73.28,1.1.48,1.82.09.52.14.77.24,1.29.16.76.25,1.14.42,1.9.1.54.16.81.27,1.35s.15.86.26,1.44.13.9.24,1.52a22.55,22.55,0,0,1,.16,2.64c0,.64,0,1,0,1.58s0,1,0,1.61-.05.94-.08,1.57c-.07.84-.1,1.26-.16,2.11-.07.5-.11.76-.18,1.28-.13.69-.2,1-.33,1.76-.13.4-.19.61-.32,1s-.31.85-.51,1.44c-.1.32-.16.48-.26.8s-.05.43-.09.72l.1.84.3,1c.15.46.24.68.41,1.12s.26.78.43,1.29L228,64c.13.59.2.88.33,1.47s.16.93.27,1.55l.15.78.2,1.55c.07.66.11,1,.18,1.65l.1,1.65C229.27,73,229.28,73.12,229.3,73.47ZM212.64,40.13c.05.48.08.72.12,1.21.09,1,.13,1.46.22,2.44l.2,1.7c.09.38.13.58.21,1l.33.68.43.26,1.39.38.58,0,.6.16.82.5,1.19.6.77.2.43-.25.37-.64c.12-.31.19-.46.31-.76s.11-.55.19-.91.09-.69.16-1.14c0-.67,0-1,0-1.66,0-.82-.06-1.23-.09-2-.06-.64-.1-1-.16-1.6l-.37-1.7-.53-1.46-.23-.36c-.22-.31-.32-.48-.56-.77l-.27-.25-.65-.55-.34-.2-1.49-1.31-.55-.32-.92-.42-.59-.23-.78-.42h-.35l-.33-.08-.2.17c0,.17-.07.32-.12.54,0,.63,0,1,0,1.63,0,1.27,0,1.93.09,3.29C212.56,38.72,212.59,39.18,212.64,40.13Zm9.46,38.38c.09-.28.14-.42.24-.7s.07-.36.11-.6c.08-.61.11-.9.19-1.5l.05-1.59,0-.6c0-.56-.05-.83-.08-1.39s-.08-.83-.14-1.38l-.3-1.39-.22-.7c-.19-.51-.28-.77-.47-1.29l-.55-.9-.51-.51-.23-.2-.47-.11-1.48.15-.55.08-2-.08-.49.07-.59.26-.29.28c0,.19,0,.29-.08.48V68c0,.66,0,1,0,1.64s.05.92.08,1.54c0,.85,0,1.28.06,2.13,0,.66,0,1,0,1.65s0,1.18.06,2c0,.44.06.66.09,1.11.06.24.07.34.12.56s.13.23.22.38l.42.22c1.88.08,2.81.1,4.68.09l1.13-.12.53-.25A3.34,3.34,0,0,0,222.1,78.51Z"/><path class="cls-1" d="M251.09,76.52c0,.19,0,.29.08.52s0,.19.06.33,0,.33,0,.57-.09.26-.15.45l-.22.27-.32.28-.27.13-.47.28c-1.51.58-2.27.89-3.79,1.51-1,.51-1.53.76-2.56,1.29-1.22.77-1.84,1.16-3.08,2-.81.32-1.18.47-2,.76-1,.49-1.48.72-2.46,1.16-.61.35-.92.52-1.53.85l-.5.21-.46.11h-.35l-.22-.18-.16-.33c0-.29,0-.43,0-.69s0-.54,0-.86c.08-.78.12-1.11.2-1.8l0-.68c0-1,0-1.43,0-2.86,0-.43,0-.66,0-1.17.08-1.7,0-2.94,0-5l0-1.52c-.07-4.62-.1-6.91-.16-11.56,0-.61,0-.92,0-1.5,0-4.44-.05-5.9-.11-9.76,0-.5,0-.76,0-1.28,0-1.72.1-2.78-.05-4.64-.23-3-.23-4.19-.24-6.76,0-.92,0-1.38-.06-2.33V33.19c0-.27,0-.41,0-.68s.06-.58.09-1c.06-.15.09-.23.14-.38l.24-.05.38.15.27.23.52.35,1.71,1.63.56.44c1,.75,1.49,1.12,2.49,1.84l.36.27.24.48c.07.27.11.39.18.65,0,2.53-.07,3.45-.11,5.67,0,1.49,0,2.24,0,4.08,0,.51,0,.78,0,1.32,0,1.93-.06,2.6-.1,3.88,0,.35,0,.52,0,.86,0,1.22,0,1.72.06,3,0,.35,0,.54,0,.94,0,1.43.05,2.44.1,4.42v1.37c-.07,4.53-.1,6.8-.16,11.37,0,.34,0,.51,0,.85l0,.42.07.41.15.29.37,0,1-.23.9-.51.49-.19c1.75-.76,2.64-1.15,4.45-2l.51-.28,1.08-.76.51-.29.48-.2.37.07a3.48,3.48,0,0,0,.22.36c.06.19.08.28.14.45s.06.42.1.66a11.21,11.21,0,0,0,.41,2.16l.15.39C250.92,76,251,76.18,251.09,76.52Z"/><path class="cls-1" d="M273.56,66.17c0,.2,0,.29.06.47.07.63.11.88.18,1.79,0,.18,0,.27,0,.46s-.05.23-.09.39l-.14.26c-1.7.6-2.55.91-4.25,1.58l-.52.18c-.71.14-1.06.22-1.77.39l-.51.24c-.67.33-1,.5-1.68.85l-.52.25c-.91.34-1.36.52-2.27.88l-1.75.48-.52.22c-1.13.58-1.69.88-2.82,1.49l-1.14.38-.42.07c-.11-.06-.16-.1-.27-.15s-.09-.18-.15-.29-.09-.27-.15-.43c-.1-.34-.15-.47-.24-.72l-.16-.4c0-.15,0-.22-.09-.37s-.07-.21-.11-.37a14.08,14.08,0,0,1-.28-1.95c-.05-.33-.07-.51-.11-.93a17.55,17.55,0,0,1,.15-3.58c0-.38,0-.57,0-.93,0-1.2.07-1.73.12-2.9,0-.35,0-.52,0-.89.12-1.24.18-1.89.29-3.45a8.64,8.64,0,0,0-.36-3.65c-.06-.51-.09-.67-.14-1.27-.05-.19-.07-.28-.12-.51a19.19,19.19,0,0,1-.34-2.88c0-.48-.05-.71-.08-1.14,0-.64,0-.94,0-1.49V46.62c0-.31,0-.46,0-.77,0-1.05,0-1.55,0-2.79,0-.33,0-.5,0-.86s0-.31.08-.53l.15-.26.25,0,.41-.12c.84.18,1.26.25,2.11.38s1.19,0,2-.08l.53,0c.8.08,1.2.11,2,.16l.53,0c.8-.17,1.21-.27,2-.47l.55-.06c1.84-.17,2.78-.28,4.66-.55l.58-.17L270.4,40l.87-.16.49.11.22.28c0,.17,0,.25.09.41s.06.45.09.71c0,.57,0,.82.06,1.29s0,.65,0,1.07,0,.42,0,.72,0,.64.08,1.13c0,.29,0,.44.07.77v.9c0,.32,0,.48,0,.83s-.07.33-.12.56-.1.22-.16.35l-.4.23-.28.06-.54.2c-1.29.25-1.94.37-3.22.59l-.54.11-1.72.48-.54.1c-.71.08-1.06.12-1.77.18s-.91,0-1.52,0L261,51l-.26.12a2.59,2.59,0,0,1-.33.17,3.27,3.27,0,0,1-.14.33v.33c0,.24,0,.35,0,.54,0,.43,0,.6.07.88s0,.27.08.41.08.22.13.34a1.76,1.76,0,0,0,.09.2l.1.11.16.06h.38l1.08-.15,1.06-.23c1.26-.23,1.9-.36,3.17-.62l3.73-.89,1.05-.2.38,0,.22,0,.13.08.08.2c.05.14.08.22.14.41s.06.3.1.57a8.52,8.52,0,0,1,.11,1.79c0,.63,0,.89,0,1.34-.07.6-.1.83-.17,1.23,0,.17-.06.24-.1.39s-.1.14-.16.23l-.25.2-.35.14-.67.19-1.48.26-.54.12-2.69.9c-.85.22-1.28.33-2.13.53l-.53.15c-.53.11-.79.16-1.32.25l-.57.2-.4.15-.18.18-.13.33-.1.65c-.08.44-.13.66-.21,1.14,0,.3-.06.45-.1.78s-.06.69-.1,1.21c0,.23,0,.35,0,.6s0,.25.07.42a2.26,2.26,0,0,1,.11.22l.37-.08,1.83-.62.53-.22c.73-.42,1.1-.62,1.83-1,.95-.28,1.43-.42,2.38-.68l.55-.22,2.42-1.2.51-.19.51-.12c.48-.07.71-.11,1.21-.16l.22.15.17.37c0,.29.06.43.1.68A14.32,14.32,0,0,0,273.56,66.17Z"/><path class="cls-1" d="M299.53,52.27c0,.91,0,1.18.07,1.54,0,.17,0,.23,0,.32s0,.17,0,.19a.07.07,0,0,1-.06,0,.18.18,0,0,0-.14,0,.33.33,0,0,0-.1.14,2.78,2.78,0,0,0-.13.54,6.12,6.12,0,0,0-.13.65,13.46,13.46,0,0,0-.26,1.46c-.07.47-.1.68-.17,1.08-.12.6-.18.86-.3,1.33s-.14.46-.23.74-.26.57-.43.9l-.33.54-.4.51-.42.45c-.27.26-.4.39-.66.68l-.43.41c-.26.23-.39.35-.65.61s-.26.23-.43.4-.41.35-.68.62l-.49.34c-.29.23-.43.35-.72.6l-.49.32-.74.37-.49.29-1,.27-1.49.18-.75,0h-.49l-1.8-.15-.53-.12h-.29l-.53-.23-.27-.13-.54-.3c-.3-.16-.45-.23-.75-.36s-.32-.19-.53-.3-.31-.19-.52-.3a8.6,8.6,0,0,0-.94-.56L279.8,65l-.5-.42-.36-.32a6.79,6.79,0,0,1-.64-.87,6.53,6.53,0,0,1-.37-.61c-.13-.29-.2-.45-.33-.81a7.67,7.67,0,0,1-.29-1.07c-.07-.39-.1-.56-.17-.86s-.06-.41-.1-.63-.06-.34-.1-.52,0-.38-.07-.57,0-.21-.06-.33,0-.19,0-.32,0-.39,0-.78c0-.19,0-.29,0-.53A24.56,24.56,0,0,0,277,53c0-.3,0-.43-.05-.65a5.9,5.9,0,0,0-.27-1.3l-.05-.27c0-.46-.06-.69-.1-2.07-.12-2.09-.13-3.77-.18-5.3l-.12-1.27c0-.28,0-.42,0-.73v-.82c0-.34,0-.51.08-.9.09-.24.14-.36.23-.61l.45-.3,1.15-.37,1.33-.08.56-.11,1.16-.31.52,0,.81-.09.46.1c.11.18.17.26.29.43s.07.43.11.68,0,.41.05.66,0,.39,0,.63c0,.64,0,.9,0,1.51,0,.25,0,.38,0,.65.07,1,.1,1.58.17,3.49,0,.51,0,.73,0,1.11,0,1.47.05,1.72.08,2.21,0,.13,0,.18,0,.29,0,.44,0,.53,0,1.46,0,.24,0,.37,0,.7,0,1.23,0,2.59,0,3.43,0,.22,0,.3,0,.45s0,.3,0,.44l.08.17a2.49,2.49,0,0,1,.17.24,1.3,1.3,0,0,1,.18.21,2.27,2.27,0,0,1,.31.56,3.93,3.93,0,0,1,.32.41,4.17,4.17,0,0,1,.52.82c.17.17.25.26.44.48l.76.44.52.18.88,0,.54-.1.88-.52.5-.39c.25-.32.38-.51.64-.82a7.55,7.55,0,0,1,.44-.62,6.8,6.8,0,0,1,.55-.84,3,3,0,0,1,.34-.51,1.93,1.93,0,0,1,.38-.56.77.77,0,0,1,.24-.21.88.88,0,0,1,.17-.12l.11-.08c.06-.06.08-.09.14-.3s0-.18,0-.36c0-.71-.06-2.13-.13-3.51v-.79c0-1,0-1.16.07-1.64,0-.12,0-.18,0-.32,0-.53,0-.8,0-2.36V44.24c0-2-.05-2.56-.09-3.56,0-.26,0-.38,0-.61-.05-.61-.07-.86-.11-1.51V37.47c.06-.28.08-.43.14-.76s.18-.3.3-.52l.44-.24.72-.07,1.72.11.54,0,1.34-.25.54,0,.49.06.43.18c.11.18.16.26.27.42s0,.4,0,.64c0,.59,0,.82,0,1.26v.54c0,.31,0,.46,0,.79v.6c0,1,.06,1.52.1,3.58V45c0,1.62,0,1.88-.07,2.41v.32c-.05.47-.07.57-.13,1.65C299.47,50.13,299.49,51,299.53,52.27Z"/></g></g></svg>