<svg xmlns="http://www.w3.org/2000/svg" viewBox="0 0 358.84 125.71"><defs><style>.cls-1{fill:#e30613;}</style></defs><g id="Calque_2" data-name="Calque 2"><g id="Calque_2-2" data-name="Calque 2"><path class="cls-1" d="M25.72,78a2.66,2.66,0,0,0,0,.91,1.46,1.46,0,0,0,.17.4.63.63,0,0,0,.26.35.11.11,0,0,0,.08.08l-.1,0-.26-.08-.28-.07-.45-.12c-1.75-.39-2.64-.56-4.47-.84-1.14-.17-1.71-.24-2.88-.36S16,78.05,14.74,78l-2.67-.16c-1.21,0-1.83-.06-3.07-.08l-1.66,0H6.71l-.71,0-.68,0-.71-.09c-.33,0-.49-.08-.8-.15a8.31,8.31,0,0,1-1.13-.38,4.83,4.83,0,0,1-1.14-.67A3.23,3.23,0,0,1,.21,74.16,4,4,0,0,1,.07,73c-.2-1.74,0-2.79,1-5.18.32-.73.51-1.1.93-1.88C3.41,63.37,4.37,62,5.52,60.18l.77-1.32a71.08,71.08,0,0,0,5.44-10.68c.38-.85.63-1.42,1.09-2.47,3.42-8,3.36-7.63,5.53-11.51l.79-1.37c1.12-2,2.07-3.64,3.66-6.66,2.57-4.85,3.8-7.55,6.3-13.09.84-2,1.26-3,2.1-5,.45-1,.67-1.5,1.13-2.5.29-.61.44-.91.74-1.51.46-.87.7-1.31,1.17-2.18l.7-1,.65-.49.8-.31.47,0L37.79,0c1,.24,1.52.37,2.48.62l.84,0h3.63l.48,0c0,.28,0,.42,0,.7-.11.49-.17.73-.28,1.22-2.58,6-3.9,9-6.47,14.77-1.68,3.82-2.52,5.69-4.14,9.18-.45,1-.66,1.36-1.14,2.38-1.78,3.7-2.38,4.79-3.48,6.82l-.68,1.33c-.91,1.86-1.26,2.55-2.21,4.8l-.72,1.67c-1,2.65-1.95,5.4-3.16,8.11-.35.74-.51,1.08-.83,1.7-2.74,5.12-3.2,4.63-6.55,9.74l-.58,1-.29.56-.24.6c0,.2,0,.31,0,.52.19.13.29.17.48.28l1.61.38h1.65l.8.09c2.91.27,4.3.46,7,.73l.8,0c.71-.12,1.07-.18,1.77-.28l.77,0,.66.1.34.44c0,.32,0,.47-.05.64s-.17.28-.28.48-.36.47-.6.81a20,20,0,0,0-2.76,4.81,14.48,14.48,0,0,0-.5,1.38A7.12,7.12,0,0,0,25.72,78Z"/><path class="cls-1" d="M53.73,82.37c-.47,1.13-.71,1.71-1.16,2.85a63.25,63.25,0,0,0-3.06,8.62A11.45,11.45,0,0,0,49.23,95c-.1.25-.15.36-.22.56a1.2,1.2,0,0,1-.17.16c-1.62-2-2.42-2.92-4-4.61l-.5-.53c-.68-.78-1-1.15-1.72-1.85l-.5-.42L40.51,87,40,86.64c-.89-.72-1.33-1-2.23-1.68-.73-.5-1.09-.74-1.83-1.19l-.53-.31c-1.09-.62-1.63-.91-2.7-1.44-.5-.23-.75-.33-1.25-.54l-.5-.2a3.25,3.25,0,0,1-.43-.18,1.21,1.21,0,0,1-.32-.22,1.15,1.15,0,0,1-.3-.46,2.68,2.68,0,0,1-.1-1.37,7,7,0,0,1,.23-1.24c.16-.49.26-.75.48-1.29s.32-.81.58-1.37A24.58,24.58,0,0,1,34,70.44a14.15,14.15,0,0,1,.89-1.12c1.17-1.34,1.71-3.36,2.68-5,.28-.49.41-.71.67-1.11.87-1.35,1.26-1.75,2.07-3,.24-.36.36-.55.6-1a19.68,19.68,0,0,0,2.33-5c1.51-4.43,2.16-7.59,3.46-10.79.87-2,1.29-2.79,2.21-4.88.25-.64.37-1,.63-1.68.85-2.34,1.28-4,2.35-7.32.32-1,.49-1.51.84-2.55.55-1.55.84-2.35,1.44-4,.78-2,1.19-3.05,2-5.13l1-2.62c1.43-3.64,2.17-5.5,3.5-9.16.36-1,.54-1.48.88-2.45l.54-1.39c.15-.27.22-.4.36-.68l.27-.15.45-.31,1.45.88h1.55l.39,0L67.86,3l.37,0,1.58-.54.37,0c1.23.27,1.84.4,3.13.65L73.76,3l.93-.44.62.05c.11.22.16.32.26.54V4l-.2,1.21c-.17.9-.27,1.36-.47,2.27-.47,1.9-.74,2.86-1.3,4.79-.53,1.78-.82,2.68-1.38,4.46-.37,1.22-.55,1.82-.91,3-.52,1.77-.77,2.66-1.23,4.39-.27,1-.39,1.56-.63,2.58s-.37,1.53-.58,2.52c-.18.79-.26,1.19-.4,2-.12.45-.18.67-.28,1.11-.09.25-.13.37-.23.62l-.4.29h-.24l-.51.12c-1.1-.21-1.64-.32-2.72-.55l-.47,0c-.61.08-.92.11-1.54.17l-.47,0-1.45-.48L59,31.8l-.44-.05-.28.13-.37.28c-.13.31-.2.47-.34.76s-.15.55-.26.9c-.19.63-.29.93-.48,1.51-.4,1.27-.6,1.83-1,2.88-.25.71-.38,1-.63,1.69s-.38,1-.63,1.66l-.4,1c-.09.27-.13.4-.21.67l-.07.49.23.35.91.34,1.06,0,2.88.41c1.45,0,2.18-.08,3.65-.16l.87.31.26.24c0,.22,0,.32,0,.54s-.09.37-.14.63c-.16.46-.24.69-.4,1.17-.23.74-.34,1.12-.56,1.93s-.32,1.23-.51,2.13a45.85,45.85,0,0,0-.79,4.89c-.14,1.36-.22,1.92-.4,2.88a12.4,12.4,0,0,1-.82,2.52,7.25,7.25,0,0,1-.39.74c-.13.16-.2.23-.34.38l-.38.24-.4.06-.68-.08-1.39-.46L56,62.66l-2.88-.11c-.85-.16-1.27-.25-2.12-.43L50.41,62l-1.28-.38-.63,0h-.45l-.28.13-.36.35c-.23.32-.35.47-.58.77-.41.52-.62.77-1,1.38a11.4,11.4,0,0,0-.65,1.08,16.16,16.16,0,0,0-.87,1.91c-.15.4-.22.62-.37,1.09s-.1.5-.17.87c0,.21,0,.32,0,.55l.38.2c.82.24,1.23.37,2,.54l.62.09A10.07,10.07,0,0,0,49,70.4a16.38,16.38,0,0,0,2.55.88l.6.09a15.92,15.92,0,0,0,2.76-.16l.56.07.54.21a5.61,5.61,0,0,0,1.27.6,2,2,0,0,1,.16.24,4.61,4.61,0,0,1,0,.51c-.12.39-.2.62-.38,1.11C56.09,76.43,55.25,78.44,53.73,82.37Z"/><path class="cls-1" d="M87.14,67.82a10.41,10.41,0,0,0-.32,1.26,15.57,15.57,0,0,0-.29,1.68c-.11.73-.15,1.14-.22,2.07a28,28,0,0,1-1.23,5c-.46,1.47-.72,2.25-1.28,3.88C83,84,82.5,85.27,81.53,87.85l-1.69,4.29c-1,2.41-1.52,3.66-2.55,6.16-.72,1.66-1.09,2.5-1.81,4.17s-1.11,2.5-1.85,4.15L72,110.37c-.85,1.73-1.27,2.58-2.07,4.23-.54,1.14-.8,1.7-1.3,2.79s-.72,1.41-1.17,2.3-.6,1.15-1,1.88l-1.17,1.84L64,125.28l-.46.29a2.27,2.27,0,0,1-.62.14,1.58,1.58,0,0,1-.31-.09,2.42,2.42,0,0,1-.38-.4,3.08,3.08,0,0,1-.28-.58L61.32,123c-.54-1.32-.81-2-1.33-3.27l-.61-1.64-.4-1.14-.66-1.87c-.18-.51-.26-.77-.43-1.27s-.3-.9-.49-1.49-.26-1-.41-1.61c-.23-.93-.34-1.39-.55-2.32-.12-.75-.17-1.12-.26-1.89s-.14-1.17-.23-2l-.15-1.94c0-.84,0-1.26,0-2.11,0-2.28.12-3.45.29-5.77.11-1,.17-1.52.3-2.53.15-1.43.24-2.14.41-3.53.13-1,.2-1.47.33-2.42s.27-1.53.43-2.51c.15-.79.23-1.18.37-1.93l.46-1.35c.33-.64.5-1,.81-1.56l.47-.82c.43-.7.64-1,1-1.69,1-1.5,1.44-2.18,2.09-3.19a4.79,4.79,0,0,0,.51-1.23,16.36,16.36,0,0,1,1.07-3.06,8.1,8.1,0,0,1,1.18-1.76c.22-.16.33-.23.55-.37l.36.15.24.58c.28.67.44,1,.79,2,.18.34.27.52.46.91s.28.52.47.9c.32.6.48.92.83,1.62.23.33.34.39.56.68a8.43,8.43,0,0,1,.56.79,7.6,7.6,0,0,1,.58.56l.92.29.63.27c1.1-.17,1.69-.26,2.74-.49l.69-.35c.15-.15.22-.23.37-.37l.7-1.08c.25-.55.34-.76.57-1.21A12.58,12.58,0,0,1,78,70.69c.11-.34.16-.49.28-.79a9.51,9.51,0,0,1,.47-1.4,9.39,9.39,0,0,1,.28-1.2c0-.2.06-.29.1-.46v-.7l0-.27c-.11-.18-.17-.26-.28-.43l-.26-.13L78.11,65l-.61-.18-.64-.16c-1.5-.24-2.23-.37-3.64-.66l-1-.41-.53-.28c-.26-.22-.39-.34-.66-.59a5.72,5.72,0,0,1-.46-.4c-.17-.23-.26-.35-.43-.61a17.92,17.92,0,0,1-1-1.75c-.13-.42-.2-.64-.34-1.11s-.25-.74-.43-1.28-.23-.85-.36-1.44c-.17-.91-.23-1.35-.34-2.17s0-1.13,0-1.83.08-1.18.17-1.92.19-1.08.34-1.76c.23-1,.35-1.41.61-2.3.21-.64.31-.95.53-1.58.33-.92.5-1.37.81-2.32a31.31,31.31,0,0,0,1.12-3.64c.22-.78.33-1.19.51-2a25.86,25.86,0,0,0,.54-3.52c.11-.95.19-1.43.36-2.41s.28-1.28.49-2.15.4-1.52.7-2.55c.48-1.51.74-2.28,1.29-3.83.35-1,.53-1.48.91-2.48l.86-2.13.88-2c.51-1.07.76-1.6,1.26-2.67.36-.71.54-1.06.89-1.77s.5-1,.82-1.58l.75-1.22c.42-.77.63-1.15,1-1.9l1.36-2c.25-.34.38-.5.63-.83l.88-.66L86,2.42l1.15-.64.87-.64.63-.31.59-.16h.65c.49.2.79.29,1.22.49.22.12.32.19.54.32l.23.33c.23.13.34.2.55.34.46.41.68.62,1.1,1.05.21.28.31.42.51.71s.27.52.44.88.27.53.44.89.23.65.37,1.08L95.61,8c.12.44.17.66.28,1.1.1.79.15,1.19.23,2,.07.51.11.77.18,1.29s0,1,.06,1.64,0,1-.07,1.62-.23,1.06-.4,1.76-.38,1.15-.64,1.92c-.46,1.39-.7,2.09-1.14,3.47-.29.83-.43,1.25-.7,2.07a48.12,48.12,0,0,0-2.35,8.25,21.62,21.62,0,0,1-.5,2.18c-.23.59-.35.88-.61,1.45l-.37.41L89.33,37l-.3-.73c-.17-.52-.27-.79-.47-1.34-.21-.37-.32-.56-.55-.94l-.27-.48-.6-.81-.31-.33-.66-.65-.89-.83-.65-.17-1-.33h-1l-.69.16-.72.49-.68.81c-.11.2-.16.29-.26.49-.22.57-.31.86-.52,1.42-.09.38-.14.56-.24.92a19,19,0,0,1-.5,2,21,21,0,0,1-.5,2.11c-.11.66-.18,1-.32,1.6s-.11.92-.2,1.52,0,.69,0,1.14l.2.69.14.34.46.36.87.39,1.3.29.58.37c.42.38.63.57,1.05,1l.87,1.21.71.65c.18.2.27.3.44.51l.71,1.29c.17.47.26.7.45,1.18l.3,1,.3,1.11c.11.46.17.69.29,1.16.21,1.39.34,2.12.7,3.71A17.24,17.24,0,0,0,87.64,60c.13.61.19.88.29,1.38.11.74.15,1,.22,1.59s.06.56.08.87,0,.52,0,.81-.1.42-.17.67-.21.53-.34.9a5.54,5.54,0,0,0-.25.69A8.18,8.18,0,0,0,87.14,67.82Z"/><path class="cls-1" d="M130.28,72.69c0,.37-.06.53-.1.84s-.06.63-.11,1-.1.36-.17.61-.21.5-.35.9-.15.43-.26.76-.18.47-.3.85-.19.62-.32,1.12-.2.82-.34,1.49-.2.91-.33,1.63c-.23,1-.36,1.72-.7,2.9-.22.68-.34,1-.57,1.66s-.53,1.14-.9,1.87c-.26.51-.39.76-.66,1.25-.43.72-.65,1.07-1.11,1.8L122.51,94l-.89,1.35c-.52.76-.78,1.16-1.31,2-.34.44-.51.67-.85,1.14-.51.65-.77,1-1.29,1.69-.33.39-.49.59-.82,1-.53.57-.79.86-1.33,1.47l-.91,1-.93.89c-.36.31-.55.46-.91.78-1.36,1-2.06,1.61-3.45,2.8l-.82.52c-.49.35-.74.53-1.23.9l-.84.4-1.65.66-1.28.31-.83.43c-.71.5-1.06.75-1.76,1.27l-1.36.9-.93.69-.73.22-3.6,2-.71.2c-.78.13-1.16.19-1.92.29,0-.29-.08-.43-.13-.73s.06-.63.1-1.07c.28-1,.43-1.57.74-2.66.49-1.59.75-2.4,1.3-4,.3-.84.46-1.26.77-2.1,1.13-3.16,1.74-4.78,2.93-8,.54-1.48.82-2.23,1.35-3.71.9-2.43,1.34-3.64,2.18-6,.53-1.53.79-2.28,1.28-3.76s.79-2.35,1.26-3.84.66-2.22,1-3.62c1.19-4.61.49-4.94.69-6.52.06-.47.1-.68.17-1a20.44,20.44,0,0,1,.56-2.34c.08-.23.12-.35.19-.6a7.72,7.72,0,0,0,.22-1.09,9.32,9.32,0,0,0,.15-1c0-.5.06-.77.08-1.42a18.35,18.35,0,0,1,.18-2.19c.19-1.65.31-2.42.57-3.9.17-1,.27-1.43.46-2.34.11-.48.16-.72.27-1.19.2-.9.3-1.33.51-2.2.72-2.68,1.11-3.93,1.71-6.72.16-.85.24-1.28.38-2.16a25.54,25.54,0,0,0,.37-7.74c-.1-.81-.14-1.23-.19-2.09a68,68,0,0,1-.16-7.49c0-2.26.1-3.4.13-5.61,0-.9,0-1.35,0-2.22s0-1.2,0-2c0-.57,0-.85,0-1.39,0-.27,0-.41,0-.67l.19-.14.32.12.28.09.31.24c.74.82,1.12,1.25,1.89,2.12l.35.37,1.14,1.47.21.29.41.44c.38.32.57.49,1,.83l.34.28.4.4.67.83.88,1c.18.24.28.36.47.6l.79,1,.51.69.51.75L123.19,27l.58,1.05.6,1.16.57,1.13c.57,1.25.85,1.88,1.43,3.13.23.57.35.86.59,1.43l.55,1.3c.43,1.05.64,1.57,1.07,2.58.19.48.29.72.49,1.19s.29.74.48,1.21.28.8.46,1.3c.3.85.6.58.74,2.09.07,1,.1,1.51.17,2.46s.08,1.5.13,2.46.09,1.43.14,2.35.06,1.35.09,2.23,0,1.3,0,2.15c0,1.16,0,1.74,0,2.89,0,.84,0,1.26-.06,2.11s0,1.36-.1,2.29-.09,1.31-.16,2.22c-.14,1.35-.22,2-.4,3.51-.11,1-.27,1.95-.28,2.39S130.28,72.31,130.28,72.69Zm-8.44.53c.13-.25.19-.36.32-.57s.17-.37.28-.61l.2-.54a8.79,8.79,0,0,0,.2-.93c0-.27,0-.41.07-.73a5.44,5.44,0,0,1,.08-1.69c.28-2.09.42-3,.68-4.88.12-.92.18-1.37.29-2.25.14-1.27.2-1.89.32-3.11.06-.8.08-1.2.13-2,0-.32,0-.48,0-.8,0-.82,0-1.23,0-2-.07-1.17-.1-1.76-.19-3,0-.3,0-.45-.09-.75-.07-.65-.11-1-.18-1.64s-.13-1-.23-1.72-.17-.88-.28-1.49c-.22-.89-.34-1.35-.57-2.29-.15-.45-.22-.68-.38-1.14l-.4-.68a2.74,2.74,0,0,0-.48-.65l-.75-.41-.52-.31-.73-.31-.66-.36-.41-.07a1.51,1.51,0,0,0-.57.08c-.13.16-.19.23-.33.38-.07.31-.1.46-.18.76-.07.75-.11,1.12-.19,1.84-.06.54-.08.81-.14,1.33-.1.88-.15,1.3-.27,2.13-.18,1.68-.3,2.47-.55,4-.14.84-.21,1.25-.35,2.07l-.5,2.84c-.14.83-.22,1.25-.36,2.11s-.23,1.28-.38,2.17-.24,1.33-.4,2.27c-.22,1.27-.33,1.94-.53,3.34a23.83,23.83,0,0,0-.24,4.05c0,.35-.07.5-.12.78s-.08.39-.14.64-.15.49-.25.84-.07.34-.11.6c-.09.42-.14.66-.23,1.24,0,.38,0,.59-.08,1.07,0,.77,0,1.22-.05,2.32,0,.51,0,.79.08,1.39.07.29.11.44.19.74l.41.27c1.3,0,2,.1,3.26.23l.8.15.57-.19.62-.39c.24-.2.36-.29.6-.47a6.77,6.77,0,0,1,.56-.52,7.58,7.58,0,0,1,.51-.66,8,8,0,0,1,.73-1,5.46,5.46,0,0,1,.42-.64A6.85,6.85,0,0,1,121.84,73.22Z"/><path class="cls-1" d="M162.43,88c-.16.72-.23,1-.38,1.67-.1.29-.14.43-.24.72s-.2.65-.34,1.11c-.11.29-.17.44-.28.76-.19.49-.29.76-.49,1.34-.15.39-.22.59-.37,1-.21.64-.32,1-.55,1.77-.17.5-.26.76-.44,1.34a8.71,8.71,0,0,0-.7,2.28c-.12.81-.17,1.17-.28,1.85-.17,1-.25,1.43-.4,2.21-.11.51-.17.74-.27,1.18-.19.61-.29.87-.47,1.38-.14.33-.21.48-.35.78s-.25.44-.41.73-.28.35-.46.59-.43.52-.72.9c-.19.21-.29.32-.48.55s-.45.45-.75.79c-.2.19-.3.29-.5.5s-.48.44-.81.77c-.24.14-.36.21-.6.37s-.52.38-.88.67l-.61.31-.94.19-.62.2-1.29-.24-2-.85-1-.76-.65-.45-2.45-2c-.28-.31-.43-.47-.72-.77l-.42-.35c-.29-.41-.44-.62-.74-1l-.37-.57c-.3-.5-.46-.74-.76-1.22-.42-.67-.64-1-1.07-1.64s-.44-.79-.74-1.29-.45-.81-.75-1.33c-.44-1-.66-1.46-1.07-2.37-.17-.43-.26-.65-.42-1.08-.18-.64-.27-1-.44-1.61-.11-.46-.17-.7-.27-1.18-.17-1-.24-1.56-.37-2.76-.07-.64-.1-1-.16-1.71s-.05-1.16-.07-2,0-1.43,0-2.42,0-1.34,0-2.12V82.5c0-.66,0-1,0-1.5,0-.8,0-1.13,0-1.74s0-.69,0-1.08,0-.56,0-.89c0-.64,0-.91.07-1.49,0-.27,0-.41,0-.7.15-1.07.28-1.89.75-5.43.11-.93.16-1.39.25-2.27.31-3.39.38-4.88.45-8,0-.81,0-1.22,0-2,.1-3.12.1-4.68.11-8.38,0-5.68-.48-5.39-.93-8.89-.19-1.22-.28-1.84-.48-3-.09-.61-.13-.92-.22-1.5s-.12-.84-.2-1.36-.06-.69-.1-1.09a3.7,3.7,0,0,1,.16-.4l.51.17,1.44.8c.7.49,1.06.73,1.78,1.21l.77.44,1.42.77.62.42.95.62.55.49c.14.27.21.41.35.7s.1.55.16,1,.05.62.08,1.06,0,.69,0,1.17c0,1.24,0,1.91,0,3.23,0,.55,0,.83,0,1.38.07,2.11.1,3.18.08,4.9,0,.45.08,1.3.16,2.28.3,3.73.49,5.32.76,8.49.08.83.12,1.24.18,2.07a73.75,73.75,0,0,1,.19,8c0,.89,0,1.34-.06,2.28a24,24,0,0,1-.64,5.43c0,.31-.05.46-.09.76,0,.48-.07.71-.11,1.22v.91c0,.55,0,.84.07,1.5.05.47.07.72.11,1.26.08.84.11,1.3.16,2.34.12.59.17.9.27,1.56.18,1,.26,1.46.41,2.55.17.57.25.87.42,1.48.34.7.5,1,.84,1.69.24.36.35.54.59.89l1.07.85.67.36c.45,0,.68,0,1.12-.1l.66-.24c.35-.35.51-.6.89-.92s.41-.48.68-.77c.37-.55.56-.81.92-1.28s.37-.63.61-1c.33-.7.49-1,.79-1.57s.31-.6.51-1,.26-.57.43-.91l.34-.84c.23-.61.34-.89.56-1.44.1-.31.15-.46.26-.77.27-1.25.57-1.79.29-5.48-.06-1-.1-1.43-.17-2.34-.26-3.52-.48-5.08-.94-8.35l-.35-2.14c-.5-3.27-.79-4.91-1.32-8.73a14.18,14.18,0,0,1-.3-2.45c.21-2,.29-3,.44-4.83,0-.47,0-.71.06-1.18.07-1.23.09-1.83.14-3,.06-.69.09-1,.14-1.69l.25-.82.43-.31.57.12.89.5,2.15,1.48.68.37c.69.3,1,.45,1.73.73.28.15.41.23.69.37l.63.41.53.5c.11.27.17.4.28.65s0,.49-.07.8c-.09.76-.13,1.12-.23,1.84,0,.35-.08.52-.14.88-.1.53-.15.8-.26,1.35-.06.39-.09.59-.15,1-.2,1.62-.31,2.48-.56,4.75a12.84,12.84,0,0,0,.21,2.44c.36,3.79.56,5.42.91,8.66.1.85.15,1.28.24,2.12.3,3.23.44,4.78.6,8.24A30.82,30.82,0,0,1,162.43,88Z"/><path class="cls-1" d="M187.22,105.73c.06.41.09.6.15,1a31.54,31.54,0,0,1,.37,3.84c0,.37,0,.56,0,1s-.09.48-.15.82-.12.32-.21.54c-2.43.95-3.59,1.37-5.82,2.1l-.68.16c-.91,0-1.35,0-2.24,0l-.65.24c-.84.34-1.25.51-2.07.82l-.63.21c-1.09.14-1.63.19-2.7.26-.81-.15-1.21-.23-2-.41H170c-1.29.26-1.93.37-3.21.54l-1.27-.36-.45-.3c-.11-.25-.16-.38-.28-.62s-.08-.49-.13-.79c0-.48-.08-.7-.13-1.11-.08-.87-.12-1.23-.21-1.92-.05-.47-.08-.69-.14-1.12s0-.59-.06-1,0-.58-.08-1c-.07-1.4-.09-2.09,0-4.43,0-.71,0-1.09,0-2a16.88,16.88,0,0,1,.9-5.17c.1-.47.15-.69.23-1.11.29-1.39.41-1.92.64-3,.07-.32.1-.47.17-.77.29-1,.43-1.47.74-2.6.44-1.8.12-6.72-.07-11.09-.06-2.71-.12-4-.22-6.82-.06-.87-.09-1.31-.16-2.2a48.21,48.21,0,0,1-.36-7.43c.06-.58.09-.85.15-1.35.11-.75.16-1.08.27-1.7s.25-1.08.41-1.71l.15-.8c.27-1.06.4-1.52.66-2.75.07-.33.11-.5.18-.87.08-.18.13-.28.21-.49l.26-.18.35.09.58.11,2.77,1.6c1.06.44,1.59.65,2.66,1.06l.69.29c1,.56,1.53.83,2.56,1.35l.69.27c1.06.27,1.58.4,2.64.63l.69.24c2.35.86,3.52,1.25,5.86,1.93l.74.1c.6,0,.89.06,1.49.08l1.07.23.59.39c.09.2.13.3.22.48s0,.34,0,.55c0,.37,0,.53,0,.81a10.71,10.71,0,0,1-.18,1.11c-.1.3-.15.41-.25.65a4.24,4.24,0,0,0-.11.45c-.05.29-.07.45-.12.91,0,.28,0,.44-.05.82s-.09.59-.14,1.1-.1.63-.17,1.14c-.09.29-.13.45-.22.78a4.39,4.39,0,0,1-.26.46l-.59.18-.36,0-.75,0c-1.69-.39-2.53-.6-4.21-1.07l-.73-.16c-.93-.09-1.4-.14-2.32-.25l-.72-.18c-.92-.35-1.38-.53-2.3-.9s-1.19-.59-2-1l-.66-.2h-.37a2.42,2.42,0,0,0-.46.13l-.25.69c0,.36,0,.53-.08.88-.07.63-.1.94-.16,1.55-.09,1.33-.14,2-.23,3.22,0,.83-.06,1.24-.1,2s0,1.28-.07,2.11c0,.55,0,.81,0,1.35,0,.35,0,.52,0,.86s.07.39.11.64l.39.46,1.16.49h1.23a35.45,35.45,0,0,0,3.66.5c1.81-.09,2.74-.17,4.67-.38.5.09.76.13,1.27.2l.42.19c.05.2.08.3.13.49s0,.35,0,.59c-.09.43-.13.65-.22,1.08-.13.68-.19,1-.31,1.71s-.21,1-.35,1.77a34.22,34.22,0,0,0-.65,3.46c0,.37,0,.56.06.92s-.07.74-.12,1.23c0,.2-.07.3-.11.5l-.2.33-.32.27-.44.16-.85.16c-.76.06-1.13.08-1.85.1L181,94c-1.29.25-1.91.36-3.11.52-.95,0-1.41,0-2.31,0H175c-.55-.06-.82-.1-1.36-.18h-1l-.19.12c-.07.13-.11.19-.17.32s-.11.42-.19.72c-.15.49-.23.75-.39,1.32-.1.36-.15.55-.25,1s-.18.85-.32,1.5c0,.29-.08.44-.13.76s0,.33,0,.56l.07.32.37.07,2,0,.6-.07a15.24,15.24,0,0,1,2.11-.64c1.08,0,1.62-.17,2.8-.17l.67-.14a29.83,29.83,0,0,1,3.11-1l.68-.16.67-.12a7.17,7.17,0,0,1,1.68-.06l.31.36c.09.32.14.48.24.78.05.58.08.85.14,1.35A26.42,26.42,0,0,0,187.22,105.73Z"/><path class="cls-1" d="M222.49,95.23c0,.39-.06.6-.11,1.07,0,.25,0,.39,0,.67s-.14.62-.23,1.09c-.13.31-.2.47-.33.8-.14.17-.21.26-.34.44l-.46.4-.36.15-.62.37-4.7,1.37-3.12,1.34c-1.5.92-2.94,1.73-5.19,3l-3.48,1c-1.75.75-2.59,1.11-4.24,1.79l-2.51,1.38-.8.32-.73.15-.58,0-.37-.34c-.11-.24-.16-.36-.27-.58-.06-.49-.09-.72-.16-1.14,0-.58-.05-.84-.1-1.32,0-1.17,0-1.59-.07-2.51,0-.36-.07-.54-.11-.91a24.72,24.72,0,0,1-.74-4.11c0-.69-.08-1.07-.12-1.93a9.31,9.31,0,0,1,.26-3.43c0-.29,0-.43,0-.71a37.36,37.36,0,0,0,0-5.09,3.81,3.81,0,0,1,.11-1.11,95,95,0,0,1,2.53-10.71c.16-.58.24-.88.4-1.49a22.7,22.7,0,0,0,1.05-5.81c.13-4,.21-3.82.37-4.48,0-.24,0-.33.05-.69,0-.18,0-.28.07-.54s.05-.24.09-.43.11-.44.19-.82L198,62l.32-.24.47-.15.34,0,.65,0c.82.16,1.24.23,2.07.36h.67c1.21,0,1.81-.07,3-.19l.43,0c.11.16.17.23.28.37s.12.36.2.57a12.65,12.65,0,0,1-.15,2.56c0,.47,0,.73,0,3.33,0,.72,0,1.46,0,2.07-.3,2.21-.48,3.08-.82,4.71-.08.45-.12.66-.19,1.09-.24,1.52-.35,2.18-.48,3.64-.05.41-.07.62-.11,1.05a13,13,0,0,0,.21,3.6c0,.27.07.41.11.69a30.14,30.14,0,0,1,.08,5.91c0,.15,0,.23.06.38a1.15,1.15,0,0,1,.06.17.86.86,0,0,1,.13.14l.34,0a2.89,2.89,0,0,1,.83,0c1-.21,1.44-.31,2.43-.54l2.23-1,.88-.3c2.31-.91,3.51-1.42,5.93-2.24l.68-.25,1.44-.61.69-.25.64-.21.52-.06c.12,0,.18.1.3.36s.06.49.1.79c0,.49,0,.71,0,1.14,0,2.17,0,2.75,0,4,0,.34,0,.5,0,.82C222.49,94.2,222.5,94.5,222.49,95.23Z"/><path class="cls-1" d="M236.67,83.2c0,.56,0,.82,0,1.29-.07,1.63-.08,2.17-.12,3.29,0,.32,0,.48,0,.8,0,1.12,0,1.63-.12,3.24,0,.32,0,.48-.05.84-.07.19-.11.28-.18.48l-.39.41-.67.35-2.37.85-2.87,1.16-2.25.54-.26-.08a1.51,1.51,0,0,0-.11-.22c0-.36.05-.53.07-.85,0-.78,0-1.11,0-1.7,0-.39,0-.57,0-.92s0-.47,0-.77v-.76c-.06-1.1-.11-1.62-.15-3.41,0-.54,0-.84.07-1.5a23.57,23.57,0,0,0,.06-3c0-.29,0-.44,0-.76-.16-1-.26-1.62-.48-2.76,0-.34-.07-.51-.12-.84-.18-1.12-.29-1.69-.48-2.66a14,14,0,0,1-.25-3.76c0-.91.06-1.36.13-2.38,0-.3,0-.46.06-.78.1-1.08.06-1.66.34-3.88.42-3.54.66-3.52,1.13-4.63a9.49,9.49,0,0,0,.65-2.57,9.46,9.46,0,0,0,.29-.93c.14-.17.21-.25.35-.44l.49-.21.39-.09.74-.27,1.14-.19.77-.19,2.22-.72,2.94-.73.49.06V55c0,.36-.07.52-.12.82-.12.73-.18,1-.3,1.53-.08.31-.13.46-.21.73A17.3,17.3,0,0,0,236,63.47a28.16,28.16,0,0,0-.3,3.36c0,.29,0,.43-.07.71-.12,1-.19,1.4-.27,2.28,0,.26,0,.38,0,.64a10.27,10.27,0,0,0,.12,2.13c0,.26.05.39.1.68.12,1,.19,1.56.31,2.72.26,1.87.4,2.93.54,4.5A11.64,11.64,0,0,1,236.67,83.2Z"/><path class="cls-1" d="M271.18,70.24c0,.33,0,.49,0,.78s0,.43,0,.66a2.88,2.88,0,0,1-.1.51,6.44,6.44,0,0,0-.19.93c-.07.27-.11.41-.18.7s-.2.64-.32,1.09c-.11.29-.16.44-.26.74s-.27.65-.46,1.09l-.39.76c-.2.31-.29.47-.49.79l-.5.74c-.34.38-.52.57-.86,1l-.57.66-.67.63-.64.58-1.06.79c-.56.4-.84.6-1.4,1l-.76.44c-.47.25-.71.38-1.18.65l-.72.37-1.05.5-.67.31-1.09.47-2.31,1.07-1,.39-.67.18-1.09.27-.71.12-.8.08-.69-.11-1-.13-.64-.25-.7-.21-.65-.22-.61-.27c-.6-.31-.91-.45-1.52-.71l-.57-.32-.87-.41-.58-.3c-.22-.14-.33-.22-.54-.37l-.39-.34c0-.14,0-.21-.07-.36s.13-.34.22-.59l.18-.36c.18-.33.27-.49.45-.84.51-.86.77-1.31,1.29-2.31a2.8,2.8,0,0,1,.42-.81,8.35,8.35,0,0,0,.73-1.19l.38-.59c.16-.25.25-.38.41-.65l.48-.43.53,0,.55.24c.63.24.95.35,1.57.53l.73.11.67.06c.43,0,.65,0,1.08,0a1.9,1.9,0,0,1,.7.14l.75.11.75,0,1.07-.27.74-.16,2.93-1.12.74-.33.36-.23.69-.54a2.38,2.38,0,0,1,.6-.41l.44-.44.21-.32c.09-.25.14-.39.22-.68s-.07-.45-.12-.77c-.05-.15-.08-.22-.13-.38s-.27-.37-.44-.63l-.27-.26-.66-.39L260,70.9l-.73-.14h-.81l-.81,0-4.48.74-1.44.06h-.78l-1.08-.14-.73-.07-.75-.16c-.68-.17-1-.25-1.71-.4l-.66-.24c-.3-.09-.46-.13-.76-.2a5.46,5.46,0,0,0-.66-.19l-.85-.29-.44-.38c-.18-.18-.26-.27-.43-.46l-.27-.5c-.11-.3-.17-.44-.27-.74s-.06-.34-.09-.57l-.05-.86c0-.52,0-.78.05-1.32,0-.28.07-.42.12-.7.07-.43,0-.17.17-1.13.14-.61.21-.88.35-1.4s.22-.66.37-1.05.27-.66.45-1c.32-.58.48-.84.79-1.33l.54-.78.55-.66.63-.64c.38-.37.58-.55,1-.94l.74-.69.73-.68.74-.59c.41-.37.61-.56,1-1,.61-.47.92-.71,1.52-1.21l.74-.55,1.07-.58.75-.42,1.38-.66,1-.55.73-.33.66-.25.7-.18,1.28-.12.64,0,.28,0,.68-.06,1.42,0,.7,0,.65.1.7.08.64.15.6.23.6.17.74.44.56.26.5.42c.13.19.2.28.33.48,0,.26,0,.39-.07.66s-.21.48-.34.8c-.26.58-.38.86-.64,1.42-.17.34-.26.51-.44.84-.83,1.4-1.25,2-2.08,3.29a4.84,4.84,0,0,1-.54.64l-.58.51-.38.21-.32.06-.45-.05-.67-.12h-1a2.39,2.39,0,0,1-.66-.1l-.35,0L260,58l-1-.05-.73.13-1.19.17-1.21.29-.81.27-.82.4-.81.54-.31.3a5.84,5.84,0,0,1-.65.75l-.25.29c-.14.26-.22.39-.37.65l-.15.67c0,.2,0,.3.08.5l.32.43.48.27.54.1.32,0,.69-.07,1.17-.21,1.59-.36.79-.09,1.56-.1,1.46,0,1.06-.08h.69l1.28.07.91.13.63.11.64.15.6.14a9,9,0,0,0,1.36.45,2.69,2.69,0,0,1,.53.31c.19.14.29.22.49.39s.37.42.62.73.25.34.42.58l.4.74c.1.32.16.48.26.8.12.48.18.72.31,1.18s.1.48.17.79S271.13,69.92,271.18,70.24Z"/><path class="cls-1" d="M298.2,42.28c0,.51,0,.76,0,1.26,0,1,.06,1.46.1,2.25v1c0,.17,0,.25,0,.4s0,.32-.05.47a2.35,2.35,0,0,1-.1.22l-.24.16-.52.19-.67.2-1.27.33-.67.19-1.93.61-.67.19-1,.27-.62.17-.29.1-.42.17-.18.17c0,.13,0,.2-.07.36-.12.74-.2,1.33-.35,2.52,0,.32,0,.48-.06.81,0,1.19,0,1.84,0,2.76,0,.25,0,.37-.07.58A11.59,11.59,0,0,0,289,60c0,.34,0,.52,0,.89.16,1.33.26,2.1.44,3.39.23,2,.28,2.12.37,3.34,0,.8.06,1.49.15,2.87.05.35.07.52.12.88.18,1,.27,1.61.45,2.55.05.33.08.49.13.79s0,.36-.07.57l-.18.25-.54.23-.79.19-1.06.18-.7.15-1.85.57-.66.17-1.92.39-.51.09-.27-.06c-.05-.18-.08-.27-.13-.47s-.05-.49-.09-.85c0-.89-.06-1.39-.1-2.36l-.05-.91c-.17-1.67-.25-2.52-.3-3.34s-.05-1-.14-2.13c0-.31-.05-.48-.09-.82-.1-1.27-.17-2-.27-3.35,0-.36-.05-.53-.07-.87-.17-1.23-.22-1.59-.28-2.36a4.91,4.91,0,0,1,0-.57c0-1.19.1-2.08.2-3.57.05-1.14.07-1.71.09-2.46,0-.18,0-.26,0-.41l-.12-.14-.43.07-.64.18-1.4.43-.78.22-1.18.27-.75.17-.75.24-1,.32-.67.19-.35.06-.49.06L272,55l-.15-.22c0-.18,0-.28,0-.48s0-.22,0-.37c0-.35,0-.54,0-.92.1-.75.16-1.15.26-2,0-.41.06-.62.09-1,0-1,.06-1.58.09-2.56.05-.43.08-.64.13-1s.11-.5.19-.82l.2-.44.27-.25.42-.23,1-.31,1.53-.35.67-.21,2.4-1,.66-.22,2.41-.59.66-.22,3-1.26c.94-.31,1.37-.45,2.27-.71l.61-.2,2.93-1,2.93-.89,1.32-.47.69-.17.33,0,.5-.07.3.09.23.29c0,.25.08.39.13.68s0,.28,0,.47c0,.41.05.63.08,1.1C298.21,40.62,298.21,41.19,298.2,42.28Z"/><path class="cls-1" d="M327.32,57.62c.07.3.11.45.18.78.25,1.1.38,1.73.66,3,0,.24.07.36.12.61s0,.29-.06.48l-.14.31L322.5,65l-.69.23-2.33.57-.68.3-2.18,1-.68.28-3,1-2.27.55-.69.23c-1.45.61-2.17.9-3.63,1.48l-1.46.39-.53.07-.33-.14a3.14,3.14,0,0,1-.18-.31c-.07-.21-.1-.32-.17-.55-.1-.48-.15-.74-.25-1.25-.07-.36-.1-.54-.16-.91s0-.52-.06-.87l-.1-.83c-.07-1.17-.1-1.72-.13-2.46,0-.21,0-.31,0-.46-.05-.52-.06-.65-.13-1.65,0-.3-.06-.46-.11-.8-.14-1.14-.23-1.86-.38-3.16,0-.39-.07-.58-.11-1-.06-1.29-.08-1.91-.08-2.64a24.19,24.19,0,0,1,.22-3.14c.13-1,.21-1.62.35-2.58,0-.28,0-.41,0-.66a4.16,4.16,0,0,0,0-1.47,5.54,5.54,0,0,1-.1-.58c0-.44-.05-.73-.08-1.38V42c0-.49,0-.74,0-1.24,0-1.75,0-2.7-.05-4,0-.36,0-.52,0-.81s.05-.26.08-.4l.18-.22.33-.13.53-.23,2.75-.63,2.58-.76.69-.19,2.6-.58.69-.19c1-.35,1.53-.53,2.56-.87l.69-.19,6-1.6.74-.25,1.47-.51,1.1-.32.65-.08.3.09a1.59,1.59,0,0,1,.14.26,5.06,5.06,0,0,1,.18.61c.07.58.09.93.14,1.67s0,1.08,0,1.82c0,.5,0,.75.06,1.24.05.71.07,1.06.12,1.67,0,.37.06.54.11.84s0,.46,0,.7,0,.29,0,.42a2.14,2.14,0,0,1-.13.22l-.2.14-.53.22-.35.12-.7.27-4.09,1.37-.7.24-2.23.8-.7.23-2.26.72-2,.61-.65.21-.34.13-.44.19-.24.18c0,.06,0,.09-.07.16s-.08.2-.13.35c-.07.31-.11.5-.17.9s0,.4-.06.68v.76c0,.2,0,.3,0,.51s0,.18.07.3l.16.18.47,0,1.39-.38,1.41-.57,4.17-1.42c2-.79,3-1.18,4.94-2l1.36-.38.49-.08.26.13.12.22c0,.19,0,.28,0,.46s0,.4.07.64,0,.37,0,.58a2.61,2.61,0,0,1-.1.84c0,.21,0,.38-.07.79s-.16.92-.27,1.69c-.06.32-.09.48-.15.82s-.13.32-.22.54-.19.27-.33.45l-.44.3-.86.31-1.91.36-.68.18-3.44,1.57-2.73.84-.68.24-1.7.41-.72.32-.51.24-.21.27c0,.2-.07.3-.11.5,0,.4,0,.6,0,1,0,.66-.05,1-.09,1.59,0,.37,0,.55,0,.88s0,.64,0,1a2.36,2.36,0,0,0,0,.31.5.5,0,0,0,.12.13l.15,0,.45-.14,2.22-.72.64-.22,2.19-.82,2.88-.94.65-.23,2.91-1.09.62-.22.61-.2,1.49-.46.28,0,.23.07a2.72,2.72,0,0,1,.16.25A13.12,13.12,0,0,1,327.32,57.62Z"/><path class="cls-1" d="M358.84,41.88c0,.42,0,.62-.07,1s-.07.49-.11.72a1.2,1.2,0,0,1-.15.39,1.87,1.87,0,0,0-.23.69c-.09.22-.14.33-.22.56s-.23.52-.37.91-.17.38-.27.66-.28.59-.46,1-.23.45-.38.77-.27.5-.44.85-.27.49-.44.83-.45.66-.75,1.12-.28.48-.46.8l-.55.78c-.21.28-.31.42-.51.71-.35.36-.53.54-.87.91s-.68.71-1.13,1.18l-.63.44-1,.64-.6.35-.9.43-.57.25-1,.37-2,.83-.94.28-.61.1-1,.14-.68.05h-.79l-.73-.16-1.08-.18-.72-.27-.77-.24-.73-.24-.69-.3c-.7-.34-1-.5-1.74-.79l-.68-.36c-.39-.19-.59-.28-1-.44l-.66-.3-.63-.34-.47-.26c-.05-.11-.08-.16-.14-.27s.06-.25.09-.41.07-.14.11-.24.17-.31.28-.5a7.73,7.73,0,0,1,.88-1.09,1.19,1.19,0,0,1,.34-.33,4,4,0,0,0,.95-1.11c.19-.25.28-.39.47-.68s.32-.45.53-.78l.52-.54.46-.05.41.32a4.74,4.74,0,0,0,1.19.63,4,4,0,0,0,.58.07h.55a4.75,4.75,0,0,0,.91-.13,6.46,6.46,0,0,1,.71-.13l.76-.14.74-.17,1-.33.72-.23,2.8-1.08.71-.3.35-.17.64-.38a4.38,4.38,0,0,1,.65-.33,4.86,4.86,0,0,0,.53-.42c.11-.12.17-.19.28-.33a7.14,7.14,0,0,0,.38-.78c0-.36.05-.56.08-1,0-.19,0-.29,0-.5s-.15-.51-.25-.87c-.08-.15-.11-.22-.18-.37s-.31-.32-.51-.54l-.33-.1-.62-.22-.72,0-.73,0-4.12.86-1.26,0H340c-.36-.08-.54-.11-.89-.17l-.62-.07-.59-.17a7.31,7.31,0,0,0-1.34-.29,3.32,3.32,0,0,0-.49-.14,3.79,3.79,0,0,0-.58,0,4.7,4.7,0,0,0-.52,0,4.43,4.43,0,0,1-.72-.05,1.93,1.93,0,0,1-.38-.23,4.35,4.35,0,0,1-.39-.37l-.26-.48c-.12-.29-.19-.45-.31-.77s-.09-.37-.14-.61-.08-.56-.13-.93c0-.54,0-.81-.06-1.27,0-.25.05-.37.09-.58a5.05,5.05,0,0,0,.18-.68l0-.38c.05-.19.07-.3.12-.55s.1-.45.17-.81c.14-.54.22-.85.37-1.48.11-.41.17-.62.28-1s.19-.58.32-1l.41-.91.66-1.25c.22-.34.33-.5.55-.82s.32-.44.54-.72l.58-.57c.32-.34.48-.5.79-.79.51-.38.76-.55,1.26-.88l.63-.35,1-.42.69-.29,1.3-.48.95-.36.69-.24.66-.22.71-.23,1.36-.4.68-.19.32-.07.72-.2,1.53-.37.77-.14.72-.09.75-.07h.71a4.84,4.84,0,0,1,.65.09c.26,0,.39,0,.64.07a7,7,0,0,1,.8.31c.23.07.35.11.58.2l.51.36a5.3,5.3,0,0,1,.34.45l-.05.66-.32.82c-.23.6-.34.9-.57,1.47-.16.34-.23.51-.39.84A9.27,9.27,0,0,1,353.58,29a5,5,0,0,0-.48.52c-.2.19-.3.28-.49.49l-.33.21-.29.07-.4,0c-.24,0-.36,0-.6,0s-.36,0-.6,0l-.27,0-.63.13-.33.08-.71.15-1,.2-.67.21-1.09.32-1.1.39-.71.29-.71.35-.66.37-.25.16c-.19.15-.27.19-.49.35l-.24.23c-.14.19-.2.3-.34.52s-.06.34-.1.59.07.27.12.46l.36.41.48.26.53.08.3,0,.65-.09,1.08-.24,1.45-.42.74-.13,1.47-.16,1.4-.05,1-.13.65-.06,1.23,0,.88,0,.62,0,.62.05.57,0a7,7,0,0,0,1.25.13c.19,0,.27,0,.45,0a1.08,1.08,0,0,1,.39.19,2.42,2.42,0,0,1,.48.6,7,7,0,0,1,.33.62c.11.32.16.5.28.88s.09.59.15,1c.06.63.08,1,.14,1.59,0,.43,0,.64.07,1S358.83,41.46,358.84,41.88Z"/></g></g></svg>