<?xml version="1.0" encoding="utf-8"?>
<!-- Generator: Adobe Illustrator 25.2.3, SVG Export Plug-In . SVG Version: 6.00 Build 0)  -->
<svg version="1.1" id="Calque_1" xmlns="http://www.w3.org/2000/svg" xmlns:xlink="http://www.w3.org/1999/xlink" x="0px" y="0px"
	 viewBox="0 0 233 81" style="enable-background:new 0 0 233 81;" xml:space="preserve">
<style type="text/css">
	.st0{fill:#FFFFFF;}
</style>
<path class="st0" d="M6.9,20.3h5.3c2.3,0,4.3-0.4,5.9-1.3c1.6-0.8,2.9-2,3.7-3.5c0.9-1.5,1.3-3.3,1.3-5.3S22.7,6.5,21.8,5
	c-0.8-1.5-2.1-2.7-3.7-3.6s-3.5-1.3-5.8-1.3H0.6V30h6.3V20.3z M11.2,5.3c1.2,0,2.2,0.2,3,0.6s1.4,1,1.8,1.7c0.4,0.7,0.6,1.6,0.6,2.6
	s-0.2,1.9-0.6,2.6c-0.4,0.7-1,1.3-1.8,1.8c-0.8,0.4-1.8,0.6-3,0.6H6.9v-10L11.2,5.3L11.2,5.3z"/>
<path class="st0" d="M32.7,29c1.7,0.9,3.7,1.4,6,1.4c1.8,0,3.5-0.3,4.9-0.8c1.4-0.6,2.6-1.4,3.5-2.4s1.5-2.2,1.8-3.6L43,23.2
	c-0.2,0.6-0.5,1-0.9,1.4s-0.9,0.7-1.5,0.9s-1.2,0.3-1.9,0.3c-1,0-1.9-0.2-2.7-0.7c-0.8-0.4-1.3-1.1-1.8-1.9
	c-0.4-0.8-0.6-1.8-0.6-2.9l0,0h15.3v-1.7c0-1.9-0.3-3.6-0.8-5S46.8,11,45.9,10c-1-0.9-2.1-1.7-3.4-2.1c-1.3-0.5-2.7-0.7-4.1-0.7
	c-2.2,0-4.1,0.5-5.8,1.5c-1.6,1-2.9,2.3-3.8,4.1c-0.9,1.7-1.3,3.8-1.3,6.1c0,2.4,0.4,4.4,1.3,6.1C29.7,26.8,31,28.1,32.7,29z
	 M36,12.6c0.7-0.4,1.6-0.7,2.5-0.7s1.7,0.2,2.4,0.6c0.7,0.4,1.2,0.9,1.6,1.6c0.4,0.7,0.6,1.5,0.6,2.4h-9.4c0-0.8,0.2-1.5,0.6-2.2
	C34.7,13.6,35.2,13,36,12.6z"/>
<path class="st0" d="M60.8,17c0-1,0.2-1.8,0.5-2.5c0.4-0.7,0.9-1.2,1.5-1.6c0.6-0.4,1.4-0.5,2.2-0.5c1.2,0,2.2,0.4,2.9,1.2
	c0.7,0.8,1.1,1.8,1.1,3.2V30h6.2V15.7c0-1.7-0.3-3.2-1-4.5C73.7,10,72.8,9,71.6,8.3c-1.2-0.7-2.5-1-4.1-1c-1.7,0-3.1,0.4-4.2,1.2
	c-1.2,0.8-2,1.8-2.5,3.1h-0.3v-4h-5.9V30h6.2V17z"/>
<path class="st0" d="M92.5,25.2c-0.3,0-0.6,0.1-0.9,0.1c-0.4,0-0.8-0.1-1.1-0.2c-0.3-0.1-0.6-0.3-0.7-0.7c-0.2-0.3-0.3-0.8-0.3-1.3
	V12.2h4.2V7.6h-4.2V2.2h-6.2v5.4h-3.1v4.7h3.1V24c0,1.5,0.3,2.7,0.9,3.7s1.5,1.7,2.6,2.1c1.1,0.5,2.4,0.7,3.9,0.6
	c0.8,0,1.5-0.1,2.1-0.2s1-0.2,1.3-0.3l-1-4.6C93,25.1,92.8,25.2,92.5,25.2z"/>
<path class="st0" d="M115.6,9.1c-0.9-0.6-1.9-1.1-3.1-1.4c-1.1-0.3-2.3-0.4-3.6-0.4c-1.8,0-3.4,0.3-4.7,0.8
	c-1.4,0.5-2.5,1.3-3.3,2.3c-0.9,1-1.4,2.2-1.7,3.5l5.8,0.5c0.2-0.7,0.7-1.4,1.3-1.8c0.7-0.5,1.6-0.7,2.7-0.7s1.9,0.3,2.5,0.8
	s0.9,1.2,0.9,2.1v0.1c0,0.5-0.2,0.8-0.5,1.1c-0.4,0.2-0.9,0.4-1.7,0.6c-0.8,0.1-1.8,0.2-3.2,0.4c-1.1,0.1-2.2,0.3-3.2,0.6
	c-1,0.3-1.9,0.7-2.7,1.2c-0.8,0.5-1.4,1.2-1.9,2s-0.7,1.9-0.7,3.1c0,1.5,0.3,2.7,1,3.7s1.5,1.7,2.7,2.2c1.1,0.5,2.4,0.7,3.8,0.7
	c1.1,0,2.1-0.1,2.9-0.4s1.6-0.7,2.2-1.2s1.1-1.2,1.4-1.9h0.2v3h5.9V14.9c0-1.3-0.3-2.5-0.8-3.4C117.2,10.5,116.5,9.7,115.6,9.1z
	 M112.3,22c0,0.8-0.2,1.5-0.6,2.1s-0.9,1.1-1.7,1.5c-0.7,0.4-1.5,0.5-2.4,0.5c-1,0-1.7-0.2-2.4-0.7c-0.6-0.4-0.9-1.1-0.9-1.9
	c0-0.6,0.2-1.1,0.5-1.5s0.7-0.7,1.3-0.9s1.2-0.4,1.9-0.5c0.3,0,0.7-0.1,1.1-0.2s0.8-0.1,1.3-0.2c0.4-0.1,0.8-0.2,1.1-0.3
	c0.3-0.1,0.6-0.2,0.8-0.4C112.3,19.5,112.3,22,112.3,22z"/>
<path class="st0" d="M136,30.1c0.6-0.1,1-0.2,1.3-0.3l-1-4.6c-0.2,0-0.4,0.1-0.7,0.1s-0.6,0.1-0.9,0.1c-0.4,0-0.8-0.1-1.1-0.2
	s-0.6-0.3-0.7-0.7c-0.2-0.3-0.3-0.8-0.3-1.3v-11h4.2V7.6h-4.2V2.2h-6.2v5.4h-3.1v4.7h3.1V24c0,1.5,0.3,2.7,0.9,3.7s1.5,1.7,2.6,2.1
	c1.1,0.5,2.4,0.7,3.9,0.6C134.7,30.3,135.4,30.2,136,30.1z"/>
<path class="st0" d="M163.4,30V15.7c0-1.8-0.3-3.3-1-4.5c-0.6-1.3-1.5-2.2-2.7-2.9s-2.5-1-4.1-1c-1.7,0-3.1,0.4-4.2,1.1
	c-1.1,0.7-1.9,1.8-2.5,3.1h-0.3V0.1h-6V30h6.2V17c0-1,0.2-1.8,0.6-2.5c0.4-0.7,0.9-1.2,1.5-1.6c0.7-0.4,1.4-0.5,2.2-0.5
	c1.3,0,2.2,0.4,2.9,1.2s1.1,1.8,1.1,3.2V30H163.4z"/>
<rect x="169.9" y="0.1" class="st0" width="6.2" height="29.9"/>
<path class="st0" d="M202.6,24.9c0.9-1.7,1.3-3.8,1.3-6.1s-0.4-4.3-1.3-6.1c-0.9-1.7-2.2-3.1-3.8-4.1s-3.6-1.5-5.9-1.5
	s-4.2,0.5-5.9,1.5c-1.6,1-2.9,2.3-3.8,4.1c-0.9,1.7-1.3,3.8-1.3,6.1s0.4,4.3,1.3,6.1c0.9,1.7,2.2,3.1,3.8,4.1c1.7,1,3.6,1.4,5.9,1.4
	s4.2-0.5,5.9-1.4C200.4,28,201.7,26.7,202.6,24.9z M197.1,22.3c-0.4,1-0.9,1.8-1.6,2.4c-0.7,0.6-1.6,0.9-2.6,0.9s-1.9-0.3-2.6-0.9
	c-0.7-0.6-1.2-1.4-1.6-2.4c-0.4-1-0.5-2.2-0.5-3.5s0.2-2.5,0.5-3.5c0.4-1,0.9-1.8,1.6-2.4c0.7-0.6,1.6-0.9,2.6-0.9s1.9,0.3,2.6,0.9
	s1.2,1.4,1.6,2.4c0.4,1,0.5,2.2,0.5,3.5C197.6,20.1,197.4,21.3,197.1,22.3z"/>
<path class="st0" d="M223,13.6c0.7,0.8,1.1,1.8,1.1,3.2V30h6.2V15.7c0-1.7-0.3-3.2-1-4.5c-0.6-1.3-1.5-2.2-2.7-2.9s-2.5-1-4.1-1
	c-1.7,0-3.1,0.4-4.2,1.2c-1.2,0.8-2,1.8-2.5,3.1h-0.3v-4h-5.9V30h6.2V17c0-1,0.2-1.8,0.5-2.5c0.4-0.7,0.9-1.2,1.5-1.6
	c0.6-0.4,1.4-0.5,2.2-0.5C221.3,12.4,222.3,12.8,223,13.6z"/>
<path class="st0" d="M26,49.3c-1.6,0-3.1,0.4-4.3,1.2c-1.2,0.8-2,1.8-2.5,3.1H19c-0.4-1.3-1.1-2.3-2.2-3.1s-2.4-1.2-3.9-1.2
	s-2.8,0.4-3.9,1.1c-1.1,0.8-1.9,1.8-2.3,3.1H6.4v-4H0.5V72h6.2V58.5c0-0.8,0.2-1.5,0.5-2.2c0.3-0.6,0.8-1.1,1.3-1.4
	c0.6-0.4,1.2-0.5,1.9-0.5c1,0,1.8,0.3,2.5,1c0.6,0.7,0.9,1.5,0.9,2.6v14h6V58.3c0-1.2,0.3-2.1,0.9-2.8s1.5-1.1,2.6-1.1
	c1,0,1.8,0.3,2.5,0.9c0.7,0.6,1,1.6,1,2.8V72H33V56.9c0-2.4-0.7-4.3-2-5.6C29.8,49.9,28.1,49.3,26,49.3z"/>
<path class="st0" d="M54,50.7c-1.6-1-3.6-1.5-5.9-1.5c-2.3,0-4.2,0.5-5.9,1.5c-1.6,1-2.9,2.3-3.8,4.1c-0.9,1.7-1.3,3.8-1.3,6.1
	s0.4,4.3,1.3,6.1c0.9,1.7,2.2,3.1,3.8,4.1c1.7,1,3.6,1.4,5.9,1.4c2.3,0,4.2-0.5,5.9-1.4c1.7-1,2.9-2.3,3.8-4.1
	c0.9-1.7,1.3-3.8,1.3-6.1s-0.4-4.3-1.3-6.1C56.9,53.1,55.7,51.7,54,50.7z M52.3,64.3c-0.4,1-0.9,1.8-1.6,2.4
	c-0.7,0.6-1.6,0.9-2.6,0.9s-1.9-0.3-2.6-0.9c-0.7-0.6-1.2-1.4-1.6-2.4c-0.4-1-0.5-2.2-0.5-3.5s0.2-2.5,0.5-3.5
	c0.4-1,0.9-1.8,1.6-2.4c0.7-0.6,1.6-0.9,2.6-0.9s1.9,0.3,2.6,0.9c0.7,0.6,1.2,1.4,1.6,2.4c0.4,1,0.5,2.2,0.5,3.5
	C52.8,62.1,52.7,63.3,52.3,64.3z"/>
<polygon class="st0" points="72.2,65.6 71.9,65.6 67.3,49.6 60.7,49.6 68.5,72 75.6,72 83.4,49.6 76.8,49.6 "/>
<rect x="86.6" y="49.6" class="st0" width="6.2" height="22.4"/>
<path class="st0" d="M89.7,40.4c-0.9,0-1.7,0.3-2.4,0.9c-0.7,0.6-1,1.3-1,2.2s0.3,1.6,1,2.2c0.7,0.6,1.5,0.9,2.4,0.9
	s1.7-0.3,2.4-0.9c0.7-0.6,1-1.4,1-2.2c0-0.9-0.3-1.6-1-2.2S90.6,40.4,89.7,40.4z"/>
<path class="st0" d="M115.3,52.1c-1-0.9-2.1-1.7-3.4-2.1c-1.3-0.5-2.7-0.7-4.1-0.7c-2.2,0-4.1,0.5-5.8,1.5c-1.6,1-2.9,2.3-3.8,4.1
	c-0.9,1.7-1.3,3.8-1.3,6.1c0,2.4,0.4,4.4,1.3,6.1c0.9,1.7,2.2,3.1,3.8,4c1.7,0.9,3.7,1.4,6,1.4c1.8,0,3.5-0.3,4.9-0.8
	c1.4-0.6,2.6-1.4,3.5-2.4s1.5-2.2,1.8-3.6l-5.8-0.4c-0.2,0.6-0.5,1-0.9,1.4s-0.9,0.7-1.5,0.9c-0.6,0.2-1.2,0.3-1.9,0.3
	c-1,0-1.9-0.2-2.7-0.7c-0.8-0.4-1.3-1.1-1.8-1.9c-0.4-0.8-0.6-1.8-0.6-2.9l0,0h15.3v-1.7c0-1.9-0.3-3.6-0.8-5
	C117,54.2,116.2,53.1,115.3,52.1z M103,58.5c0-0.8,0.2-1.5,0.6-2.2s1-1.3,1.7-1.7s1.6-0.7,2.5-0.7s1.7,0.2,2.4,0.6
	c0.7,0.4,1.2,0.9,1.6,1.6c0.4,0.7,0.6,1.5,0.6,2.4C112.4,58.5,103,58.5,103,58.5z"/>
<path class="st0" d="M148.9,50.3c-1.2-0.7-2.5-1-4.1-1c-1.7,0-3.1,0.4-4.2,1.2c-1.2,0.8-2,1.8-2.5,3.1h-0.3v-4h-5.9V72h6.2V59
	c0-1,0.2-1.8,0.5-2.5c0.4-0.7,0.9-1.2,1.5-1.6c0.6-0.4,1.4-0.5,2.2-0.5c1.2,0,2.2,0.4,2.9,1.2s1.1,1.8,1.1,3.2V72h6.2V57.7
	c0-1.7-0.3-3.2-1-4.5C151,52,150.1,51,148.9,50.3z"/>
<path class="st0" d="M160.6,40.4c-0.9,0-1.7,0.3-2.4,0.9c-0.7,0.6-1,1.3-1,2.2s0.3,1.6,1,2.2c0.7,0.6,1.5,0.9,2.4,0.9
	s1.7-0.3,2.4-0.9c0.7-0.6,1-1.4,1-2.2c0-0.9-0.3-1.6-1-2.2S161.5,40.4,160.6,40.4z"/>
<rect x="157.5" y="49.6" class="st0" width="6.2" height="22.4"/>
<path class="st0" d="M183.6,53.3h-0.2c-0.3-0.6-0.7-1.2-1.2-1.8s-1.2-1.2-2-1.6c-0.8-0.4-1.9-0.6-3.2-0.6c-1.6,0-3.2,0.4-4.5,1.3
	c-1.4,0.8-2.5,2.1-3.3,3.8s-1.2,3.8-1.2,6.4c0,2.5,0.4,4.5,1.2,6.2c0.8,1.6,1.9,2.8,3.3,3.6c1.4,0.8,2.9,1.2,4.6,1.2
	c1.2,0,2.2-0.2,3.1-0.5c0.9-0.4,1.6-0.8,2.1-1.4s1-1.1,1.2-1.8h0.3v4.1c0,1.5-0.4,2.6-1.3,3.3c-0.9,0.7-2,1-3.3,1
	c-0.9,0-1.7-0.1-2.3-0.4c-0.6-0.2-1.1-0.5-1.5-0.9s-0.7-0.8-0.8-1.3l-5.8,0.8c0.3,1.2,0.8,2.2,1.7,3.2c0.8,0.9,2,1.7,3.4,2.2
	c1.4,0.6,3.2,0.8,5.2,0.8c2.1,0,4-0.3,5.7-1c1.7-0.6,2.9-1.6,3.9-2.9c0.9-1.3,1.4-2.9,1.4-4.8V49.6h-6.2v3.7H183.6z M183.1,64.1
	c-0.4,0.9-0.9,1.7-1.6,2.2c-0.7,0.5-1.5,0.7-2.5,0.7s-1.9-0.3-2.6-0.8c-0.7-0.5-1.2-1.2-1.6-2.2c-0.4-0.9-0.5-2.1-0.5-3.4
	c0-1.3,0.2-2.4,0.5-3.4c0.4-1,0.9-1.7,1.6-2.3c0.7-0.6,1.6-0.8,2.6-0.8s1.9,0.3,2.6,0.8c0.7,0.5,1.2,1.3,1.6,2.3
	c0.4,1,0.6,2.1,0.6,3.4C183.6,62,183.4,63.2,183.1,64.1z"/>
<path class="st0" d="M211.8,50.3c-1.2-0.7-2.5-1-4.1-1c-1.7,0-3.1,0.4-4.2,1.1c-1.1,0.7-1.9,1.8-2.5,3.1h-0.3V42.1h-6V72h6.2V59
	c0-1,0.2-1.8,0.6-2.5c0.4-0.7,0.9-1.2,1.5-1.6c0.7-0.4,1.4-0.5,2.2-0.5c1.3,0,2.2,0.4,3,1.2c0.7,0.8,1.1,1.8,1.1,3.2V72h6.2V57.7
	c0-1.8-0.3-3.3-1-4.5C213.9,51.9,212.9,51,211.8,50.3z"/>
<path class="st0" d="M231.7,67.1c-0.2,0-0.4,0.1-0.7,0.1s-0.6,0.1-0.9,0.1c-0.4,0-0.8-0.1-1.1-0.2s-0.6-0.3-0.7-0.7
	c-0.2-0.3-0.3-0.8-0.3-1.3V54.2h4.2v-4.7H228v-5.4h-6.2v5.4h-3.1v4.7h3.1v11.7c0,1.5,0.3,2.7,0.9,3.7c0.6,1,1.5,1.7,2.6,2.1
	c1.1,0.5,2.4,0.7,3.9,0.6c0.8,0,1.5-0.1,2.1-0.2s1-0.2,1.3-0.3L231.7,67.1z"/>
</svg>
