<svg xmlns="http://www.w3.org/2000/svg" viewBox="0 0 173.63 293.08"><defs><style>.cls-1{fill:#95c11f;}</style></defs><g id="Calque_2" data-name="Calque 2"><g id="Calque_2-2" data-name="Calque 2"><circle class="cls-1" cx="104.14" cy="21.16" r="21.15" transform="translate(-1.25 7.57) rotate(-4.14)"/><path class="cls-1" d="M110.43,119.08a10,10,0,0,0,12.71,6c.28-.09.54-.2.81-.31a10.21,10.21,0,0,0,3.69-2.3l42.87-41.71a10.38,10.38,0,0,0,.21-14.63h0a10.39,10.39,0,0,0-14.63-.2L124,97.1,111,59.68a9.36,9.36,0,0,0-2.3-3.62,11.23,11.23,0,0,0-5.47-3.57l-15.5-4.56a11.29,11.29,0,0,0-8.32.79,11.12,11.12,0,0,0-4.51,2.18L24.45,91.36a11.27,11.27,0,0,0-3.1,3.91,10.77,10.77,0,0,0-.81,1.87l-20,61.52a11.37,11.37,0,0,0,21.63,7l19-58.63L63.86,88.9,47.34,145.15a1,1,0,0,0,0,.17l-.09.22L3.28,278.2a11.37,11.37,0,0,0,21.63,7L66.33,160.3l46.45,1L75.13,230.34a11.4,11.4,0,0,0,4.55,15.42h0a11.4,11.4,0,0,0,15.42-4.54l45.19-82.92a11.35,11.35,0,0,0-7.81-19.37L90,138.05l12.39-42.19Z"/></g></g></svg>