<svg xmlns="http://www.w3.org/2000/svg" viewBox="0 0 295.05 140.6"><defs><style>.cls-1{fill:#1d1d1b;}</style></defs><g id="Calque_2" data-name="Calque 2"><g id="Calque_2-2" data-name="Calque 2"><circle class="cls-1" cx="83.33" cy="22.11" r="22.11" transform="translate(42.95 98.28) rotate(-76.93)"/><path class="cls-1" d="M230.89,38.94,217.22,50.82H96.52a22.13,22.13,0,0,1-26.37,0H66.36a12.39,12.39,0,0,0-5.9,1.49,11.23,11.23,0,0,0-3.17,1.75L4.39,94.43a11.55,11.55,0,0,0-1.92,16.2c.27.34.56.66.85,1a9.93,9.93,0,0,0,4.09,3.35l52.5,24a11.16,11.16,0,0,0,1.05.39,12.41,12.41,0,0,0,5.4,1.24H100.3a12.58,12.58,0,0,0,12.55-12.54V69.91H217.22c3.77,0,5.82-1.44,6.89-3.65l9.15-13.06h61.79V38.94ZM53.81,114.15,30.58,103.51,53.81,85.78Z"/></g></g></svg>