<svg xmlns="http://www.w3.org/2000/svg" viewBox="0 0 307.17 188.54"><defs><style>.cls-1{fill:#ffed00;}</style></defs><g id="Calque_2" data-name="Calque 2"><g id="Calque_2-2" data-name="Calque 2"><path class="cls-1" d="M79.89,129.82c0,1.35,0,2,.07,3.41s0,2.07,0,3.46-.09,2-.15,3.32c-.12,1.85-.14,2.75-.16,4.56-.07,1.16-.09,1.74-.14,2.9-.12,1.66-.16,2.49-.24,4.15-.09,1.08-.14,1.62-.22,2.7-.18,1.5-.27,2.26-.44,3.76l-.45,2.54c-.25,1-.37,1.55-.61,2.58s-.38,1.43-.64,2.4c-.48,1.16-.72,1.75-1.2,2.94-.31.82-.46,1.24-.76,2.07s-.56,1.14-.93,1.92-.52,1-.86,1.72c-.61.85-.9,1.28-1.49,2.15-.77,1.11-1.14,1.67-1.87,2.81l-1.05,1c-.66.59-1,.88-1.63,1.48-.4.32-.6.48-1,.81l-1.47,1-.94.57-1.58.8-3.2,1.87-1.57.51-1.09.07H54.41l-1.26-.17-1.51-.38-1.53-.91-2.22-1.24-1.58-1.35L44.69,182l-1.51-1.3-1.44-1.48c-1.44-1.64-2.12-2.42-3.42-3.93l-1.25-1.72-1.75-2.3-1.15-1.6c-.44-.71-.65-1.06-1.09-1.75s-.48-.86-.82-1.43c-.1-.49-.15-.74-.26-1.23,0-.7,0-1.05.07-1.76,0-.41.07-.62.1-1,.12-.93.16-1.4.23-2.37a37.6,37.6,0,0,0,.34-6.11c-.09-1.05-.17-1.62-.32-2.62-.5-2.31-.72-3.29-1.14-5.06-.11-.77-.17-1.13-.27-1.83s-.09-1-.14-1.68c.15-.41.24-.62.4-1l1.1-.07c.65.25,1,.38,1.61.66a35.62,35.62,0,0,1,4.51,2.15c.76.32,1.14.49,1.9.85s1,.46,1.71.8c1.1.51,1.65.79,2.72,1.39a13.83,13.83,0,0,1,1.57.72L48,149l1.47.25,1.92-.34,1.34-.16c2-.93,3-1.39,5-2.25l1.23-.76.57-.59,1-1.6c.3-.79.47-1.11.8-1.82s.29-1.27.5-2.09l.2-1.39c0-1.14,0-1.69,0-2.79-.26-1.17-.4-1.73-.66-2.84-.19-.51-.28-.76-.47-1.25-.49-.82-.74-1.22-1.25-2l-.7-.76c-.66-.44-1-.66-1.66-1.06l-.92-.16c-.7-.13-1.05-.19-1.76-.3s-1.14.06-1.9.11-1.13.16-1.88.28c-4.08,1.07-6.15,1.69-10.25,2.86l-3.42.58-1.88.22-2.75,0-1.85,0c-.79-.07-1.19-.11-2-.21a43.43,43.43,0,0,1-4.59-.84c-.77-.3-1.16-.45-1.94-.8s-1.28-.5-2.13-.89a17.34,17.34,0,0,1-1.94-1.2c-1.1-.89-1.67-1.34-2.79-2.28l-2-2.31L11,119.89l-2-2.84c-1-1.61-1.57-2.43-2.58-4.07-.64-1.17-1-1.77-1.58-3-.85-1.75-1.26-2.63-2-4.4A46.73,46.73,0,0,1,.8,99.17c-.26-1.3-.37-2-.53-3.26A20.33,20.33,0,0,1,.08,91a11.16,11.16,0,0,1,1-3.38,21.43,21.43,0,0,1,1.76-3.19,42.79,42.79,0,0,1,2.88-3.94c2-2.4,3.19-3.67,5.74-6.27,1.64-1.66,2.51-2.51,4.31-4.24,1.62-1.51,2.46-2.28,4.16-3.84l4.21-3.73c2.42-2.11,3.64-3.19,6.07-5.35,1.7-1.49,2.55-2.25,4.23-3.76s2.34-2.09,3.86-3.49c1.32-1.18,2-1.78,3.25-3,1.91-1.8,2.85-2.69,4.65-4.48,2.26-2.18,3.35-3.27,5.4-5.41.93-.95,1.38-1.43,2.26-2.37s1.51-1.51,2.46-2.5c.68-.72,1-1.07,1.67-1.77,1.09-1.13,1.61-1.68,2.62-2.76.82-.91,1.21-1.36,2-2.25.5-.54.74-.8,1.21-1.33l1-1c.34-.29.52-.43.86-.7a12.4,12.4,0,0,1,1.26-.42l.61,0c.06.12.1.17.17.29l.71,0,1.46.5.73.58c.24.36.36.55.63.92s.45.55.78.92.41.76.7,1.27.37,1,.64,1.62.45.81.77,1.35c.33,1.1.5,1.65.88,2.76.31.69.47,1,.8,1.73.25.94.38,1.42.66,2.37s.22,1.49.37,2.49l-.45,3.07-1.07,3.57c-.77,2.61-1.17,3.92-1.92,6.5-.51,1.56-.76,2.35-1.25,3.89A143.83,143.83,0,0,0,67.32,71a12.16,12.16,0,0,1-1.53,3.31L64.08,76.8l-1.09,1-.92.18-1.3-.4-2-.87-2-.32-.95-.19a12.29,12.29,0,0,1-2.24-.47l-1.18-.1c-1-.07-1.49-.11-2.47-.2-1.32-.07-2-.11-3.28-.2l-2.32.52-3.74.71c-1.53.51-2.29.76-3.82,1.25l-2.55,1.08-2.66,1.63L29,82.48l-1,1.07c-.82,1.17-1.22,1.82-1.92,2.71l-.71,1.37c-.37,1.2-.54,1.8-.83,3,0,1.28,0,1.92.1,3.2.33,1,.5,1.43.86,2.39.64.87,1,1.3,1.64,2.16.78.58,1.17.86,2,1.43l1.92.58,1.1.23c.87-.06,1.31-.09,2.19-.17,1.42-.27,2.13-.41,3.55-.71,1.9-.56,2.86-.84,4.75-1.43L45,98c2-.14,2.93-.22,4.83-.38l4.45.07,3-.33,2-.07c1.45.14,2.16.21,3.55.37,1,.25,1.48.38,2.43.65.67.24,1,.37,1.65.62s1,.49,1.6.83.87.54,1.44.91c1.26,1.28,1.86,1.93,3,3.31.44.73.69,1.18,1.16,2s.65,1.25,1.07,2.08l1.3,3.23c.35.94.52,1.41.86,2.36.32,1.12.48,1.67.79,2.8s.31,1.71.52,2.86c.24,1.7.36,2.55.59,4.26.14,1.17.2,1.75.34,2.93C79.74,127.79,79.79,128.46,79.89,129.82Z"/><path class="cls-1" d="M133.53,75.42c-.05,1.24-.08,1.86-.14,3.11s-.18,1.86-.29,3.1c-.13,1.41-.19,2.11-.31,3.52-.28,2.06-.41,3.09-.65,5.15-.15,1.32-.22,2-.34,3.29-.29,1.65-.45,2.45-.65,4.11-.16,1.17-.21,1.77-.29,3-.16,1.67-.21,2.52-.27,4.27-.1,1.2-.14,1.8-.2,3-.12,1.79-.16,2.7-.22,4.53-.11,1.16-.16,1.74-.26,2.9s-.23,1.75-.39,2.92-.26,1.6-.44,2.67c-.22.87-.33,1.3-.56,2.17s-.39,1.3-.66,2.16c-.5,1-.75,1.43-1.26,2.38-.35.65-.52,1-.88,1.63s-.63,1-1.07,1.62c-.39.46-.59.69-1,1.14-.61.55-.91.82-1.53,1.36l-1.08.67-1.11.45-1.21.22-2,.45-6.44.06-1.32-.2-1.29.22-1.29.43-.9.42c-.07.58-.11.87-.19,1.44,0,1.07,0,1.6-.06,2.65a81.44,81.44,0,0,0,.51,12.24c.12,1,.19,1.55.33,2.57.28,1.9.43,2.82.71,4.72.1,1,.15,1.45.24,2.44.14,1.45.21,2.19.31,3.74,0,.8,0,1.21,0,2-.06.48-.08.72-.14,1.22l-.33.55-.74.76c-.88.6-1.32.89-2.21,1.45-1.11.34-1.66.49-2.79.75l-1.15.42c-.92.48-1.38.71-2.31,1.14l-1.2.1c-.69.08-1,.11-1.74.16l-1-.65-.56-1.16c-.15-1-.23-1.45-.4-2.41-.19-1.21-.3-1.81-.52-3s-.32-1.93-.55-3.21c-1.3-8.59-2.41-12.77-2.72-21.61,0-4.38.16-6.48.15-10.79,0-1.3-.07-2-.12-3.25-.31-4.31-.5-6.48-.82-10.79l-.15-3.26c-.48-9.92-.4-14.94-.55-25.2,0-1.35,0-2,0-3.37.07-4.58.11-6.88.18-11.48,0-1.35,0-2,0-3.38-.13-4.45-.35-6.54-.27-11.06,0-1.38.09-2.1.19-3.61.45-5.06.84-8,1.61-13.78.19-1.63.29-2.45.48-4.1.33-3.28.5-4.94.79-8.15.2-1.61.3-2.4.48-4,.12-.83.17-1.24.28-2,.16-1.11.24-1.66.38-2.72.14-.57.21-.85.34-1.41l.46-1.13.87-.15c.9-.08,1.35-.11,2.25-.13.7.2,1,.31,1.74.54l1.14.25a47.18,47.18,0,0,1,5.06,1.23c2,.66,3,1,5,1.82,2,1.1,2.93,1.67,4.88,2.8l4.88,2.08,2.86.82,1,.6.6.24,1.06,1c.63.67,1,1,1.58,1.65L126.37,33l1,1.35c.36.58.55.86.91,1.42s.49,1,.82,1.65.36,1,.6,1.67l.7,2.48c.2.6.29.89.48,1.47.05.34.08.51.12.85.24,1,.36,1.5.62,2.5.09.71.14,1.06.25,1.79.06.33.09.5.16.84,0,.68.07,1,.14,1.74,0,.36.08.54.14.9,0,.8.07,1.21.16,2.08s.08,1.52.19,2.64.16,1.61.28,2.76l.05,1.43c.11,1.15.15,1.73.24,2.88,0,.66.06,1,.09,1.65.08,1.15.11,1.73.18,2.89.06,2.31.08,3.47.11,5.79C133.6,74.43,133.58,74.76,133.53,75.42Zm-22.07,22.3,1.18-.62,1.12-1,.53-.74c.37-.75.55-1.13.93-1.87.16-.37.24-.56.41-.93.27-.9.41-1.35.7-2.25.11-.54.17-.81.29-1.34.21-1.15.32-1.73.54-2.87l.25-1.54c.15-1.4.23-2.1.39-3.5,0-.61.07-.92.12-1.53.07-2.17.11-3.26.18-5.43,0-1.31-.07-2-.12-3.26-.06-.7-.1-1-.17-1.74-.14-1.13-.22-1.7-.38-2.83-.1-.52-.16-.78-.27-1.31-.31-1-.46-1.57-.78-2.63-.24-.44-.36-.66-.59-1.1l-1.12-1.78-1.93-1.57-1.18-.46h-1.68c-.87.19-1.3.29-2.16.5-1.28-.22-1.92-.32-3.19-.48l-1.07.1-.56.29c-.31.21-.46.32-.77.55-.1.28-.15.43-.26.71-.07.65-.1,1-.17,1.62,0,1.1,0,1.65-.07,2.75.05,2.09.07,3.14.1,5.23.14,3.36.2,5,.32,8.4l.1,3.64c.09,5.29.12,7.93.26,13.2,0,1.09.08,1.63.13,2.72l.25,1.56.76.8,3.47.36Z"/><path class="cls-1" d="M163.72,142.69v2.48c-.14,3.09-.23,4.11-.4,6.19,0,.62,0,.92,0,1.53-.08,2.1-.12,3-.17,5.9,0,.57,0,.87,0,1.51-.1.25-.15.38-.25.65l-.66.22L161,160.9c-1.68-.67-2.52-1-4.19-1.57-2-.64-3.06-.93-5.09-1.43-1.63-.64-2.44-.92-4.06-1.43l-.49-.35c-.09-.18-.14-.27-.23-.43,0-.51,0-.74,0-1.17,0-1.09,0-1.5-.06-2.24,0-.46,0-.66.07-1.05s0-.53,0-.87.05-.49.07-.84c0-1.27,0-1.85,0-4.55,0-.8.07-1.25.11-2.29a55.23,55.23,0,0,0-.59-11.34c-.21-1.47-.34-2.22-.61-3.73-1.15-5.2-1.93-7.93-3.22-13.23-.34-1.53-.51-2.3-.82-3.82a59.31,59.31,0,0,1-1.7-12.17c-.18-7.21.21-10.44.71-17.88.28-4.76.46-7.19.7-11.87.07-1.36.11-2,.17-3.38.24-4.52.07-6.88.35-10.72.39-6.1,1.53-7.87,3.22-12.23a32,32,0,0,0,2.09-7.49c.22-.72.32-1.09.5-1.86.23-.33.34-.5.56-.85.33-.18.5-.28.83-.48l.66-.26c.5-.28.75-.42,1.25-.72.78-.3,1.17-.46,2-.81.52-.29.79-.43,1.32-.74,1.53-1,2.29-1.58,3.83-2.76,2.06-1.4,3.09-2.18,5.15-3.78l.88-.34c0,.39,0,.59,0,1-.1.78-.17,1.16-.32,1.91a28.72,28.72,0,0,1-1.21,4.3c-.37,1-.56,1.55-1,2.57-2.7,6.36-4.85,9.13-5.59,16.52-.38,4.06-.08,6.31-.25,11.62-.06,1.58-.09,2.39-.16,4-.27,5.71-.46,8.85-.77,14.79-.09,1.73-.13,2.59-.21,4.28-.23,5.69-.33,8.47-.36,13,0,1.35,0,2,0,3.28.13,4.49.7,6.93,2,11.88,2.18,8,4.06,12.26,5.78,20.06A46.56,46.56,0,0,1,163.72,142.69Z"/><path class="cls-1" d="M221,185.06l-.73.77c-1.49-.65-2.24-1-3.76-1.79l-3-1.83-.9-.48-2.64-.92-.78-.4c-.22-.48-.32-.71-.54-1.18-.19-.82-.28-1.23-.47-2.06-.72-4.48-1.05-6.78-1.8-11.2-.21-1.18-.32-1.76-.54-2.93-.79-4.15-1.21-6.16-2.13-10-.25-1.07-.39-1.59-.65-2.63-.84-4-1.3-5.87-2.22-9.57-.29-1-.47-1.49-.86-2.48a39.64,39.64,0,0,0-4.9-8.9c-.48-.66-.74-1-1.26-1.68l-.76-.64L192,127l-2.74-.44-.93.21c0,.51,0,.77-.08,1.28.37,1.11.55,1.67.85,2.77a27.84,27.84,0,0,1,1.95,11.38c0,1.28.06,1.92.1,3.17.15,4.39.22,6.48.37,10.69,0,1.2.06,1.8.09,3,0,1.8.06,2.7.1,4.52,0,1.2,0,1.81,0,3s0,1.81-.06,3l-.15,2.27-.39.83-.86.26-1.26-.5-3.83-2.14c-1.47-.39-2.21-.6-3.69-1l-1.29-.57c-1.49-.87-2.24-1.31-3.74-2.17-.4-.3-.59-.46-1-.76l-.5-.88c-.07-.69-.1-1-.17-1.67,0-.89-.06-1.31-.09-2.14s0-1.31-.09-2.15c.07-1.41.1-2.08.16-3.45,0-.84,0-1.26.09-2.11.12-2.87.19-4.3.29-7.85,0-1.05,0-1.6,0-2.76a37.21,37.21,0,0,0-1.69-11.13c-.42-1.39-.65-2.1-1.16-3.52-1.59-4.7-2.68-7.13-4.48-11.89-.54-1.43-.8-2.15-1.29-3.58-1.56-4.79-2.27-7.17-2.54-11.62a30.66,30.66,0,0,1-.08-3.36c0-4.89,0-8.08.18-14.66.07-2,.11-3,.18-5,.34-6.81.54-10.48.84-17,.07-1.94.1-2.89.15-4.72.24-6.07-.05-8.53.46-12.88a23.41,23.41,0,0,1,.54-3.23,44.6,44.6,0,0,1,3.82-10.47c.57-1.22.87-1.83,1.45-3.06,1.15-2.48,1.73-3.72,2.71-6.22.51-1.18.75-1.77,1.18-3,.19-.49.28-.74.46-1.24.41-1.1.6-1.65.93-2.77.34-.79.51-1.19.81-2l1.1-1.39.69-.71c.51-.47.77-.7,1.28-1.15,1.47-1,2.21-1.4,3.68-2.22A30.13,30.13,0,0,1,194,1.88,20.39,20.39,0,0,1,199.71,0c.51,0,.77,0,1.28,0,2,.36,3,.56,5.06,1,1.19.06,1.79.1,3,.19l1.28.32,1,.77c.53.58.79.88,1.3,1.49.34.5.51.75.84,1.26s.44.9.72,1.51.47.93.76,1.56.34,1.09.54,1.82.16,1.23.24,2.06c.07,1.35.1,2,.13,3.4-.05.94-.08,1.41-.14,2.36s-.2,1.56-.34,2.61c-.23,1.24-.34,1.87-.56,3.11-.45,2.07-.67,3.1-1,5.16-.24,1.33-.35,2-.53,3.31a43.72,43.72,0,0,0-.52,4.74,32.09,32.09,0,0,0-.18,3.36,20.66,20.66,0,0,0,.18,3.45c.1,1.42.22,2.06.37,3.63s.12,2.39.19,4.18,0,2.71,0,4.67c0,2.69,0,4.13,0,7.06,0,2.13-.06,3.21-.1,5.4s-.12,3.3-.19,5.5-.17,3.5-.28,5.8-.21,3.42-.35,5.61-.25,3.07-.41,5-.34,2.66-.56,4.29-.37,2.39-.61,3.81-.47,2-.73,3.24c-.27,1-.39,1.54-.6,2.54s-.3,1.38-.45,2.27-.24,1.23-.36,2c-.26,1.18-.37,1.77-.53,3-.15.67-.22,1-.34,1.68-.34.84-.49,1.27-.78,2.14-.16.54-.23.82-.37,1.38s-.25.85-.4,1.42l-.67.68-.32.65c.37.6.55.9.91,1.51a80.28,80.28,0,0,1,6,9.76c.51,1,.76,1.44,1.23,2.44A43.61,43.61,0,0,1,217.1,144c.29,1.16.43,1.76.69,3a124.77,124.77,0,0,1,1.79,14.11c.16,1.45.23,2.18.37,3.67.45,4.45.63,6.76,1,11.24.11,1.37.17,2,.29,3.39s0,2,.09,3.24C221.23,183.65,221.16,184.13,221,185.06ZM190.56,93.41c.72-.46,1.08-.7,1.8-1.18.43-.6.65-.9,1.08-1.52.41-.88.61-1.32,1-2.23.36-1.56.54-2.37.9-4,.28-2.08.42-3.15.7-5.31.19-2.32.28-3.5.47-5.87s.14-3.58.24-6c0-2.53,0-3.79.07-6.25s0-3.68,0-6c-.08-2.06-.13-3.06-.22-4.95s-.28-2.83-.47-4.53c-.27-1.38-.41-2-.68-3.25-.35-.93-.52-1.37-.87-2.19-.44-.58-.66-.85-1.08-1.41l-1.67-1.26-1.23-.55c-1.58-.23-2.38-.32-4-.44l-1.28,0a23.57,23.57,0,0,0-4,.92c-.37.13-.56.21-.92.35l-.58.74a13.73,13.73,0,0,0-.5,1.35c0,.94,0,1.46-.09,2.56,0,2.28,0,3.59,0,6.41,0,2,0,3,0,5.16s0,3.48,0,5.93-.06,3.7-.11,6.23c-.3,8.21-.47,12.62-.72,20.07,0,1.49,0,2.22,0,3.63,0,.76.07,1.14.11,1.88.2.38.3.56.51.93s.53.38.89.63c1.57.54,2.37.81,4,1.32.51,0,.76,0,1.28,0C187.35,94.1,188.42,93.87,190.56,93.41Z"/><path class="cls-1" d="M242.36,135.9a32.35,32.35,0,0,1,.44,4.12c.21,6-.16,9.87-1,17.53-.22,2.26-.35,3.4-.61,5.69-.94,7.85-1.58,11.95-2.32,18.64-.14,1.34-.2,2-.31,3.22-.14.59-.2.88-.33,1.44l-.61,1-1,.52a46,46,0,0,1-7,.46,21.18,21.18,0,0,1-2.8-1.44l-.3-.63c0-.35-.08-.53-.12-.88.06-1.15.1-1.74.18-2.95.17-3,.28-4.62.51-7.9.18-2.09.27-3.16.46-5.31s.22-3,.36-5.06.23-3,.37-5.06a127,127,0,0,0,.21-17c-.06-1.81-.11-2.68-.28-4.31-.57-5.51-1.56-8.27-2.45-12.49-.25-1.25-.37-1.84-.59-3-.92-3.86-1.27-5.38-1.79-8.64-.12-1-.18-1.42-.27-2.39a67.49,67.49,0,0,1-.4-9c.09-6.59.09-12.11.26-23.24.08-7.12.13-11,.19-17.68,0-2,0-2.91.06-4.72.1-6.11-.33-8,.38-12.84,1.07-7.78,3.52-12.38,7.21-21.14,2.29-5.61,3.53-8.45,4.86-13.7.38-1,.54-1.53.84-2.53.26-.33.38-.5.63-.83l.8,0,.61.13,1.18,0,1.79.65,1.22.28,3.59.36,4.77,1.11.78.64c0,.54,0,.82-.08,1.38-.17,1-.28,1.51-.52,2.54a57.93,57.93,0,0,1-1.84,6.25c-.54,1.58-.83,2.37-1.43,4-3.87,9.76-6.91,15.11-8.06,23.69-.6,4.72-.17,6.67-.18,12.51,0,1.73,0,2.63,0,4.48-.09,6.33-.14,9.9-.24,16.58,0,1.94,0,2.9,0,4.79,0,6.37,0,9.46,0,14.24,0,1.42,0,2.08,0,3.29a67.23,67.23,0,0,1-.82,8.19c-.49,4.43-.88,5.74.39,12.39C239.81,127.36,241.4,130.8,242.36,135.9Z"/><path class="cls-1" d="M306.65,33.59a8.37,8.37,0,0,1,.28,1.3,5.71,5.71,0,0,1,.13,2.78,9.19,9.19,0,0,1-.61,1.75c-.18.38-.28.57-.51,1-.37.62-.58,1-1.06,1.65-.34.41-.53.62-.91,1.06l-1,.82-1.22.36-1.31,0c-.85-.17-1.28-.26-2.18-.39L297,43.86c-1.7.3-2.56.46-4.31.82l-1.42.13c-.79-.05-1.19-.08-2-.11l-1.35.15-.72.24c-.49.25-.74.38-1.23.65l-1,1.18c-.61,1-.93,1.56-1.57,2.68-2.9,5.1-4.6,8.29-7.62,14.66-.78,1.72-1.17,2.6-1.92,4.34a101.94,101.94,0,0,0-5.44,15.73c-.46,1.57-.65,2.33-1,3.78-1.18,5.43-.79,7.58-1.06,12-.07,1.19-.11,1.77-.18,2.94-.09,4.26-.13,6.28,0,10.7.08,6.9.89,10.63.92,20.17,0,6.13-.06,9.24-.6,15.59-.09,1.59-.15,2.39-.3,4a75.83,75.83,0,0,1-1.76,12.05c-.4,1.74-.62,2.61-1.13,4.37-.49,1.4-.74,2.1-1.29,3.52l-.84,1.68-1,1.26c-.45.29-.66.42-1.08.67a11.37,11.37,0,0,1-1.2.27c-.35.17-.53.26-.87.41-1.1,1.05-1.61,1.54-2.59,2.46-.31.21-.47.3-.77.49a13.1,13.1,0,0,1-1.82.34h-.45c0-.28-.05-.43-.08-.72.23-1.25.34-1.88.56-3.17.38-2,.56-3.05.89-5.14.89-5.19,1.27-7.91,1.83-13.23.21-2,.3-3,.46-5,.63-9.36.67-14.05-.18-21.51-.66-6-1.38-8.75-1.54-13.09-.05-1.16-.06-1.71-.06-2.78a78.17,78.17,0,0,1,.64-9.28c.1-1,.16-1.5.26-2.54.29-3.87.07-5.79.77-11.33.19-1.48.3-2.26.57-3.87a206.77,206.77,0,0,1,5-21.27c1.81-6.75,2.82-10.14,4.5-15.58.42-1.3.62-1.92,1-3.08.11-.65.16-1,.26-1.57l-.83-.25L264,47.8l-3,.75-1.64.19L257,48.63l-1.49,0-1.56.34c-.83.16-1.24.24-2,.38l-1.31.11-.67-.15-.91-.35-.41-.78c-.06-.49-.09-.74-.14-1.24.08-.83.14-1.26.27-2.11.14-.61.22-.91.38-1.52.34-1.4.54-2.11,1-3.55,1-2.7,1.53-4.09,2.67-6.87.54-1.39.82-2.09,1.37-3.49,1.29-3.55,2-5.35,3.08-8.88.53-1.47.79-2.2,1.23-3.64.43-1.15.63-1.72,1-2.84.26-.58.38-.87.61-1.44l.55-.51.79-.19,1.64.58,2.5,1.58,1.12.42c1.66.29,2.47.44,4.08.77l1.09.44c1.56,1,2.34,1.57,3.92,2.58l1.08.43,5,1c1.57.65,2.36,1,4,1.57l1.1.35c2.07.59,3.11.86,5.24,1.31a51.68,51.68,0,0,0,5.38,1c1,0,1.45,0,2.44,0l1.31.28.64.21,1,.38.65.66c.22.44.34.65.58,1.06.21.69.33,1,.57,1.62.1.35.15.52.26.85.27.7.41,1,.69,1.64C306.07,32,306.32,32.49,306.65,33.59Z"/></g></g></svg>