<svg xmlns="http://www.w3.org/2000/svg" viewBox="0 0 307.45 94.71"><defs><style>.cls-1{fill:#1d71b8;}</style></defs><g id="Calque_2" data-name="Calque 2"><g id="Calque_2-2" data-name="Calque 2"><circle class="cls-1" cx="197.91" cy="35.84" r="23.79" transform="translate(-2.94 46.43) rotate(-13.28)"/><path class="cls-1" d="M200.55,94.64h0Z"/><path class="cls-1" d="M200.65,94.64l1.54,0Z"/><path class="cls-1" d="M202.19,94.69h0Z"/><path class="cls-1" d="M199.07,94.6l.68,0Z"/><path class="cls-1" d="M199.75,94.62l.8,0Z"/><path class="cls-1" d="M202.55,94.7h0Z"/><path class="cls-1" d="M199.07,94.6h0Z"/><path class="cls-1" d="M202.44,94.7h0Z"/><path class="cls-1" d="M307.07,50.15c-1.2-4.59-7.25-7.62-11.49-6.32L222,65.26l-17.56,4.46a29.93,29.93,0,0,1-29.89-9.57L164,48.2,127.51,3.7a10,10,0,0,0-1.3-1.3h0l-.14-.11A9.21,9.21,0,0,0,115.81,1l-64,32.67a10.13,10.13,0,0,0-4.42,13.2h0A9.32,9.32,0,0,0,60,51.36L117.51,22l24.88,30.38c-.13,0-.26-.09-.39-.15C104.38,50.65,6.54,75.79.32,77.41H0s0,.06,0,.09H0C-.07,84.27,9.63,90,21.75,90.38s22.18-4.9,22.35-11.72h0c0,6.77,9.64,12.51,21.74,12.86,11.52.33,21.08-4.35,22.22-10.64,1.06,6.22,10.28,11.3,21.64,11.62,12,.35,21.94-4.78,22.32-11.49h.06c.19,6.66,9.77,12.26,21.72,12.6s21.87-4.75,22.31-11.42h.08c.4,6.55,9.89,12,21.71,12.38h0c.35,0,.7,0,1.06,0l-.88,0,.88,0c11.41.08,27.21-7.17,27.71-7.32l75.64-25C306.59,61,308.28,54.74,307.07,50.15Z"/><path class="cls-1" d="M198,94.57h0Z"/><path class="cls-1" d="M203.05,94.71Z"/><path class="cls-1" d="M202.78,94.71h0Z"/></g></g></svg>