<svg xmlns="http://www.w3.org/2000/svg" viewBox="0 0 369.01 140.94"><defs><style>.cls-1{fill:#e30613;}</style></defs><g id="Calque_2" data-name="Calque 2"><g id="Calque_2-2" data-name="Calque 2"><path class="cls-1" d="M368.79,33.2a2.81,2.81,0,0,0-3.68-1.49L260.5,76.2a17.1,17.1,0,0,0-20.57-4.62l3.45,7.25a9.42,9.42,0,0,0-2.4.66l-69.2,29.43L108.22,72.23a9.44,9.44,0,0,0-5.91-2.08H25L55.35,14.06A9.53,9.53,0,1,0,38.58,5L2.41,71.85a9.83,9.83,0,0,0-1,2.86,9.5,9.5,0,0,0,8.11,14.5H52.91v39.71a12,12,0,0,0,12,12h35.14a12,12,0,0,0,12-12V96.48l54,31.17a11.31,11.31,0,0,0,9.24.47L248.44,97a9.35,9.35,0,0,0,2.74-1.79l3.44,7.23a17.11,17.11,0,0,0,8.69-21.37l104-44.22A2.81,2.81,0,0,0,368.79,33.2Z"/><path class="cls-1" d="M65,29.81A22.25,22.25,0,0,0,84.57,54.43h.15l-.52,4.61A27.07,27.07,0,1,0,90.33,5.26l-.57,5-.16,0A22.24,22.24,0,0,0,65,29.81Z"/></g></g></svg>